{"glyphs":{"0":{"ha":867,"x_min":74,"x_max":792,"o":"m 433 -15 q 165 111 256 -15 q 74 482 74 238 q 168 844 74 715 q 433 972 263 972 q 699 844 606 972 q 792 482 792 715 q 701 111 792 238 q 433 -15 610 -15 m 294 236 q 433 150 342 150 q 572 236 525 150 q 619 482 619 322 q 572 719 619 633 q 433 806 524 806 q 295 719 343 806 q 247 482 247 633 q 294 236 247 322 z "},"1":{"ha":585,"x_min":40,"x_max":456,"o":"m 456 82 q 431 24 456 47 q 369 0 407 0 q 310 22 335 0 q 285 82 285 44 l 285 696 l 181 608 q 153 592 169 599 q 121 585 136 585 q 64 609 88 585 q 40 668 40 633 q 49 706 40 689 q 72 733 58 722 l 301 931 q 341 953 324 949 q 369 958 358 958 q 431 935 408 958 q 454 875 454 913 l 456 82 z "},"2":{"ha":756,"x_min":61,"x_max":696,"o":"m 150 0 q 122 3 138 0 q 93 16 107 7 q 70 40 79 25 q 61 79 61 56 q 69 118 61 99 q 90 153 78 138 l 356 460 q 421 540 394 504 q 463 603 447 575 q 487 656 479 632 q 494 701 494 679 q 463 775 494 744 q 369 806 432 806 q 281 785 314 806 q 229 733 249 765 q 192 694 211 706 q 149 683 172 682 q 92 704 115 683 q 68 767 68 725 q 89 835 68 799 q 149 901 110 871 q 245 952 189 932 q 372 972 301 972 q 492 954 438 972 q 585 901 546 936 q 647 817 625 867 q 669 706 669 768 q 658 628 669 665 q 626 554 647 592 q 574 476 606 517 q 503 389 543 436 l 313 161 l 610 161 q 672 139 649 161 q 696 81 696 117 q 672 22 696 44 q 610 0 649 0 l 150 0 z "},"3":{"ha":764,"x_min":47,"x_max":689,"o":"m 303 424 q 240 447 267 424 q 214 506 214 469 q 242 563 214 543 q 311 583 271 583 l 360 583 q 449 617 419 583 q 479 693 479 650 q 442 774 479 742 q 340 807 406 807 q 263 796 296 807 q 196 761 229 785 q 147 744 175 744 q 96 765 119 744 q 72 818 72 786 q 115 894 72 858 q 147 917 126 904 q 198 943 168 931 q 265 964 228 956 q 349 972 303 972 q 474 952 417 972 q 571 899 531 932 q 634 820 611 865 q 657 725 657 775 q 622 602 657 658 q 517 518 586 546 q 594 485 561 507 q 647 432 626 463 q 678 365 668 401 q 689 293 689 329 q 663 167 689 224 q 592 69 638 110 q 483 6 546 28 q 349 -17 421 -17 q 201 4 264 -17 q 86 67 138 25 q 47 142 47 101 q 72 198 47 175 q 131 221 96 221 q 174 207 156 221 q 251 164 214 176 q 342 151 289 151 q 467 190 418 151 q 515 293 515 228 q 477 388 515 351 q 364 424 439 424 l 303 424 z "},"4":{"ha":789,"x_min":33,"x_max":756,"o":"m 118 174 q 58 194 82 174 q 33 253 33 215 q 38 281 33 264 q 53 313 42 297 l 457 906 q 495 947 476 935 q 539 958 514 958 q 600 935 575 958 q 625 872 625 913 l 625 333 l 671 333 q 731 313 707 333 q 756 253 756 292 q 731 194 756 215 q 671 174 707 174 l 624 174 l 624 83 q 601 22 624 44 q 540 0 578 0 q 480 22 504 0 q 456 83 456 44 l 456 174 l 118 174 m 236 333 l 456 333 l 456 664 l 236 333 z "},"5":{"ha":797,"x_min":89,"x_max":736,"o":"m 276 590 q 347 632 304 615 q 444 649 390 649 q 562 626 508 649 q 654 563 615 604 q 715 462 693 521 q 736 331 736 403 q 710 192 736 256 q 638 83 683 129 q 533 12 593 38 q 404 -14 472 -14 q 269 6 328 -14 q 171 56 211 26 q 110 120 131 86 q 89 182 89 154 q 110 238 89 214 q 165 263 132 263 q 195 258 181 263 q 229 236 210 253 q 319 166 275 182 q 407 150 363 150 q 472 163 442 150 q 524 197 501 175 q 560 251 547 219 q 574 319 574 282 q 561 386 574 356 q 527 440 549 417 q 476 476 506 463 q 411 489 446 489 q 323 471 354 489 q 264 426 292 453 q 235 402 253 415 q 185 389 217 389 q 128 411 149 389 q 110 478 108 433 l 128 882 q 151 941 131 918 q 211 964 171 964 l 604 964 q 661 942 636 964 q 686 883 686 919 q 661 826 686 847 q 604 804 636 804 l 288 804 l 276 590 z "},"6":{"ha":822,"x_min":75,"x_max":749,"o":"m 378 744 q 260 546 294 681 q 340 617 288 590 q 457 643 393 643 q 576 619 522 643 q 668 554 629 596 q 728 454 707 513 q 749 326 749 396 q 722 189 749 251 q 650 81 696 126 q 544 11 604 36 q 415 -14 483 -14 q 272 15 336 -14 q 166 98 210 44 q 99 226 122 151 q 75 390 75 300 q 113 626 75 519 q 219 810 151 733 q 379 930 286 888 q 583 972 472 972 q 624 969 604 972 q 660 957 644 965 q 686 933 676 949 q 696 893 696 918 q 677 838 696 861 q 604 813 658 814 q 378 744 461 810 m 300 196 q 352 160 322 174 q 417 147 382 147 q 480 160 450 147 q 532 195 510 172 q 567 249 554 218 q 579 318 579 281 q 534 438 579 392 q 417 485 489 485 q 352 472 382 485 q 301 437 322 460 q 267 383 279 414 q 254 318 254 353 q 267 251 254 282 q 300 196 279 219 z "},"7":{"ha":671,"x_min":33,"x_max":651,"o":"m 261 50 q 228 12 249 24 q 185 0 208 0 q 128 20 154 0 q 103 79 103 40 q 106 100 103 88 q 115 125 108 113 l 440 806 l 117 806 q 57 825 81 806 q 33 881 33 844 q 56 938 33 917 q 115 958 79 958 l 560 958 q 622 942 593 958 q 651 885 651 926 q 647 853 651 868 q 638 828 642 839 l 261 50 z "},"8":{"ha":796,"x_min":68,"x_max":729,"o":"m 175 482 q 240 518 207 506 q 149 608 178 558 q 121 717 121 658 q 142 818 121 771 q 199 899 163 865 q 288 953 236 933 q 400 972 339 972 q 512 953 461 972 q 599 899 563 933 q 656 818 636 865 q 676 717 676 771 q 644 601 676 651 q 557 519 611 551 q 626 481 594 504 q 680 427 657 458 q 716 359 703 396 q 729 281 729 322 q 705 163 729 217 q 636 69 681 108 q 531 8 592 31 q 396 -14 469 -14 q 263 8 324 -14 q 160 69 203 31 q 92 163 117 108 q 68 281 68 217 q 83 360 68 322 q 121 429 97 399 q 175 482 144 460 m 319 624 q 399 592 350 592 q 475 624 444 592 q 506 701 506 657 q 476 780 506 750 q 399 810 446 810 q 320 780 350 810 q 290 701 290 750 q 319 624 290 657 m 288 189 q 397 144 331 144 q 508 189 465 144 q 551 300 551 233 q 509 409 551 367 q 397 451 467 451 q 287 409 329 451 q 244 300 244 367 q 288 189 244 233 z "},"9":{"ha":822,"x_min":74,"x_max":747,"o":"m 218 146 q 563 413 499 150 q 483 342 535 368 q 374 315 432 315 q 255 338 310 315 q 160 404 200 361 q 97 507 119 447 q 74 640 74 567 q 100 772 74 711 q 172 877 126 832 q 278 947 218 922 q 407 972 339 972 q 549 942 486 972 q 656 860 613 913 q 724 732 700 807 q 747 568 747 657 q 709 332 747 439 q 603 148 671 225 q 442 28 536 71 q 239 -14 349 -14 q 198 -10 218 -14 q 161 1 178 -7 q 136 25 146 10 q 126 65 126 40 q 145 121 126 97 q 218 146 164 144 m 288 519 q 406 474 333 474 q 469 486 440 474 q 521 522 499 499 q 556 574 543 544 q 568 640 568 604 q 556 707 568 676 q 522 760 543 738 q 470 797 500 783 q 406 810 440 810 q 341 797 371 810 q 290 760 311 783 q 256 706 268 738 q 243 639 243 675 q 288 519 243 567 z "},"\u0000":{"ha":0,"x_min":0,"x_max":0,"o":""},"\r":{"ha":0,"x_min":0,"x_max":0,"o":""}," ":{"ha":290,"x_min":0,"x_max":0,"o":""},"!":{"ha":426,"x_min":110,"x_max":317,"o":"m 290 371 q 270 313 290 338 q 213 289 250 289 q 158 313 176 289 q 138 369 139 338 l 124 871 q 141 942 121 911 q 213 972 161 972 q 283 943 263 972 q 304 869 304 914 l 290 371 m 138 26 q 110 103 110 53 q 138 179 110 151 q 213 207 167 207 q 287 179 257 207 q 317 103 317 151 q 287 26 317 53 q 213 0 257 0 q 138 26 167 0 z "},"\"":{"ha":567,"x_min":111,"x_max":456,"o":"m 232 700 q 215 663 229 678 q 178 649 200 649 q 142 663 156 649 q 125 701 128 678 l 111 919 q 129 974 108 956 q 178 992 150 992 q 229 973 208 992 q 247 918 250 954 l 232 700 m 440 700 q 423 663 438 678 q 386 649 408 649 q 350 663 364 649 q 333 701 336 678 l 319 919 q 338 974 317 956 q 386 992 358 992 q 438 973 417 992 q 456 918 458 954 l 440 700 z "},"#":{"ha":996,"x_min":47,"x_max":950,"o":"m 200 29 q 174 -5 190 6 q 139 -17 157 -15 q 94 0 114 -18 q 74 47 74 18 q 74 61 74 53 q 79 76 75 69 l 151 243 l 111 243 q 65 260 82 243 q 47 306 47 278 q 65 352 47 333 q 111 371 82 371 l 207 371 l 301 586 l 254 586 q 207 603 225 586 q 189 649 189 621 q 207 695 189 676 q 254 714 225 714 l 357 714 l 457 940 q 482 972 465 963 q 514 983 499 982 q 560 969 539 985 q 581 921 581 953 q 580 907 581 915 q 575 892 579 899 l 497 714 l 701 714 l 801 940 q 828 972 811 963 q 860 983 844 982 q 905 969 885 985 q 926 921 925 953 q 925 906 926 914 q 921 892 924 899 l 843 714 l 885 714 q 931 696 913 714 q 950 650 950 678 q 931 604 950 622 q 885 586 913 586 l 788 586 l 693 371 l 743 371 q 789 353 771 371 q 807 307 807 335 q 789 261 807 279 q 743 243 771 243 l 638 243 l 546 31 q 518 -3 535 7 q 485 -15 501 -14 q 439 1 458 -17 q 418 47 419 18 q 419 63 418 54 q 424 78 421 71 l 496 243 l 293 243 l 200 29 m 349 371 l 551 371 l 646 586 l 442 586 l 349 371 z "},"$":{"ha":872,"x_min":69,"x_max":792,"o":"m 350 -8 q 210 32 267 3 q 117 96 153 61 q 85 133 100 111 q 69 179 69 156 q 78 221 69 204 q 101 248 88 238 q 128 263 114 258 q 151 267 142 267 q 188 260 171 267 q 219 242 204 253 q 262 209 240 225 q 310 182 283 193 q 369 164 336 171 q 442 157 401 157 q 506 163 475 157 q 560 183 536 169 q 597 218 583 197 q 611 267 611 239 q 598 317 611 296 q 556 356 585 339 q 481 389 528 374 q 368 421 435 404 q 263 456 313 435 q 175 510 213 478 q 116 588 138 542 q 94 699 94 633 q 114 798 94 753 q 167 876 133 843 q 249 932 201 910 q 350 964 296 954 l 350 1035 q 375 1099 350 1075 q 438 1122 400 1122 q 500 1099 475 1122 q 525 1035 525 1075 l 525 965 q 619 940 578 957 q 694 901 660 924 q 738 857 725 882 q 751 808 751 832 q 743 769 751 785 q 722 743 735 753 q 695 728 710 733 q 668 724 681 724 q 628 731 644 724 q 594 747 611 738 q 565 765 581 756 q 530 782 550 774 q 484 796 510 790 q 422 801 458 801 q 309 770 344 801 q 274 700 274 739 q 328 618 274 649 q 504 557 383 588 q 608 524 556 543 q 700 473 660 504 q 766 394 740 442 q 792 274 792 346 q 775 178 792 224 q 725 97 758 133 q 642 33 692 60 q 525 -6 592 7 l 525 -76 q 500 -140 525 -117 q 438 -164 475 -164 q 375 -140 400 -164 q 350 -76 350 -117 l 350 -8 z "},"%":{"ha":1076,"x_min":44,"x_max":1031,"o":"m 253 481 q 103 544 161 481 q 44 728 44 608 q 103 909 44 846 q 251 972 161 972 q 401 909 343 972 q 458 729 458 846 q 401 545 458 610 q 253 481 343 481 m 247 18 q 220 -5 233 1 q 196 -11 207 -11 q 149 8 165 -11 q 133 50 133 28 q 138 74 133 65 q 151 94 143 83 l 817 931 q 844 953 832 949 q 869 958 857 958 q 912 941 894 958 q 929 896 929 924 q 924 874 929 883 q 911 853 919 864 l 247 18 m 190 625 q 251 593 215 593 q 312 626 288 593 q 336 729 336 658 q 313 828 336 796 q 253 860 289 860 q 191 829 215 860 q 167 729 167 799 q 190 625 167 658 m 824 -14 q 674 50 732 -14 q 617 233 617 114 q 675 415 617 351 q 824 478 733 478 q 973 415 915 478 q 1031 235 1031 351 q 973 51 1031 115 q 824 -14 915 -14 m 761 131 q 824 99 786 99 q 884 131 860 99 q 908 235 908 164 q 885 333 908 301 q 824 365 861 365 q 762 335 786 365 q 738 235 738 304 q 761 131 738 164 z "},"&":{"ha":918,"x_min":68,"x_max":906,"o":"m 639 139 q 553 65 592 94 q 477 17 514 36 q 403 -9 440 -1 q 324 -17 365 -17 q 220 3 267 -17 q 140 56 174 22 q 87 133 106 89 q 68 228 68 178 q 85 317 68 276 q 128 394 101 358 q 191 459 156 429 q 264 515 226 489 l 247 532 q 147 742 147 628 q 166 837 147 793 q 219 912 185 881 q 299 960 253 943 q 399 978 344 978 q 491 963 447 978 q 568 917 535 947 q 622 845 601 888 q 642 749 642 803 q 629 678 642 711 q 594 617 617 646 q 544 562 572 588 q 485 511 515 536 l 649 354 l 713 415 q 740 434 729 431 q 767 438 751 438 q 822 416 800 438 q 843 367 843 394 q 806 301 843 335 l 754 251 l 876 135 q 906 75 906 107 q 884 24 906 47 q 833 0 863 0 q 764 32 797 0 l 646 146 l 639 139 m 361 421 q 276 342 311 382 q 242 254 242 301 q 272 172 242 206 q 354 138 303 138 q 438 164 400 138 q 525 236 476 190 l 539 250 l 361 421 m 392 601 q 465 664 436 633 q 493 731 493 694 q 467 795 493 769 q 399 821 442 821 q 330 795 356 821 q 304 732 304 769 q 360 632 304 688 l 392 601 z "},"'":{"ha":358,"x_min":111,"x_max":247,"o":"m 232 700 q 215 663 229 678 q 178 649 200 649 q 142 663 156 649 q 125 701 128 678 l 111 919 q 129 974 108 956 q 178 992 150 992 q 229 973 208 992 q 247 918 250 954 l 232 700 z "},"(":{"ha":458,"x_min":78,"x_max":439,"o":"m 317 -228 q 285 -200 303 -219 q 237 -132 271 -183 q 167 -3 203 -81 q 105 175 132 75 q 78 389 78 275 q 105 603 78 503 q 167 781 132 703 q 237 910 203 858 q 285 978 271 961 q 317 1006 303 997 q 354 1014 332 1014 q 413 989 388 1014 q 439 939 439 964 q 430 908 439 926 q 401 857 421 889 q 356 785 382 828 q 308 685 331 743 q 269 554 285 628 q 253 389 253 481 q 269 224 253 297 q 308 92 285 150 q 356 -9 331 33 q 401 -81 382 -51 q 430 -131 421 -112 q 439 -162 439 -149 q 432 -187 439 -175 q 413 -211 425 -200 q 386 -229 401 -222 q 354 -236 371 -236 q 317 -228 332 -236 z "},")":{"ha":458,"x_min":19,"x_max":379,"o":"m 221 -132 q 174 -200 188 -183 q 140 -228 154 -219 q 103 -236 126 -236 q 71 -229 86 -236 q 44 -211 56 -222 q 26 -187 33 -200 q 19 -162 19 -175 q 28 -131 19 -149 q 57 -81 36 -112 q 101 -9 76 -51 q 149 92 126 33 q 188 224 172 150 q 204 389 204 297 q 188 554 204 481 q 149 685 172 628 q 101 785 126 743 q 57 857 76 828 q 28 908 36 889 q 19 939 19 926 q 44 989 19 964 q 103 1014 69 1014 q 140 1006 126 1014 q 174 978 154 997 q 222 910 188 961 q 290 781 256 858 q 352 603 325 703 q 379 389 379 503 q 352 175 379 275 q 290 -3 325 75 q 221 -132 256 -81 z "},"*":{"ha":658,"x_min":104,"x_max":553,"o":"m 290 588 q 267 546 283 560 q 231 532 251 532 q 190 546 208 532 q 160 597 160 567 q 192 651 160 628 l 282 724 l 176 731 q 113 753 133 728 q 104 813 93 779 q 126 849 111 836 q 161 863 142 863 q 203 847 183 863 l 301 779 l 269 892 q 275 951 257 928 q 329 975 293 975 q 385 952 367 975 q 390 893 404 929 l 358 776 l 453 839 q 494 854 472 854 q 530 842 514 854 q 553 808 546 831 q 546 748 565 774 q 483 725 526 722 l 375 719 l 461 650 q 485 624 478 639 q 493 594 493 610 q 467 544 493 565 q 425 529 444 529 q 388 542 406 529 q 364 583 371 556 l 326 689 l 290 588 z "},"+":{"ha":872,"x_min":154,"x_max":717,"o":"m 219 375 q 173 393 192 375 q 154 439 154 411 q 173 484 154 467 q 219 501 192 501 l 374 501 l 374 658 q 392 704 374 686 q 438 722 410 722 q 483 704 465 722 q 500 658 500 686 l 500 501 l 653 501 q 699 483 681 501 q 717 438 717 465 q 699 392 717 410 q 653 375 681 375 l 499 375 l 499 218 q 481 172 499 190 q 436 154 464 154 q 390 172 408 154 q 372 218 372 190 l 372 375 l 219 375 z "},",":{"ha":426,"x_min":83,"x_max":321,"o":"m 83 -162 q 114 -122 83 -135 q 207 -1 203 -90 q 128 38 147 8 q 110 99 110 67 q 140 178 110 151 q 211 206 169 206 q 290 170 260 206 q 321 68 321 135 q 301 -55 321 -4 q 253 -138 282 -106 q 190 -185 224 -171 q 131 -200 157 -200 q 95 -190 107 -200 q 83 -162 83 -179 z "},"-":{"ha":592,"x_min":82,"x_max":511,"o":"m 157 282 q 103 301 125 282 q 82 357 82 321 q 103 413 82 393 q 157 432 125 432 l 436 432 q 490 413 468 432 q 511 357 511 393 q 490 301 511 321 q 436 282 468 282 l 157 282 z "},".":{"ha":426,"x_min":110,"x_max":317,"o":"m 138 25 q 110 101 110 51 q 138 178 110 150 q 213 206 165 206 q 286 178 256 206 q 317 103 317 151 q 287 25 317 50 q 213 0 257 0 q 138 25 167 0 z "},"/":{"ha":575,"x_min":13,"x_max":563,"o":"m 183 69 q 142 15 164 29 q 93 0 121 0 q 38 21 63 0 q 13 78 13 42 q 26 133 13 101 l 393 890 q 428 941 410 924 q 475 958 447 958 q 537 936 511 958 q 563 878 563 914 q 557 849 563 865 q 546 822 551 833 l 183 69 z "},":":{"ha":426,"x_min":110,"x_max":317,"o":"m 138 25 q 110 101 110 51 q 138 178 110 150 q 213 206 165 206 q 286 178 256 206 q 317 103 317 151 q 287 25 317 50 q 213 0 257 0 q 138 25 167 0 m 138 507 q 110 583 110 533 q 138 660 110 632 q 213 688 165 688 q 286 660 256 688 q 317 585 317 633 q 287 507 317 532 q 213 482 257 482 q 138 507 167 482 z "},";":{"ha":426,"x_min":83,"x_max":321,"o":"m 83 -162 q 114 -122 83 -135 q 207 -1 203 -90 q 128 38 147 8 q 110 99 110 67 q 140 178 110 151 q 211 206 169 206 q 290 170 260 206 q 321 68 321 135 q 301 -55 321 -4 q 253 -138 282 -106 q 190 -185 224 -171 q 131 -200 157 -200 q 95 -190 107 -200 q 83 -162 83 -179 m 138 507 q 110 583 110 533 q 138 660 110 632 q 213 688 165 688 q 286 660 256 688 q 317 585 317 633 q 287 507 317 532 q 213 482 257 482 q 138 507 167 482 z "},"<":{"ha":872,"x_min":186,"x_max":667,"o":"m 224 386 q 197 410 208 396 q 186 447 186 424 q 197 483 186 471 q 224 507 207 496 l 554 699 q 581 710 569 706 q 604 714 592 714 q 649 697 632 714 q 667 650 667 679 q 654 614 667 629 q 621 588 642 599 l 365 447 l 621 308 q 654 282 642 296 q 667 246 667 268 q 651 201 667 222 q 608 181 635 181 q 581 185 593 181 q 554 197 569 189 l 224 386 z "},"=":{"ha":872,"x_min":154,"x_max":717,"o":"m 219 500 q 173 518 192 500 q 154 564 154 536 q 173 609 154 592 q 219 626 192 626 l 653 626 q 699 609 681 626 q 717 564 717 592 q 699 518 717 536 q 653 500 681 500 l 219 500 m 219 254 q 173 272 192 254 q 154 317 154 289 q 173 363 154 344 q 219 381 192 381 l 653 381 q 699 363 681 381 q 717 317 717 344 q 699 272 717 289 q 653 254 681 254 l 219 254 z "},">":{"ha":872,"x_min":206,"x_max":686,"o":"m 317 197 q 290 185 301 189 q 264 181 279 181 q 222 201 238 181 q 206 246 206 222 q 217 282 206 268 q 251 308 229 296 l 507 447 l 251 588 q 206 650 206 611 q 223 697 206 679 q 267 714 240 714 q 291 710 281 714 q 317 699 301 706 l 647 507 q 675 483 664 496 q 686 447 686 471 q 675 410 686 424 q 647 386 664 396 l 317 197 z "},"?":{"ha":767,"x_min":89,"x_max":664,"o":"m 428 369 q 406 311 428 333 q 344 289 385 289 q 284 311 306 289 q 263 369 263 333 l 263 497 q 285 556 263 533 q 338 586 307 578 q 451 633 415 604 q 488 708 488 661 q 460 778 488 750 q 374 807 432 807 q 251 744 301 807 q 215 706 232 721 q 167 690 197 690 q 108 713 128 690 q 89 769 89 735 q 103 828 89 804 q 129 867 117 853 q 227 942 167 911 q 378 972 288 972 q 494 956 442 972 q 585 906 547 939 q 643 826 622 874 q 664 714 664 778 q 601 548 664 608 q 428 453 538 488 l 428 369 m 271 26 q 242 103 242 53 q 271 179 242 151 q 346 207 300 207 q 420 179 390 207 q 450 103 450 151 q 420 26 450 53 q 346 0 390 0 q 271 26 300 0 z "},"@":{"ha":1146,"x_min":68,"x_max":1079,"o":"m 800 249 q 815 203 800 217 q 851 189 829 189 q 908 226 881 189 q 936 342 936 264 q 918 481 936 415 q 859 597 900 547 q 752 674 818 646 q 590 703 686 703 q 421 670 493 703 q 301 583 349 638 q 231 458 254 529 q 207 313 207 388 q 230 169 207 238 q 299 47 253 100 q 414 -38 344 -7 q 578 -69 483 -69 q 704 -49 647 -69 q 743 -37 728 -37 q 786 -58 771 -37 q 801 -103 801 -78 q 793 -137 801 -121 q 767 -165 785 -154 q 690 -194 740 -181 q 568 -207 640 -207 q 349 -162 443 -207 q 193 -47 256 -118 q 99 117 131 25 q 68 306 68 210 q 101 508 68 411 q 200 678 135 604 q 363 794 265 751 q 589 838 461 838 q 787 803 697 838 q 942 705 876 768 q 1043 554 1007 642 q 1079 361 1079 467 q 1058 223 1079 282 q 1004 125 1038 164 q 927 67 971 86 q 838 49 883 49 q 774 58 800 49 q 730 84 747 68 q 702 119 713 100 q 686 156 692 138 q 624 76 664 101 q 533 50 583 50 q 441 70 482 50 q 371 126 400 90 q 326 210 342 163 q 311 315 311 258 q 331 429 311 381 q 383 510 351 478 q 452 558 414 542 q 525 574 490 574 q 613 551 579 574 q 665 488 646 528 l 665 510 q 683 549 665 533 q 731 565 701 565 q 781 551 761 565 q 800 510 800 538 l 800 249 m 492 222 q 567 190 522 190 q 638 223 610 190 q 665 308 665 256 q 638 397 665 364 q 567 431 611 431 q 490 398 518 431 q 461 310 461 365 q 492 222 461 256 z "},"A":{"ha":958,"x_min":47,"x_max":911,"o":"m 214 54 q 182 12 201 24 q 133 0 163 0 q 71 21 94 0 q 47 76 47 42 q 51 105 47 92 q 63 138 54 118 l 379 882 q 418 938 394 918 q 479 958 442 958 q 541 938 517 958 q 581 882 565 918 l 897 138 q 911 85 911 106 q 885 23 911 46 q 819 0 858 0 q 767 16 788 0 q 733 67 747 32 l 675 215 l 278 215 l 214 54 m 335 360 l 618 360 l 476 718 l 335 360 z "},"B":{"ha":886,"x_min":106,"x_max":818,"o":"m 193 0 q 127 21 149 0 q 106 88 106 42 l 106 872 q 128 935 106 911 q 193 958 151 958 l 467 958 q 603 940 546 958 q 699 890 661 922 q 755 815 736 858 q 774 718 774 771 q 743 600 774 651 q 663 524 713 549 q 782 429 746 489 q 818 292 818 369 q 731 78 818 156 q 488 0 643 0 l 193 0 m 281 571 l 482 571 q 565 606 535 571 q 594 690 594 642 q 562 773 594 743 q 467 803 529 803 l 281 803 l 281 571 m 281 154 l 489 154 q 599 192 560 154 q 639 296 639 229 q 485 426 639 426 l 281 426 l 281 154 z "},"C":{"ha":956,"x_min":68,"x_max":894,"o":"m 660 188 q 760 275 711 218 q 817 300 783 300 q 871 274 850 300 q 892 221 892 247 q 886 186 892 204 q 865 149 881 168 q 815 97 846 125 q 742 44 785 68 q 644 3 700 19 q 518 -14 588 -14 q 335 21 418 -14 q 193 120 253 56 q 101 275 133 185 q 68 476 68 365 q 101 678 68 586 q 193 835 133 769 q 335 936 253 900 q 518 972 418 972 q 656 953 596 972 q 760 906 717 933 q 832 851 804 879 q 872 804 860 822 q 889 767 883 786 q 894 733 894 749 q 887 697 894 713 q 867 670 879 681 q 840 655 854 660 q 813 650 825 650 q 781 655 797 650 q 751 675 765 660 q 704 726 728 703 q 653 765 681 749 q 594 792 626 782 q 518 801 561 801 q 406 778 456 801 q 320 711 356 754 q 266 608 285 668 q 247 475 247 547 q 267 346 247 404 q 322 246 286 288 q 412 181 358 204 q 532 157 465 157 q 660 188 608 157 z "},"D":{"ha":965,"x_min":106,"x_max":897,"o":"m 193 0 q 126 24 146 0 q 106 88 106 47 l 106 871 q 127 935 106 911 q 194 958 149 958 l 465 958 q 642 924 563 958 q 779 828 722 890 q 867 678 836 765 q 897 483 897 590 q 865 289 897 378 q 776 136 833 200 q 640 36 719 72 q 465 0 561 0 l 193 0 m 281 154 l 454 154 q 567 178 518 154 q 650 244 617 201 q 701 348 683 288 q 718 483 718 408 q 649 718 718 633 q 447 803 579 803 l 281 803 l 281 154 z "},"E":{"ha":828,"x_min":106,"x_max":781,"o":"m 193 0 q 128 24 151 0 q 106 88 106 49 l 106 871 q 128 934 106 910 q 194 958 151 958 l 699 958 q 758 938 736 958 q 781 881 781 917 q 758 824 781 844 q 699 803 736 803 l 281 803 l 281 564 l 547 564 q 609 544 585 564 q 633 488 633 524 q 609 431 633 451 q 547 410 585 410 l 281 410 l 281 154 l 700 154 q 759 134 738 154 q 781 78 781 114 q 759 21 781 42 q 700 0 738 0 l 193 0 z "},"F":{"ha":801,"x_min":106,"x_max":761,"o":"m 281 88 q 258 24 281 49 q 193 0 236 0 q 128 24 150 0 q 106 88 106 49 l 106 874 q 131 935 106 913 q 194 958 156 958 l 681 958 q 740 938 718 958 q 761 881 761 917 q 740 824 761 844 q 681 803 718 803 l 281 803 l 281 538 l 539 538 q 598 517 576 538 q 619 461 619 497 q 598 404 619 425 q 539 383 576 383 l 281 383 l 281 88 z "},"G":{"ha":1008,"x_min":68,"x_max":940,"o":"m 592 357 q 528 378 551 357 q 504 433 504 399 q 528 490 504 468 q 592 511 551 511 l 835 511 q 918 480 896 511 q 940 397 940 449 q 912 236 940 311 q 829 106 883 161 q 697 18 775 50 q 519 -14 619 -14 q 340 21 422 -14 q 197 119 257 56 q 102 274 136 183 q 68 476 68 365 q 103 681 68 589 q 199 837 138 772 q 344 937 261 901 q 524 972 428 972 q 703 941 625 972 q 851 838 781 910 q 892 785 882 810 q 901 739 901 761 q 879 678 903 701 q 824 656 856 656 q 783 665 803 656 q 743 697 763 674 q 652 774 703 746 q 528 801 601 801 q 409 778 461 801 q 321 711 357 754 q 266 608 285 668 q 247 475 247 547 q 268 346 247 404 q 326 246 289 288 q 415 181 364 204 q 528 157 467 157 q 695 209 633 157 q 761 357 757 261 l 592 357 z "},"H":{"ha":982,"x_min":106,"x_max":876,"o":"m 281 88 q 256 24 281 49 q 193 0 232 0 q 130 24 154 0 q 106 88 106 49 l 106 871 q 130 934 106 910 q 193 958 154 958 q 256 934 232 958 q 281 871 281 910 l 281 571 l 701 571 l 701 871 q 725 934 701 910 q 789 958 749 958 q 852 934 828 958 q 876 871 876 910 l 876 88 q 852 24 876 49 q 789 0 828 0 q 725 24 749 0 q 701 88 701 49 l 701 415 l 281 415 l 281 88 z "},"I":{"ha":386,"x_min":106,"x_max":281,"o":"m 281 88 q 256 24 281 49 q 193 0 232 0 q 130 24 154 0 q 106 88 106 49 l 106 871 q 130 934 106 910 q 193 958 154 958 q 256 934 232 958 q 281 871 281 910 l 281 88 z "},"J":{"ha":825,"x_min":47,"x_max":726,"o":"m 726 333 q 697 178 726 243 q 620 69 668 113 q 510 6 572 26 q 382 -14 449 -14 q 266 2 315 -14 q 179 44 217 18 q 116 102 142 69 q 72 168 90 135 q 53 215 58 193 q 47 250 47 238 q 56 290 47 274 q 79 317 65 307 q 109 333 93 328 q 139 338 125 338 q 213 276 183 338 q 278 188 240 218 q 383 157 317 157 q 444 165 414 157 q 498 194 474 174 q 537 248 522 214 q 551 332 551 282 l 551 872 q 576 934 551 910 q 639 958 600 958 q 702 934 678 958 q 726 871 726 910 l 726 333 z "},"K":{"ha":871,"x_min":106,"x_max":824,"o":"m 281 90 q 257 25 281 50 q 193 0 233 0 q 129 25 153 0 q 106 90 106 50 l 106 868 q 129 933 106 908 q 193 958 153 958 q 257 933 233 958 q 281 868 281 908 l 281 529 l 632 924 q 663 949 647 940 q 703 958 679 958 q 762 934 739 958 q 785 881 785 910 q 781 849 785 865 q 760 815 776 833 l 485 508 l 786 161 q 817 120 810 136 q 824 88 824 104 q 815 49 824 65 q 794 22 807 33 q 765 6 781 11 q 738 0 750 0 q 667 32 694 0 l 358 386 l 281 300 l 281 90 z "},"L":{"ha":774,"x_min":106,"x_max":740,"o":"m 194 0 q 128 24 151 0 q 106 88 106 49 l 106 871 q 130 934 106 910 q 193 958 154 958 q 256 934 232 958 q 281 871 281 910 l 281 154 l 654 154 q 716 134 692 154 q 740 78 740 114 q 716 21 740 42 q 654 0 692 0 l 194 0 z "},"M":{"ha":1168,"x_min":106,"x_max":1063,"o":"m 281 85 q 256 24 281 47 q 193 0 232 0 q 131 24 156 0 q 106 85 106 47 l 106 861 q 133 933 106 907 q 203 958 160 958 q 260 939 238 958 q 304 878 282 919 l 585 374 l 869 878 q 917 940 893 922 q 969 958 942 958 q 1035 935 1008 958 q 1063 861 1063 911 l 1063 85 q 1038 24 1063 47 q 975 0 1014 0 q 913 24 938 0 q 888 85 888 47 l 888 613 l 658 194 q 625 151 643 165 q 579 136 607 136 q 503 196 533 136 l 281 607 l 281 85 z "},"N":{"ha":963,"x_min":106,"x_max":857,"o":"m 281 85 q 256 22 281 44 q 193 0 231 0 q 131 22 156 0 q 106 85 106 44 l 106 861 q 125 929 106 900 q 192 958 144 958 q 232 949 213 958 q 267 918 251 940 l 682 333 l 682 872 q 707 935 682 913 q 769 958 732 958 q 831 935 806 958 q 857 872 857 913 l 857 85 q 835 24 857 49 q 774 0 814 0 q 730 9 749 0 q 693 40 711 18 l 281 599 l 281 85 z "},"O":{"ha":1043,"x_min":68,"x_max":975,"o":"m 338 21 q 194 122 254 57 q 101 278 135 188 q 68 479 68 368 q 101 681 68 590 q 194 837 135 772 q 338 937 254 901 q 521 972 421 972 q 706 937 622 972 q 849 837 789 901 q 942 681 908 772 q 975 479 975 590 q 942 278 975 368 q 849 122 908 188 q 706 22 789 57 q 521 -14 622 -14 q 338 21 421 -14 m 322 246 q 408 181 358 204 q 521 157 458 157 q 635 181 583 157 q 722 247 686 204 q 776 349 757 289 q 796 479 796 408 q 776 610 796 551 q 721 712 757 669 q 634 778 685 754 q 521 801 583 801 q 408 778 458 801 q 322 712 357 754 q 267 610 286 669 q 247 479 247 551 q 267 349 247 408 q 322 246 286 289 z "},"P":{"ha":867,"x_min":106,"x_max":813,"o":"m 281 88 q 256 24 281 49 q 193 0 232 0 q 130 24 154 0 q 106 88 106 49 l 106 871 q 130 934 106 910 q 193 958 154 958 l 454 958 q 603 935 538 958 q 716 868 669 911 q 788 764 763 825 q 813 626 813 703 q 787 487 813 549 q 713 383 761 425 q 599 317 665 340 q 449 294 532 294 l 281 294 l 281 88 m 281 450 l 449 450 q 587 498 540 450 q 633 626 633 546 q 585 758 633 713 q 446 803 538 803 l 281 803 l 281 450 z "},"Q":{"ha":1043,"x_min":68,"x_max":1029,"o":"m 904 -15 q 761 51 832 -15 q 650 3 710 19 q 521 -14 590 -14 q 338 22 421 -14 q 194 122 254 57 q 101 278 135 188 q 68 479 68 368 q 101 681 68 590 q 194 837 135 772 q 338 937 254 901 q 521 972 421 972 q 706 937 622 972 q 849 837 789 901 q 942 681 908 772 q 975 479 975 590 q 947 293 975 378 q 868 144 919 208 q 915 131 892 131 q 941 134 929 131 q 968 138 953 138 q 1015 117 1001 138 q 1029 72 1029 96 q 1019 32 1029 49 q 991 5 1008 15 q 951 -10 974 -6 q 904 -15 928 -15 m 521 157 q 647 186 590 157 q 599 222 624 208 q 542 236 574 236 q 492 258 510 236 q 474 301 474 279 q 495 358 474 336 q 554 381 517 381 q 657 349 613 381 q 742 274 701 318 q 782 366 768 314 q 796 479 796 418 q 776 610 796 551 q 721 712 757 669 q 634 778 685 754 q 521 801 583 801 q 408 778 458 801 q 322 712 357 754 q 267 610 286 669 q 247 479 247 551 q 267 349 247 408 q 322 247 286 289 q 408 181 358 204 q 521 157 458 157 z "},"R":{"ha":857,"x_min":106,"x_max":796,"o":"m 281 88 q 256 24 281 49 q 193 0 232 0 q 130 24 154 0 q 106 88 106 49 l 106 871 q 130 934 106 910 q 193 958 154 958 l 449 958 q 590 936 528 958 q 697 873 653 914 q 765 774 742 832 q 789 647 789 717 q 742 476 789 549 q 603 367 694 403 l 756 172 q 788 119 781 140 q 796 78 796 99 q 774 25 796 50 q 708 0 751 0 q 658 15 679 0 q 618 53 636 29 l 411 336 l 281 336 l 281 88 m 281 492 l 447 492 q 567 533 524 492 q 610 647 610 574 q 565 763 610 722 q 444 803 519 803 l 281 803 l 281 492 z "},"S":{"ha":836,"x_min":54,"x_max":776,"o":"m 136 267 q 172 260 156 267 q 204 242 189 253 q 247 209 225 225 q 294 182 268 193 q 353 164 321 171 q 426 157 386 157 q 490 163 460 157 q 544 183 521 169 q 582 218 568 197 q 596 267 596 239 q 583 317 596 296 q 541 356 569 339 q 466 389 513 374 q 353 421 419 404 q 247 456 297 435 q 160 510 197 478 q 101 588 122 542 q 79 699 79 633 q 106 815 79 764 q 181 901 133 865 q 290 954 228 936 q 422 972 353 972 q 571 952 510 972 q 679 901 632 932 q 723 857 710 882 q 736 808 736 832 q 728 769 736 785 q 707 743 719 753 q 680 728 694 733 q 653 724 665 724 q 613 731 629 724 q 579 747 596 738 q 550 765 565 756 q 515 782 535 774 q 469 796 494 790 q 407 801 443 801 q 294 770 329 801 q 258 700 258 739 q 313 618 258 649 q 489 557 368 588 q 592 524 540 543 q 685 473 644 504 q 751 394 725 442 q 776 274 776 346 q 753 163 776 215 q 683 72 729 111 q 569 9 638 32 q 408 -14 500 -14 q 304 -4 351 -14 q 219 21 257 6 q 151 56 181 36 q 101 96 122 75 q 69 133 85 111 q 54 179 54 156 q 63 221 54 204 q 85 248 72 238 q 113 263 99 258 q 136 267 126 267 z "},"T":{"ha":868,"x_min":33,"x_max":836,"o":"m 522 88 q 498 24 522 49 q 435 0 474 0 q 371 24 394 0 q 347 88 347 49 l 347 803 l 118 803 q 57 824 81 803 q 33 881 33 844 q 57 938 33 917 q 118 958 81 958 l 750 958 q 812 938 788 958 q 836 881 836 917 q 812 824 836 844 q 750 803 788 803 l 522 803 l 522 88 z "},"U":{"ha":986,"x_min":99,"x_max":888,"o":"m 274 394 q 493 157 274 157 q 713 400 713 157 l 713 871 q 736 934 713 910 q 800 958 760 958 q 863 934 839 958 q 888 871 888 910 l 888 374 q 860 215 888 286 q 782 93 833 144 q 658 14 731 42 q 493 -14 585 -14 q 328 14 401 -14 q 203 92 254 42 q 126 212 153 142 q 99 368 99 282 l 99 871 q 123 934 99 910 q 186 958 147 958 q 249 934 225 958 q 274 871 274 910 l 274 394 z "},"V":{"ha":932,"x_min":47,"x_max":885,"o":"m 556 71 q 523 19 543 39 q 467 0 503 0 q 410 19 432 0 q 376 71 389 39 l 54 836 q 49 853 51 843 q 47 876 47 864 q 74 935 47 911 q 132 958 100 958 q 214 900 190 958 l 472 269 l 725 906 q 749 942 732 925 q 796 958 767 958 q 860 940 836 958 q 885 885 885 921 q 881 857 885 869 l 872 832 l 556 71 z "},"W":{"ha":1261,"x_min":47,"x_max":1214,"o":"m 488 60 q 456 15 476 31 q 408 0 435 0 q 328 60 350 0 l 58 824 q 47 882 47 856 q 72 934 47 910 q 139 958 96 958 q 192 937 174 958 q 221 888 211 915 l 411 301 l 553 739 q 581 786 563 767 q 635 806 599 806 q 690 786 672 806 q 715 739 707 767 l 858 301 l 1046 892 q 1076 938 1056 918 q 1126 958 1096 958 q 1187 939 1160 958 q 1214 883 1214 919 q 1212 860 1214 875 q 1203 826 1210 846 l 933 60 q 900 15 922 29 q 853 0 878 0 q 803 15 825 0 q 771 60 782 29 l 629 496 l 488 60 z "},"X":{"ha":890,"x_min":58,"x_max":831,"o":"m 224 50 q 178 8 200 15 q 140 0 156 0 q 78 26 99 0 q 58 76 58 51 q 65 112 58 96 q 86 149 71 128 l 336 499 l 99 825 q 80 856 83 844 q 76 881 76 867 q 98 933 76 907 q 160 958 119 958 q 201 948 183 958 q 233 914 218 938 l 450 624 l 650 906 q 685 945 669 932 q 728 958 700 958 q 790 935 764 958 q 815 882 815 913 q 810 849 815 864 q 785 806 804 833 l 556 483 l 804 153 q 824 117 818 133 q 831 79 831 100 q 807 26 831 51 q 747 0 783 0 q 701 13 719 0 q 663 51 682 26 l 439 357 l 224 50 z "},"Y":{"ha":882,"x_min":47,"x_max":836,"o":"m 528 88 q 504 24 528 49 q 440 0 481 0 q 377 24 401 0 q 353 88 353 49 l 353 351 l 60 826 q 50 851 53 838 q 47 876 47 864 q 68 933 47 908 q 132 958 89 958 q 170 950 151 958 q 203 918 189 942 l 443 518 l 672 907 q 704 946 688 933 q 753 958 721 958 q 809 937 782 958 q 836 883 836 915 q 828 843 836 864 q 810 807 819 822 l 528 351 l 528 88 z "},"Z":{"ha":822,"x_min":63,"x_max":760,"o":"m 146 0 q 85 22 107 0 q 63 78 63 43 q 68 108 63 92 q 82 136 74 124 l 528 803 l 163 803 q 100 824 124 803 q 76 881 76 844 q 100 938 76 917 q 163 958 124 958 l 678 958 q 738 938 717 958 q 760 882 760 917 q 754 852 760 869 q 738 817 749 835 l 294 156 l 671 156 q 733 135 710 156 q 757 78 757 114 q 733 21 757 42 q 671 0 710 0 l 146 0 z "},"[":{"ha":471,"x_min":110,"x_max":458,"o":"m 168 -236 q 126 -220 142 -236 q 110 -178 110 -204 l 110 956 q 126 997 110 981 q 168 1014 142 1014 l 394 1014 q 440 995 422 1014 q 458 940 458 976 q 441 886 458 906 q 396 867 424 867 l 285 867 l 285 -90 l 394 -90 q 440 -109 422 -90 q 458 -162 458 -128 q 440 -217 458 -199 q 394 -236 422 -236 l 168 -236 z "},"\\":{"ha":575,"x_min":13,"x_max":563,"o":"m 547 133 q 563 78 563 103 q 538 21 563 42 q 482 0 513 0 q 433 15 454 0 q 392 69 411 29 l 29 822 q 18 849 24 833 q 13 878 13 865 q 38 936 13 914 q 100 958 64 958 q 181 890 149 958 l 547 133 z "},"]":{"ha":471,"x_min":13,"x_max":361,"o":"m 75 -236 q 30 -217 47 -236 q 13 -162 13 -199 q 31 -109 13 -128 q 76 -90 49 -90 l 186 -90 l 186 867 l 75 867 q 30 886 47 867 q 13 940 13 906 q 30 995 13 976 q 75 1014 47 1014 l 303 1014 q 345 997 329 1014 q 361 956 361 981 l 361 -178 q 345 -220 361 -204 q 303 -236 329 -236 l 75 -236 z "},"^":{"ha":694,"x_min":85,"x_max":621,"o":"m 211 472 q 150 431 188 431 q 103 448 122 431 q 85 488 85 465 q 89 512 85 501 q 101 538 93 522 l 288 928 q 311 960 297 947 q 351 972 325 972 q 392 960 379 972 q 414 928 406 947 l 606 538 q 621 488 621 511 q 602 448 621 465 q 557 431 583 431 q 496 472 521 431 l 351 781 l 211 472 z "},"_":{"ha":829,"x_min":82,"x_max":749,"o":"m 144 -126 q 99 -109 117 -126 q 82 -62 82 -92 q 99 -17 82 -35 q 144 0 117 0 l 685 0 q 731 -17 713 0 q 749 -62 749 -35 q 731 -109 749 -92 q 685 -126 713 -126 l 144 -126 z "},"`":{"ha":694,"x_min":201,"x_max":503,"o":"m 231 896 q 201 956 201 915 q 224 1006 201 983 q 275 1028 246 1028 q 308 1019 293 1028 q 333 1000 322 1011 l 479 860 q 503 813 503 838 q 488 776 503 793 q 450 758 474 758 q 415 772 438 758 l 231 896 z "},"a":{"ha":869,"x_min":54,"x_max":846,"o":"m 596 139 q 502 26 563 65 q 360 -14 442 -14 q 242 12 297 -14 q 144 85 186 38 q 78 199 103 132 q 54 350 54 267 q 80 502 54 433 q 149 619 106 571 q 251 694 193 668 q 372 721 308 721 q 512 683 458 721 q 596 579 565 644 l 596 635 q 619 687 596 667 q 682 707 643 707 q 744 687 721 707 q 767 635 767 667 l 767 217 q 801 154 767 154 q 834 137 822 154 q 846 88 846 119 q 739 0 846 0 q 638 37 669 0 q 597 122 606 74 l 596 139 m 282 197 q 340 155 307 169 q 413 140 374 140 q 484 155 450 140 q 543 197 518 169 q 583 263 568 224 q 597 350 597 301 q 547 506 597 447 q 413 565 496 565 q 278 506 326 565 q 229 350 229 446 q 243 263 229 301 q 282 197 257 225 z "},"b":{"ha":863,"x_min":96,"x_max":808,"o":"m 265 82 q 244 25 265 50 q 179 0 222 0 q 115 25 135 0 q 96 82 96 50 l 96 875 q 120 935 96 911 q 181 958 144 958 q 241 935 217 958 q 265 875 265 911 l 265 579 q 356 682 300 643 q 492 721 413 721 q 619 694 561 721 q 719 618 678 667 q 785 502 761 569 q 808 353 808 435 q 782 201 808 269 q 710 85 756 133 q 606 12 665 38 q 481 -14 547 -14 q 351 24 408 -14 q 265 128 293 61 l 265 82 m 314 201 q 373 157 339 174 q 450 140 407 140 q 527 158 493 140 q 585 204 561 175 q 621 272 608 233 q 633 353 633 310 q 621 436 633 397 q 585 503 608 475 q 527 549 561 532 q 450 565 493 565 q 373 549 407 565 q 315 503 339 532 q 278 436 290 475 q 265 353 265 397 q 278 269 265 308 q 314 201 290 231 z "},"c":{"ha":736,"x_min":54,"x_max":689,"o":"m 681 165 q 651 93 681 122 q 611 54 635 74 q 557 19 588 35 q 488 -5 526 4 q 400 -14 449 -14 q 257 15 321 -14 q 148 92 193 43 q 78 209 103 142 q 54 354 54 276 q 81 499 54 432 q 153 615 107 565 q 262 692 199 664 q 400 721 325 721 q 551 692 483 721 q 663 604 618 663 q 689 536 689 569 q 665 478 689 496 q 615 461 640 461 q 578 469 592 461 q 554 488 564 478 q 533 509 546 496 q 502 535 521 522 q 459 556 483 547 q 401 565 435 565 q 328 548 360 565 q 274 501 296 531 q 240 433 251 471 q 229 353 229 394 q 240 273 229 311 q 274 205 251 235 q 327 158 296 175 q 400 140 358 140 q 481 160 444 140 q 550 213 517 181 q 581 233 567 228 q 606 238 596 238 q 656 219 631 238 q 681 165 681 201 z "},"d":{"ha":863,"x_min":54,"x_max":767,"o":"m 767 89 q 743 21 767 42 q 679 0 719 0 q 617 24 638 0 q 596 82 596 49 l 596 139 q 504 26 561 67 q 365 -14 447 -14 q 247 10 303 -14 q 147 82 190 35 q 79 197 104 129 q 54 350 54 264 q 80 505 54 436 q 150 622 106 574 q 253 695 194 669 q 376 721 311 721 q 517 681 465 721 q 596 579 568 642 l 596 875 q 621 935 596 911 q 682 958 646 958 q 742 935 718 958 q 767 875 767 911 l 767 89 m 282 197 q 340 156 307 171 q 413 140 374 140 q 484 155 450 140 q 543 197 518 169 q 583 263 568 224 q 597 351 597 303 q 545 507 597 449 q 413 565 493 565 q 278 506 326 565 q 229 351 229 447 q 243 264 229 303 q 282 197 257 225 z "},"e":{"ha":782,"x_min":54,"x_max":721,"o":"m 226 313 q 288 185 238 229 q 415 140 339 140 q 470 147 444 140 q 517 163 496 153 q 553 183 538 172 q 579 200 569 193 q 617 211 604 211 q 670 188 649 211 q 692 135 692 164 q 681 97 692 114 q 656 68 669 79 q 551 10 615 35 q 401 -14 488 -14 q 261 13 325 -14 q 151 89 197 40 q 80 204 106 138 q 54 350 54 271 q 81 494 54 426 q 153 613 107 563 q 264 692 200 663 q 401 721 328 721 q 533 695 474 721 q 633 627 592 669 q 698 529 675 585 q 721 414 721 474 q 706 341 721 369 q 644 313 692 313 l 226 313 m 554 414 q 546 467 556 440 q 516 517 536 494 q 467 552 496 539 q 400 565 438 565 q 288 526 333 565 q 228 414 242 486 l 554 414 z "},"f":{"ha":546,"x_min":96,"x_max":538,"o":"m 265 82 q 242 23 265 46 q 181 0 218 0 q 119 23 143 0 q 96 82 96 46 l 96 647 q 176 888 96 804 q 396 972 257 972 q 446 969 424 972 q 476 964 468 967 q 524 932 510 954 q 538 886 538 910 q 515 827 538 846 q 463 808 493 808 q 431 810 446 808 q 392 813 415 813 q 303 784 331 813 q 269 690 276 756 l 386 690 q 441 669 419 690 q 463 614 463 649 q 441 557 463 578 q 386 536 419 536 l 265 536 l 265 82 z "},"g":{"ha":857,"x_min":54,"x_max":767,"o":"m 767 65 q 741 -82 767 -18 q 669 -190 715 -146 q 557 -256 622 -233 q 413 -278 492 -278 q 299 -266 350 -278 q 208 -233 249 -254 q 164 -168 164 -210 q 182 -115 164 -136 q 231 -93 200 -93 q 270 -99 251 -93 q 310 -111 289 -104 q 359 -124 332 -118 q 424 -129 386 -129 q 553 -76 511 -129 q 596 61 596 -22 l 596 139 q 501 26 558 65 q 360 -14 443 -14 q 242 11 297 -14 q 144 83 186 36 q 78 197 103 129 q 54 349 54 264 q 81 504 54 435 q 151 622 107 574 q 253 695 196 669 q 372 721 310 721 q 454 709 418 721 q 517 678 490 697 q 564 633 544 658 q 596 579 583 607 l 596 635 q 619 687 596 667 q 682 707 642 707 q 747 685 726 707 q 767 635 767 664 l 767 65 m 282 197 q 341 156 307 171 q 413 140 375 140 q 483 155 450 140 q 542 197 517 169 q 581 264 567 225 q 596 351 596 303 q 546 507 596 449 q 413 565 496 565 q 337 549 371 565 q 278 506 303 533 q 241 438 254 478 q 228 351 228 399 q 242 264 228 303 q 282 197 257 225 z "},"h":{"ha":813,"x_min":96,"x_max":724,"o":"m 265 82 q 241 23 265 46 q 181 0 217 0 q 120 23 144 0 q 96 82 96 46 l 96 875 q 118 935 96 911 q 181 958 140 958 q 243 935 221 958 q 265 875 265 911 l 265 592 q 344 686 294 651 q 469 721 394 721 q 658 644 592 721 q 724 438 724 568 l 724 82 q 699 23 724 46 q 639 0 675 0 q 578 23 603 0 q 554 82 554 46 l 554 378 q 516 517 554 469 q 408 565 478 565 q 302 516 339 565 q 265 374 265 467 l 265 82 z "},"i":{"ha":368,"x_min":92,"x_max":344,"o":"m 117 803 q 92 869 92 825 q 117 937 92 913 q 182 961 142 961 q 249 938 222 961 q 275 869 275 914 q 249 801 275 822 q 182 781 222 781 q 117 803 143 781 m 265 219 q 273 173 265 192 q 301 154 281 154 q 335 133 325 154 q 344 89 344 113 q 320 24 344 49 q 247 0 296 0 q 136 48 176 0 q 96 208 96 96 l 96 624 q 119 683 96 658 q 181 707 143 707 q 242 683 218 707 q 265 624 265 658 l 265 219 z "},"j":{"ha":361,"x_min":-79,"x_max":272,"o":"m 265 11 q 208 -192 265 -119 q 33 -264 150 -264 q -53 -240 -26 -264 q -79 -182 -79 -215 q -60 -128 -79 -149 q -1 -107 -40 -107 q 51 -97 32 -107 q 81 -68 71 -86 q 93 -25 90 -50 q 96 28 96 0 l 96 624 q 120 683 96 660 q 181 707 144 707 q 241 683 217 707 q 265 624 265 660 l 265 11 m 113 803 q 88 869 88 825 q 113 937 88 913 q 179 961 139 961 q 246 938 219 961 q 272 869 272 914 q 246 801 272 822 q 179 781 219 781 q 113 803 139 781 z "},"k":{"ha":756,"x_min":96,"x_max":710,"o":"m 265 82 q 244 24 265 47 q 181 0 224 0 q 117 24 138 0 q 96 82 96 47 l 96 875 q 116 934 96 910 q 181 958 136 958 q 245 934 225 958 q 265 875 265 910 l 265 425 l 544 667 q 579 694 563 682 q 619 707 596 707 q 675 683 656 707 q 694 632 694 660 q 685 592 694 608 q 660 563 676 576 l 456 389 l 681 138 q 700 113 690 126 q 710 76 710 100 q 683 18 710 36 q 629 0 656 0 q 595 7 610 0 q 565 31 581 14 l 336 288 l 265 228 l 265 82 z "},"l":{"ha":368,"x_min":96,"x_max":344,"o":"m 265 219 q 273 173 265 192 q 301 154 281 154 q 335 133 325 154 q 344 89 344 113 q 320 24 344 49 q 247 0 296 0 q 136 48 176 0 q 96 208 96 96 l 96 875 q 119 934 96 910 q 181 958 143 958 q 242 934 218 958 q 265 875 265 910 l 265 219 z "},"m":{"ha":1158,"x_min":96,"x_max":1071,"o":"m 265 82 q 242 24 265 47 q 181 0 218 0 q 120 23 144 0 q 96 82 96 46 l 96 624 q 119 684 96 661 q 185 707 143 707 q 242 688 219 707 q 265 631 265 668 l 265 592 q 332 683 288 644 q 451 721 376 721 q 572 685 522 721 q 646 583 622 650 q 713 684 669 647 q 831 721 757 721 q 1008 648 946 721 q 1071 444 1071 575 l 1071 82 q 1047 24 1071 47 q 985 0 1022 0 q 924 24 947 0 q 900 82 900 47 l 900 429 q 869 530 900 494 q 783 565 838 565 q 699 530 729 565 q 668 429 668 494 l 668 83 q 644 24 668 47 q 583 0 621 0 q 522 24 546 0 q 497 83 497 47 l 497 429 q 467 530 497 494 q 381 565 436 565 q 296 530 326 565 q 265 429 265 494 l 265 82 z "},"n":{"ha":817,"x_min":96,"x_max":728,"o":"m 265 82 q 242 24 265 47 q 181 0 218 0 q 121 23 146 0 q 96 82 96 46 l 96 633 q 117 683 96 660 q 182 707 138 707 q 246 685 226 707 q 265 635 265 663 l 265 592 q 347 688 292 654 q 474 721 403 721 q 661 645 594 721 q 728 438 728 569 l 728 82 q 703 24 728 47 q 642 0 679 0 q 581 24 606 0 q 557 82 557 47 l 557 378 q 519 517 557 469 q 413 565 481 565 q 304 516 343 565 q 265 374 265 467 l 265 82 z "},"o":{"ha":822,"x_min":56,"x_max":767,"o":"m 267 14 q 155 92 201 43 q 82 208 108 142 q 56 353 56 275 q 82 498 56 431 q 155 615 108 565 q 267 692 201 664 q 411 721 332 721 q 554 692 489 721 q 667 615 619 664 q 740 498 714 565 q 767 353 767 431 q 740 208 767 275 q 667 92 714 142 q 554 15 619 43 q 411 -14 489 -14 q 267 14 332 -14 m 276 204 q 333 158 300 175 q 411 140 367 140 q 489 157 456 140 q 545 203 522 174 q 580 270 568 232 q 592 351 592 308 q 580 435 592 396 q 545 503 568 474 q 489 549 522 532 q 411 565 456 565 q 333 549 367 565 q 277 505 300 533 q 242 438 254 476 q 231 356 231 400 q 242 274 231 313 q 276 204 254 235 z "},"p":{"ha":863,"x_min":96,"x_max":808,"o":"m 265 -182 q 242 -241 265 -218 q 182 -264 218 -264 q 121 -241 146 -264 q 96 -182 96 -218 l 96 635 q 117 683 96 660 q 182 707 138 707 q 246 685 226 707 q 265 635 265 663 l 265 579 q 351 679 297 638 q 492 721 404 721 q 621 694 563 721 q 721 618 679 667 q 785 501 763 569 q 808 353 808 433 q 785 206 808 274 q 719 90 761 139 q 617 14 676 42 q 485 -14 557 -14 q 349 26 404 -14 q 265 129 293 67 l 265 -182 m 314 201 q 373 157 339 174 q 450 140 407 140 q 527 157 493 140 q 585 203 561 174 q 621 271 608 232 q 633 353 633 310 q 621 436 633 397 q 585 503 608 475 q 527 549 561 532 q 450 565 493 565 q 373 549 407 565 q 315 503 339 532 q 278 435 290 474 q 265 353 265 396 q 278 269 265 308 q 314 201 290 231 z "},"q":{"ha":863,"x_min":54,"x_max":767,"o":"m 767 -182 q 743 -241 767 -218 q 683 -264 719 -264 q 622 -241 647 -264 q 596 -182 596 -218 l 596 129 q 497 21 557 56 q 358 -14 438 -14 q 240 10 296 -14 q 144 81 185 35 q 78 195 103 128 q 54 349 54 263 q 78 496 54 428 q 143 614 101 564 q 243 692 185 664 q 372 721 301 721 q 517 680 465 721 q 596 579 569 639 l 596 635 q 617 685 596 663 q 681 707 639 707 q 740 689 714 707 q 767 635 767 671 l 767 -182 m 283 197 q 342 156 308 171 q 413 140 375 140 q 483 155 450 140 q 542 197 517 169 q 581 264 567 225 q 596 351 596 303 q 545 507 596 449 q 413 565 494 565 q 278 506 328 565 q 229 351 229 447 q 244 264 229 303 q 283 197 258 225 z "},"r":{"ha":568,"x_min":96,"x_max":551,"o":"m 265 82 q 240 22 265 44 q 181 0 215 0 q 120 22 144 0 q 96 82 96 44 l 96 631 q 116 685 96 663 q 175 707 136 707 q 256 631 256 707 l 256 583 q 337 681 285 642 q 463 721 389 721 q 531 699 511 721 q 551 646 551 676 q 532 588 551 611 q 469 564 513 564 q 394 551 431 564 q 328 511 357 538 q 283 444 300 485 q 265 347 265 403 l 265 82 z "},"s":{"ha":664,"x_min":58,"x_max":604,"o":"m 182 10 q 85 74 122 33 q 64 104 69 89 q 58 135 58 119 q 78 186 58 161 q 126 211 99 211 q 161 203 146 211 q 186 189 176 196 q 248 151 214 167 q 325 135 282 135 q 401 150 374 135 q 429 200 429 165 q 403 248 429 229 q 339 280 376 267 q 264 307 301 293 q 231 318 257 308 q 164 353 204 328 q 97 415 124 378 q 71 513 71 453 q 90 595 71 557 q 144 661 110 633 q 228 705 179 689 q 333 721 276 721 q 468 699 415 721 q 553 644 521 676 q 574 613 568 629 q 581 582 581 596 q 563 533 581 558 q 515 507 546 507 q 487 514 501 507 q 458 531 472 521 q 411 558 440 543 q 338 572 382 572 q 273 559 300 572 q 246 514 246 546 q 272 472 246 488 q 337 442 299 456 q 417 413 375 428 q 446 402 421 411 q 511 369 471 393 q 578 307 551 344 q 604 214 604 269 q 584 124 604 165 q 528 51 564 82 q 441 3 492 21 q 328 -14 390 -14 q 182 10 242 -14 z "},"t":{"ha":563,"x_min":33,"x_max":538,"o":"m 319 239 q 393 140 319 140 q 444 149 428 140 q 478 158 461 158 q 522 136 507 158 q 538 93 538 114 q 503 19 538 42 q 440 -7 474 0 q 361 -14 406 -14 q 259 6 300 -14 q 194 60 218 26 q 159 137 169 93 q 149 226 149 181 l 149 556 l 110 556 q 55 576 76 556 q 33 631 33 596 q 56 686 33 665 q 110 707 78 707 l 149 707 l 149 807 q 173 865 149 842 q 235 889 197 889 q 295 865 271 889 q 319 807 319 842 l 319 707 l 436 707 q 490 686 468 707 q 513 631 513 665 q 490 576 513 596 q 436 556 468 556 l 319 556 l 319 239 z "},"u":{"ha":783,"x_min":90,"x_max":693,"o":"m 261 294 q 294 182 261 224 q 392 140 326 140 q 491 182 458 140 q 524 294 524 224 l 524 624 q 548 683 524 660 q 608 707 572 707 q 669 683 644 707 q 693 624 693 660 l 693 299 q 672 172 693 229 q 613 74 651 115 q 518 9 574 32 q 392 -14 463 -14 q 266 9 322 -14 q 171 74 210 32 q 111 172 132 115 q 90 299 90 229 l 90 624 q 115 683 90 660 q 175 707 139 707 q 236 683 211 707 q 261 624 261 660 l 261 294 z "},"v":{"ha":740,"x_min":38,"x_max":703,"o":"m 453 58 q 418 15 438 29 q 367 0 399 0 q 316 15 335 0 q 282 61 297 29 l 51 575 q 42 599 46 585 q 38 626 38 614 q 61 684 38 661 q 124 707 85 707 q 177 688 160 707 q 201 653 194 669 l 371 244 l 540 653 q 566 691 550 675 q 610 707 582 707 q 676 685 650 707 q 703 622 703 663 q 694 582 703 600 l 453 58 z "},"w":{"ha":1021,"x_min":33,"x_max":988,"o":"m 406 64 q 369 14 394 28 q 319 0 343 0 q 268 15 289 0 q 235 63 247 29 l 44 575 q 33 621 33 603 q 64 688 33 668 q 128 707 94 707 q 203 653 186 707 l 329 263 l 431 574 q 464 624 440 610 q 511 639 488 639 q 559 625 535 639 q 594 575 583 611 l 696 263 l 821 646 q 849 691 831 675 q 899 707 867 707 q 964 684 940 707 q 988 621 988 661 q 986 604 988 614 q 978 575 985 594 l 783 61 q 750 15 772 31 q 701 0 728 0 q 650 14 674 0 q 615 64 626 28 l 510 390 l 406 64 z "},"x":{"ha":714,"x_min":57,"x_max":667,"o":"m 207 44 q 176 13 193 26 q 135 0 158 0 q 80 22 103 0 q 57 71 57 43 q 76 128 57 101 l 247 365 l 89 572 q 69 606 74 592 q 65 635 65 621 q 90 685 65 664 q 149 707 115 707 q 197 692 179 707 q 231 657 214 678 l 376 467 l 526 672 q 552 697 538 688 q 586 707 567 707 q 640 690 613 707 q 667 638 667 672 q 660 608 667 622 q 646 583 654 594 l 471 344 l 626 144 q 656 78 656 107 q 631 21 656 42 q 575 0 607 0 q 532 10 550 0 q 494 44 514 19 l 343 240 l 207 44 z "},"y":{"ha":729,"x_min":33,"x_max":690,"o":"m 429 -28 q 371 -140 401 -94 q 306 -213 340 -186 q 232 -252 272 -240 q 146 -264 192 -264 q 68 -244 93 -264 q 43 -189 43 -225 q 64 -132 43 -154 q 125 -110 85 -110 q 221 -87 188 -110 q 271 -21 254 -65 l 279 1 l 43 576 q 35 601 38 589 q 33 624 33 614 q 61 684 33 661 q 126 707 89 707 q 173 692 154 707 q 201 654 192 678 l 361 208 l 535 651 q 560 690 544 674 q 607 707 576 707 q 666 685 642 707 q 690 628 690 664 q 686 597 690 613 q 678 572 682 582 l 429 -28 z "},"z":{"ha":649,"x_min":50,"x_max":607,"o":"m 129 0 q 70 24 90 0 q 50 81 50 47 q 72 139 50 106 l 374 551 l 140 551 q 82 574 104 551 q 60 631 60 596 q 82 685 60 664 q 140 707 104 707 l 514 707 q 576 685 556 707 q 596 632 596 663 q 588 597 596 615 q 568 563 579 578 l 272 154 l 526 154 q 585 135 563 154 q 607 81 607 117 q 585 20 607 40 q 526 0 563 0 l 129 0 z "},"{":{"ha":513,"x_min":50,"x_max":500,"o":"m 344 89 q 362 -37 344 -1 q 422 -74 379 -74 q 478 -97 456 -74 q 500 -156 500 -119 q 478 -212 500 -187 q 410 -236 457 -236 q 291 -211 338 -236 q 217 -142 244 -186 q 180 -40 190 -99 q 169 88 169 19 l 169 240 q 117 306 169 306 q 67 328 83 306 q 50 389 50 351 q 67 448 50 424 q 117 472 83 472 q 156 487 143 472 q 169 536 169 501 l 169 689 q 180 816 169 757 q 217 919 190 875 q 291 988 244 963 q 410 1014 338 1014 q 478 990 457 1014 q 500 932 500 965 q 478 874 500 897 q 422 851 456 851 q 362 815 379 851 q 344 688 344 779 l 344 540 q 324 449 344 492 q 250 388 304 406 q 295 364 276 379 q 324 328 314 349 q 340 285 335 308 q 344 238 344 261 l 344 89 z "},"|":{"ha":407,"x_min":117,"x_max":292,"o":"m 292 -176 q 266 -240 292 -217 q 204 -264 240 -264 q 142 -240 167 -264 q 117 -176 117 -217 l 117 1035 q 142 1099 117 1075 q 204 1122 167 1122 q 266 1099 240 1122 q 292 1035 292 1075 l 292 -176 z "},"}":{"ha":513,"x_min":13,"x_max":463,"o":"m 343 88 q 333 -40 343 19 q 295 -142 322 -99 q 222 -211 268 -186 q 103 -236 175 -236 q 34 -212 56 -236 q 13 -156 13 -187 q 34 -97 13 -119 q 90 -74 56 -74 q 151 -37 133 -74 q 168 89 168 -1 l 168 238 q 173 285 168 261 q 188 328 178 308 q 217 364 199 349 q 263 388 235 379 q 188 449 208 406 q 168 540 168 492 l 168 688 q 151 815 168 779 q 90 851 133 851 q 34 874 56 851 q 13 932 13 897 q 34 990 13 965 q 103 1014 56 1014 q 222 988 175 1014 q 295 919 268 963 q 333 816 322 875 q 343 689 343 757 l 343 536 q 356 487 343 501 q 396 472 369 472 q 446 448 429 472 q 463 389 463 424 q 446 328 463 351 q 396 306 429 306 q 343 240 343 306 l 343 88 z "},"~":{"ha":872,"x_min":185,"x_max":686,"o":"m 525 499 q 592 531 564 499 q 629 547 608 547 q 669 531 653 547 q 686 492 686 514 q 683 463 686 476 q 668 436 679 450 q 617 390 649 411 q 544 369 586 369 q 483 378 508 369 q 436 397 457 386 q 396 416 415 407 q 354 425 376 425 q 311 417 329 425 q 278 393 293 410 q 238 378 263 378 q 201 392 218 378 q 185 429 185 407 q 188 453 185 440 q 206 486 192 467 q 225 508 213 496 q 255 529 238 519 q 295 546 272 539 q 346 553 318 553 q 405 544 382 553 q 447 526 428 536 q 483 507 465 515 q 525 499 500 499 z "},"ย":{"ha":290,"x_min":0,"x_max":0,"o":""},"ยก":{"ha":426,"x_min":110,"x_max":317,"o":"m 303 -150 q 285 -222 306 -192 q 214 -251 265 -251 q 143 -222 164 -251 q 122 -149 122 -193 l 136 350 q 156 406 136 382 q 214 431 176 431 q 269 407 250 431 q 289 351 288 383 l 303 -150 m 139 542 q 110 618 110 569 q 140 694 110 667 q 214 721 169 721 q 288 694 260 721 q 317 618 317 667 q 288 542 317 569 q 214 514 260 514 q 139 542 169 514 z "},"ยข":{"ha":872,"x_min":125,"x_max":761,"o":"m 379 -3 q 274 44 321 11 q 193 124 226 78 q 142 230 160 171 q 125 354 125 289 q 144 477 125 419 q 196 581 163 535 q 276 660 229 628 q 379 708 322 693 l 379 783 q 404 847 379 824 q 467 871 429 871 q 528 847 503 871 q 554 783 554 824 l 554 713 q 733 604 668 689 q 761 536 761 571 q 736 478 761 496 q 688 461 711 461 q 649 469 664 461 q 626 488 635 478 q 606 509 618 496 q 574 535 593 522 q 531 556 556 547 q 472 565 506 565 q 399 548 431 565 q 344 501 367 531 q 311 433 322 471 q 300 353 300 394 q 311 273 300 311 q 344 205 322 235 q 399 158 367 175 q 472 140 431 140 q 553 160 517 140 q 622 213 589 181 q 652 233 638 228 q 678 238 667 238 q 726 219 701 238 q 751 165 751 201 q 722 93 751 122 q 656 35 696 63 q 554 -6 615 7 l 554 -76 q 528 -140 554 -117 q 467 -164 503 -164 q 404 -140 429 -164 q 379 -76 379 -117 l 379 -3 z "},"ยฃ":{"ha":872,"x_min":68,"x_max":819,"o":"m 149 0 q 90 22 113 0 q 68 78 68 43 q 91 135 68 113 q 150 157 114 157 q 214 169 185 157 q 264 202 243 182 q 296 249 285 222 q 307 304 307 275 q 303 335 307 318 l 181 335 q 135 352 153 335 q 118 397 118 369 q 135 443 118 425 q 181 461 153 461 l 247 461 q 215 519 231 489 q 185 581 199 549 q 163 649 171 614 q 154 722 154 683 q 177 824 154 776 q 240 906 200 871 q 334 962 279 942 q 453 982 389 982 q 592 949 529 982 q 690 860 654 917 q 712 817 703 839 q 721 765 721 794 q 700 703 721 728 q 636 679 679 679 q 589 697 607 679 q 560 743 571 715 q 519 799 549 782 q 446 815 490 815 q 360 785 388 815 q 333 713 333 756 q 345 648 333 679 q 374 586 357 617 q 412 524 392 556 q 449 461 432 493 l 593 461 q 638 443 621 461 q 656 397 656 425 q 638 352 656 369 q 593 335 621 335 l 488 335 l 488 325 q 456 222 488 263 q 364 157 424 182 l 581 157 q 633 163 617 157 q 657 188 650 168 q 688 244 668 219 q 743 268 707 268 q 798 246 776 268 q 819 189 819 224 q 806 114 819 149 q 766 54 793 79 q 697 15 739 29 q 596 0 654 0 l 149 0 z "},"ยค":{"ha":872,"x_min":154,"x_max":717,"o":"m 264 178 q 221 157 243 157 q 176 175 197 157 q 154 221 154 193 q 175 267 154 246 l 204 296 q 168 439 168 360 q 206 582 168 519 l 176 611 q 156 654 156 629 q 174 699 156 679 q 219 719 192 719 q 264 700 244 719 l 293 671 q 432 708 354 708 q 508 698 472 708 q 575 668 544 688 l 607 700 q 651 719 629 719 q 696 701 675 719 q 717 654 717 682 q 697 610 717 629 l 663 575 q 697 439 697 513 q 663 300 697 363 l 697 267 q 717 221 717 247 q 699 177 717 197 q 654 157 682 157 q 607 176 631 157 l 575 207 q 432 168 513 168 q 292 206 351 168 l 264 178 m 347 343 q 432 301 375 301 q 518 342 490 301 q 546 438 546 382 q 518 533 546 493 q 432 574 490 574 q 347 535 374 574 q 319 440 319 497 q 347 343 319 386 z "},"ยฅ":{"ha":872,"x_min":42,"x_max":831,"o":"m 181 154 q 135 172 153 154 q 118 217 118 189 q 135 263 118 244 q 181 281 153 281 l 349 281 l 349 351 l 340 365 l 181 365 q 135 383 153 365 q 118 429 118 401 q 135 475 118 457 q 181 493 153 493 l 261 493 l 56 826 q 42 876 42 850 q 63 933 42 908 q 128 958 85 958 q 166 950 147 958 q 199 918 185 942 l 438 518 l 668 907 q 700 946 683 933 q 749 958 717 958 q 804 937 778 958 q 831 883 831 915 q 822 843 831 864 q 806 807 814 822 l 611 493 l 693 493 q 739 475 721 493 q 757 429 757 457 q 739 383 757 401 q 693 365 721 365 l 532 365 l 524 351 l 524 281 l 693 281 q 739 263 721 281 q 757 217 757 244 q 739 172 757 189 q 693 154 721 154 l 524 154 l 524 88 q 499 24 524 49 q 436 0 475 0 q 373 24 397 0 q 349 88 349 49 l 349 154 l 181 154 z "},"ยฆ":{"ha":407,"x_min":117,"x_max":292,"o":"m 292 657 q 266 593 292 617 q 204 569 240 569 q 142 593 167 569 q 117 657 117 617 l 117 1035 q 142 1099 117 1075 q 204 1122 167 1122 q 266 1099 240 1122 q 292 1035 292 1075 l 292 657 m 292 -176 q 266 -240 292 -217 q 204 -264 240 -264 q 142 -240 167 -264 q 117 -176 117 -217 l 117 201 q 142 265 117 242 q 204 289 167 289 q 266 265 240 289 q 292 201 292 242 l 292 -176 z "},"ยง":{"ha":667,"x_min":61,"x_max":607,"o":"m 90 572 q 138 628 108 606 q 90 684 108 651 q 72 764 72 717 q 92 848 72 810 q 146 914 111 886 q 229 957 181 942 q 335 972 278 972 q 469 950 417 972 q 554 896 522 928 q 576 865 569 881 q 582 833 582 849 q 565 784 582 810 q 517 758 547 758 q 489 765 504 758 q 460 782 474 772 q 413 810 442 794 q 339 825 383 825 q 274 811 301 825 q 247 765 247 797 q 274 720 247 738 q 340 690 300 703 q 426 661 381 676 q 514 624 474 647 q 581 567 554 601 q 607 476 607 532 q 591 397 607 431 q 547 338 575 363 q 591 283 575 314 q 607 211 607 253 q 587 122 607 163 q 530 51 567 81 q 442 3 493 21 q 329 -14 392 -14 q 183 10 243 -14 q 86 74 124 33 q 66 104 71 89 q 61 135 61 119 q 81 186 61 161 q 128 211 100 211 q 163 203 147 211 q 188 189 178 196 q 249 151 215 167 q 328 135 283 135 q 404 150 376 135 q 432 200 432 165 q 406 247 432 229 q 339 277 379 264 q 272 298 299 290 q 239 308 244 306 q 163 342 200 321 q 99 401 125 364 q 72 496 72 438 q 90 572 72 540 m 293 447 q 356 424 321 435 q 428 401 390 414 q 446 421 439 410 q 453 451 453 432 q 436 492 453 475 q 392 521 419 508 q 331 543 365 533 q 261 567 297 554 q 236 547 246 560 q 226 514 226 533 q 244 476 226 492 q 276 454 261 461 q 293 447 292 447 z "},"ยจ":{"ha":694,"x_min":150,"x_max":544,"o":"m 172 818 q 150 879 150 839 q 172 939 150 917 q 231 961 193 961 q 288 939 264 961 q 311 879 311 917 q 288 818 311 838 q 231 799 265 799 q 172 818 194 799 m 404 819 q 383 881 383 840 q 405 940 383 918 q 463 961 426 961 q 521 940 497 961 q 544 881 544 918 q 521 819 544 838 q 463 800 497 800 q 404 819 426 800 z "},"ยฉ":{"ha":1072,"x_min":56,"x_max":1015,"o":"m 340 21 q 189 121 253 57 q 90 274 125 185 q 56 472 56 364 q 90 674 56 582 q 189 831 125 765 q 340 934 253 897 q 535 971 428 971 q 730 935 642 971 q 882 835 818 900 q 981 681 946 771 q 1015 483 1015 592 q 981 283 1015 374 q 882 126 946 192 q 730 23 818 60 q 535 -14 642 -14 q 340 21 428 -14 m 268 208 q 384 126 317 157 q 535 96 451 96 q 685 124 618 96 q 801 204 753 153 q 875 326 849 256 q 901 483 901 397 q 876 627 901 558 q 802 747 850 696 q 686 829 754 799 q 535 860 618 860 q 384 831 451 860 q 269 752 317 803 q 195 630 221 701 q 169 472 169 558 q 195 329 169 397 q 268 208 221 261 m 615 329 q 667 372 639 344 q 710 388 686 388 q 751 367 735 388 q 767 328 767 347 q 762 301 767 315 q 744 274 757 288 q 668 213 718 243 q 540 183 618 183 q 428 204 478 183 q 342 263 378 225 q 286 356 306 301 q 267 476 267 410 q 286 597 267 542 q 342 690 306 651 q 428 751 378 729 q 540 772 478 772 q 628 760 590 772 q 692 731 665 747 q 734 697 718 714 q 756 671 750 681 q 765 649 763 660 q 767 626 767 638 q 746 578 767 594 q 706 563 725 563 q 660 579 678 563 q 606 626 629 611 q 540 642 583 642 q 441 597 478 642 q 404 474 404 553 q 442 356 404 399 q 551 314 481 314 q 615 329 592 314 z "},"ยช":{"ha":639,"x_min":36,"x_max":625,"o":"m 419 542 q 354 462 396 489 q 256 435 313 435 q 172 453 211 435 q 101 507 132 472 q 53 591 71 542 q 36 703 36 640 q 56 815 36 765 q 107 901 75 865 q 181 956 139 936 q 267 975 222 975 q 363 950 326 975 q 419 882 400 925 l 419 903 q 440 948 419 931 q 493 965 461 965 q 547 948 526 965 q 567 903 567 931 l 567 622 q 589 579 567 579 q 625 522 625 579 q 532 446 625 446 q 451 472 481 446 q 419 535 422 499 l 419 542 m 221 604 q 304 569 256 569 q 385 604 350 569 q 419 703 419 639 q 388 805 419 768 q 304 842 357 842 q 218 804 249 842 q 188 703 188 767 q 221 604 188 640 z "},"ยซ":{"ha":853,"x_min":43,"x_max":810,"o":"m 67 296 q 43 346 43 315 q 51 377 43 365 q 67 396 60 389 l 343 617 q 363 629 350 624 q 389 635 376 635 q 431 617 413 635 q 449 574 449 600 q 444 546 449 558 q 424 522 439 533 l 201 349 l 421 172 q 442 147 436 160 q 447 119 447 135 q 431 77 447 96 q 388 58 414 58 q 363 64 375 58 q 343 75 350 69 l 67 296 m 428 296 q 404 346 404 315 q 413 377 404 365 q 428 396 421 389 l 704 617 q 724 629 711 624 q 750 635 738 635 q 792 617 774 635 q 810 574 810 600 q 805 546 810 558 q 785 522 800 533 l 563 349 l 782 172 q 803 147 797 160 q 808 119 808 135 q 792 77 808 96 q 749 58 775 58 q 724 64 736 58 q 704 75 711 69 l 428 296 z "},"ยฌ":{"ha":872,"x_min":154,"x_max":717,"o":"m 218 500 q 172 518 190 500 q 154 564 154 536 q 172 609 154 592 q 218 626 190 626 l 654 626 q 699 608 682 626 q 717 563 717 590 l 717 318 q 699 272 717 290 q 654 254 682 254 q 608 272 626 254 q 590 318 590 290 l 590 500 l 218 500 z "},"ยญ":{"ha":592,"x_min":0,"x_max":0,"o":""},"ยฎ":{"ha":904,"x_min":42,"x_max":863,"o":"m 286 172 q 157 258 211 203 q 72 390 103 314 q 42 558 42 467 q 72 728 42 650 q 157 862 103 806 q 287 950 211 918 q 453 982 363 982 q 618 951 543 982 q 747 865 693 919 q 832 733 801 810 q 863 565 863 657 q 832 396 863 474 q 747 262 801 318 q 618 174 693 206 q 453 142 543 142 q 286 172 363 142 m 232 338 q 328 269 272 294 q 453 244 383 244 q 578 267 522 244 q 673 333 633 290 q 733 434 713 375 q 754 564 754 493 q 733 683 754 626 q 673 783 713 740 q 578 851 633 826 q 453 876 522 876 q 328 853 383 876 q 233 788 272 831 q 172 687 193 746 q 151 557 151 628 q 172 438 151 494 q 232 338 193 381 m 406 399 q 388 355 406 371 q 343 339 371 339 q 298 355 315 339 q 281 399 281 371 l 281 731 q 298 775 281 758 q 343 792 315 792 l 467 792 q 597 749 547 792 q 647 635 647 706 q 572 503 647 543 l 618 456 q 642 423 638 438 q 646 393 646 408 q 631 356 646 374 q 585 339 615 339 q 549 349 564 339 q 522 374 533 358 l 438 475 l 406 475 l 406 399 m 406 582 l 468 582 q 504 594 488 582 q 521 635 521 607 q 504 672 521 658 q 467 685 488 685 l 406 685 l 406 582 z "},"ยฏ":{"ha":694,"x_min":139,"x_max":554,"o":"m 204 840 q 158 861 176 840 q 139 910 139 882 q 158 958 139 938 q 204 978 176 978 l 490 978 q 536 958 518 978 q 554 910 554 938 q 536 861 554 882 q 490 840 518 840 l 204 840 z "},"ยฐ":{"ha":547,"x_min":75,"x_max":474,"o":"m 193 557 q 131 602 157 574 q 90 670 104 631 q 75 757 75 710 q 90 842 75 803 q 131 911 104 882 q 194 956 157 940 q 274 972 231 972 q 353 956 317 972 q 417 911 390 940 q 459 842 444 882 q 474 757 474 803 q 459 670 474 710 q 417 602 444 631 q 353 558 390 574 q 274 542 317 542 q 193 557 231 542 m 207 686 q 274 656 229 656 q 340 687 318 656 q 361 757 361 718 q 340 828 361 796 q 274 860 318 860 q 208 828 229 860 q 186 757 186 796 q 207 686 186 718 z "},"ยฑ":{"ha":872,"x_min":154,"x_max":717,"o":"m 219 375 q 173 393 192 375 q 154 439 154 411 q 173 484 154 467 q 219 501 192 501 l 374 501 l 374 626 q 392 673 374 654 q 438 692 410 692 q 483 673 465 692 q 500 626 500 654 l 500 501 l 653 501 q 699 483 681 501 q 717 438 717 465 q 699 392 717 410 q 653 375 681 375 l 499 375 l 499 250 q 481 204 499 222 q 436 186 464 186 q 390 204 408 186 q 372 250 372 222 l 372 375 l 219 375 m 219 0 q 173 18 192 0 q 154 64 154 36 q 173 110 154 92 q 219 128 192 128 l 653 128 q 699 109 681 128 q 717 63 717 90 q 699 17 717 35 q 653 0 681 0 l 219 0 z "},"ยฒ":{"ha":493,"x_min":57,"x_max":463,"o":"m 126 476 q 106 479 118 476 q 84 488 94 482 q 66 506 74 494 q 58 533 58 517 q 65 561 58 547 q 81 583 72 575 l 235 715 q 293 774 278 751 q 308 815 308 796 q 294 844 308 832 q 250 857 279 857 q 206 847 222 857 q 178 822 189 838 q 118 793 153 793 q 75 808 93 794 q 57 854 57 822 q 71 897 57 876 q 110 935 85 918 q 172 962 136 951 q 251 972 208 972 q 391 932 338 972 q 444 819 444 892 q 421 741 444 776 q 344 665 397 706 l 256 590 l 397 590 q 444 574 426 590 q 463 533 463 558 q 444 492 463 507 q 397 476 426 476 l 126 476 z "},"ยณ":{"ha":493,"x_min":46,"x_max":457,"o":"m 225 676 q 180 690 199 676 q 161 728 161 703 q 182 767 161 756 q 233 778 203 778 l 249 778 q 287 790 274 778 q 300 819 300 801 q 284 850 300 839 q 240 861 268 861 q 192 853 211 861 q 156 835 172 846 q 118 824 136 824 q 78 838 96 824 q 60 876 60 853 q 93 931 60 906 q 144 956 106 940 q 244 972 182 972 q 328 961 292 972 q 389 932 364 950 q 426 890 414 914 q 439 842 439 867 q 418 780 439 810 q 358 738 397 750 q 433 696 410 729 q 457 631 457 663 q 441 565 457 594 q 396 514 425 535 q 327 481 367 493 q 242 469 288 469 q 150 478 189 469 q 78 511 111 488 q 46 564 46 535 q 65 603 46 588 q 111 619 83 619 q 143 611 128 619 q 185 588 167 596 q 236 581 204 581 q 301 594 281 581 q 322 629 322 607 q 253 676 322 676 l 225 676 z "},"ยด":{"ha":694,"x_min":201,"x_max":503,"o":"m 288 772 q 253 758 268 758 q 215 776 229 758 q 201 813 201 793 q 224 860 201 838 l 369 1000 q 395 1019 381 1011 q 428 1028 410 1028 q 480 1006 457 1028 q 503 956 503 983 q 472 896 503 917 l 288 772 z "},"ยต":{"ha":801,"x_min":96,"x_max":778,"o":"m 267 -168 q 244 -235 267 -206 q 182 -264 222 -264 q 119 -235 142 -264 q 96 -167 96 -206 l 96 621 q 100 650 96 635 q 115 678 104 665 q 142 699 125 690 q 182 707 158 707 q 247 685 228 707 q 267 635 267 663 l 267 294 q 299 182 267 224 q 399 140 332 140 q 495 182 463 140 q 529 292 528 224 l 529 608 q 551 677 529 647 q 614 707 574 707 q 677 677 654 707 q 700 608 700 647 l 700 219 q 708 173 700 192 q 735 154 715 154 q 768 133 758 154 q 778 89 778 113 q 754 24 778 49 q 682 0 731 0 q 595 26 622 0 q 560 96 568 53 q 399 -14 507 -14 q 314 10 346 -14 q 267 72 282 35 l 267 -168 z "},"ยถ":{"ha":751,"x_min":33,"x_max":642,"o":"m 460 63 q 442 17 460 35 q 397 0 425 0 q 353 17 369 0 q 336 63 336 35 l 336 461 l 306 461 q 202 477 251 461 q 115 525 153 493 q 56 603 78 557 q 33 710 33 649 q 53 807 33 761 q 108 888 72 853 q 194 942 144 922 q 306 963 244 963 l 581 963 q 625 946 608 963 q 642 901 642 929 l 642 63 q 625 17 642 35 q 581 0 608 0 q 535 17 553 0 q 518 63 518 35 l 518 838 l 460 838 l 460 63 z "},"ยท":{"ha":694,"x_min":201,"x_max":404,"o":"m 229 421 q 201 494 201 446 q 229 569 201 542 q 301 596 257 596 q 375 569 346 596 q 404 494 404 542 q 375 419 404 442 q 301 396 346 396 q 229 421 258 396 z "},"ยธ":{"ha":694,"x_min":228,"x_max":464,"o":"m 258 0 l 356 0 l 356 -46 q 394 -56 375 -49 q 429 -78 414 -64 q 454 -112 444 -92 q 464 -164 464 -133 q 450 -227 464 -200 q 415 -272 436 -254 q 365 -299 393 -290 q 308 -308 338 -308 q 246 -294 264 -308 q 228 -253 228 -281 q 247 -212 228 -221 q 282 -204 265 -204 q 340 -168 340 -204 q 326 -143 340 -150 q 283 -132 313 -136 q 264 -124 269 -129 q 258 -103 258 -119 l 258 0 z "},"ยน":{"ha":493,"x_min":72,"x_max":350,"o":"m 350 536 q 331 494 350 511 q 285 476 313 476 q 238 492 257 476 q 219 535 219 507 l 219 781 l 179 753 q 159 744 171 749 q 135 740 147 740 q 91 758 110 740 q 72 800 72 775 q 80 826 72 815 q 96 844 88 838 l 236 949 q 265 963 251 960 q 285 965 278 965 q 332 949 314 965 q 350 906 350 933 l 350 536 z "},"ยบ":{"ha":606,"x_min":38,"x_max":567,"o":"m 196 456 q 112 513 147 476 q 57 599 76 549 q 38 706 38 649 q 57 812 38 763 q 112 897 76 861 q 196 954 147 933 q 303 975 244 975 q 410 954 361 975 q 493 897 458 933 q 547 812 528 861 q 567 706 567 763 q 547 599 567 649 q 493 513 528 549 q 410 456 458 476 q 303 435 361 435 q 196 456 244 435 m 217 611 q 303 569 246 569 q 388 610 361 569 q 415 704 415 650 q 388 801 415 761 q 303 842 361 842 q 217 803 244 842 q 189 708 189 765 q 217 611 189 653 z "},"ยป":{"ha":853,"x_min":43,"x_max":810,"o":"m 149 75 q 129 64 142 69 q 104 58 117 58 q 61 77 78 58 q 44 119 44 96 q 50 147 44 135 q 71 172 56 160 l 290 349 l 68 522 q 48 546 53 533 q 43 574 43 558 q 61 617 43 600 q 103 635 79 635 q 128 629 115 635 q 149 617 142 624 l 425 396 q 440 377 432 389 q 449 346 449 365 q 425 296 449 315 l 149 75 m 510 75 q 490 64 503 69 q 465 58 478 58 q 422 77 439 58 q 406 119 406 96 q 411 147 406 135 q 432 172 417 160 l 651 349 l 429 522 q 409 546 414 533 q 404 574 404 558 q 422 617 404 600 q 464 635 440 635 q 490 629 476 635 q 510 617 503 624 l 786 396 q 801 377 793 389 q 810 346 810 365 q 786 296 810 315 l 510 75 z "},"ยผ":{"ha":1089,"x_min":72,"x_max":1079,"o":"m 350 536 q 331 494 350 511 q 285 476 313 476 q 238 492 257 476 q 219 535 219 507 l 219 781 l 179 753 q 159 744 171 749 q 135 740 147 740 q 91 758 110 740 q 72 800 72 775 q 80 826 72 815 q 96 844 88 838 l 236 949 q 265 963 251 960 q 285 965 278 965 q 332 949 314 965 q 350 906 350 933 l 350 536 m 281 18 q 253 -5 267 1 q 228 -11 239 -11 q 183 8 199 -11 q 167 50 167 28 q 172 74 167 65 q 185 94 176 83 l 850 931 q 876 953 864 949 q 903 958 889 958 q 944 941 926 958 q 963 896 963 924 q 958 874 963 883 q 943 853 953 864 l 281 18 m 672 92 q 633 106 647 92 q 618 144 618 121 q 623 168 618 156 q 640 194 628 181 l 847 450 q 887 481 867 474 q 933 489 907 489 q 981 473 961 489 q 1001 429 1001 457 l 1001 185 l 1021 185 q 1063 176 1046 185 q 1079 139 1079 167 q 1063 101 1079 111 q 1022 92 1046 92 l 1000 92 l 1000 60 q 982 16 1000 32 q 935 0 964 0 q 889 16 907 0 q 871 60 871 32 l 871 92 l 672 92 m 739 185 l 871 185 l 871 353 l 739 185 z "},"ยฝ":{"ha":1089,"x_min":72,"x_max":1057,"o":"m 350 536 q 331 494 350 511 q 285 476 313 476 q 238 492 257 476 q 219 535 219 507 l 219 781 l 179 753 q 159 744 171 749 q 135 740 147 740 q 91 758 110 740 q 72 800 72 775 q 80 826 72 815 q 96 844 88 838 l 236 949 q 265 963 251 960 q 285 965 278 965 q 332 949 314 965 q 350 906 350 933 l 350 536 m 232 18 q 204 -5 218 1 q 179 -11 190 -11 q 134 8 150 -11 q 118 50 118 28 q 123 74 118 65 q 136 94 128 83 l 801 931 q 828 953 815 949 q 854 958 840 958 q 896 941 878 958 q 914 896 914 924 q 909 874 914 883 q 894 853 904 864 l 232 18 m 721 0 q 701 3 713 0 q 678 12 689 6 q 660 29 668 18 q 653 57 653 40 q 660 85 653 71 q 675 107 667 99 l 829 239 q 888 297 872 275 q 903 339 903 319 q 888 368 903 356 q 844 381 874 381 q 800 371 817 381 q 772 346 783 361 q 713 317 747 317 q 669 332 688 318 q 651 378 651 346 q 665 421 651 400 q 705 458 679 442 q 767 485 731 475 q 846 496 803 496 q 985 456 932 496 q 1039 343 1039 415 q 1015 265 1039 300 q 939 189 992 229 l 850 114 l 992 114 q 1039 98 1021 114 q 1057 57 1057 82 q 1039 15 1057 31 q 992 0 1021 0 l 721 0 z "},"ยพ":{"ha":1089,"x_min":46,"x_max":1079,"o":"m 225 676 q 180 690 199 676 q 161 728 161 703 q 182 767 161 756 q 233 778 203 778 l 249 778 q 287 790 274 778 q 300 819 300 801 q 284 850 300 839 q 240 861 268 861 q 192 853 211 861 q 156 835 172 846 q 118 824 136 824 q 78 838 96 824 q 60 876 60 853 q 93 931 60 906 q 144 956 106 940 q 244 972 182 972 q 328 961 292 972 q 389 932 364 950 q 426 890 414 914 q 439 842 439 867 q 418 780 439 810 q 358 738 397 750 q 433 696 410 729 q 457 631 457 663 q 441 565 457 594 q 396 514 425 535 q 327 481 367 493 q 242 469 288 469 q 150 478 189 469 q 78 511 111 488 q 46 564 46 535 q 65 603 46 588 q 111 619 83 619 q 143 611 128 619 q 185 588 167 596 q 236 581 204 581 q 301 594 281 581 q 322 629 322 607 q 253 676 322 676 l 225 676 m 310 18 q 282 -5 296 1 q 257 -11 268 -11 q 212 8 228 -11 q 196 50 196 28 q 201 74 196 65 q 214 94 206 83 l 879 931 q 906 953 893 949 q 932 958 918 958 q 974 941 956 958 q 992 896 992 924 q 987 874 992 883 q 972 853 982 864 l 310 18 m 672 92 q 633 106 647 92 q 618 144 618 121 q 623 168 618 156 q 640 194 628 181 l 847 450 q 887 481 867 474 q 933 489 907 489 q 981 473 961 489 q 1001 429 1001 457 l 1001 185 l 1021 185 q 1063 176 1046 185 q 1079 139 1079 167 q 1063 101 1079 111 q 1022 92 1046 92 l 1000 92 l 1000 60 q 982 16 1000 32 q 935 0 964 0 q 889 16 907 0 q 871 60 871 32 l 871 92 l 672 92 m 739 185 l 871 185 l 871 353 l 739 185 z "},"ยฟ":{"ha":767,"x_min":103,"x_max":678,"o":"m 504 222 q 482 164 504 186 q 428 135 460 142 q 315 88 350 117 q 279 11 279 58 q 307 -58 279 -31 q 393 -86 335 -86 q 515 -24 464 -86 q 552 15 535 0 q 599 31 569 31 q 658 8 639 31 q 678 -49 678 -15 q 664 -108 678 -85 q 638 -147 650 -132 q 539 -222 599 -192 q 388 -251 479 -251 q 272 -235 325 -251 q 182 -187 219 -219 q 124 -106 144 -154 q 103 6 103 -58 q 166 172 103 111 q 338 267 229 232 l 338 351 q 360 409 338 388 q 421 431 382 431 q 483 409 461 431 q 504 351 504 388 l 504 222 m 346 542 q 315 618 315 569 q 346 694 315 667 q 421 721 376 721 q 495 694 467 721 q 524 618 524 667 q 495 542 524 569 q 421 514 467 514 q 346 542 376 514 z "},"ร":{"ha":958,"x_min":47,"x_max":911,"o":"m 214 54 q 182 12 201 24 q 133 0 163 0 q 71 21 94 0 q 47 76 47 42 q 51 105 47 92 q 63 138 54 118 l 379 882 q 418 938 394 918 q 479 958 442 958 q 541 938 517 958 q 581 882 565 918 l 897 138 q 911 85 911 106 q 885 23 911 46 q 819 0 858 0 q 767 16 788 0 q 733 67 747 32 l 675 215 l 278 215 l 214 54 m 335 360 l 618 360 l 476 718 l 335 360 m 363 1174 q 333 1233 333 1193 q 356 1283 333 1261 q 407 1306 378 1306 q 440 1297 425 1306 q 465 1278 454 1289 l 611 1138 q 635 1090 635 1115 q 620 1053 635 1071 q 582 1036 606 1036 q 547 1050 569 1036 l 363 1174 z "},"ร":{"ha":958,"x_min":47,"x_max":911,"o":"m 214 54 q 182 12 201 24 q 133 0 163 0 q 71 21 94 0 q 47 76 47 42 q 51 105 47 92 q 63 138 54 118 l 379 882 q 418 938 394 918 q 479 958 442 958 q 541 938 517 958 q 581 882 565 918 l 897 138 q 911 85 911 106 q 885 23 911 46 q 819 0 858 0 q 767 16 788 0 q 733 67 747 32 l 675 215 l 278 215 l 214 54 m 335 360 l 618 360 l 476 718 l 335 360 m 419 1050 q 385 1036 400 1036 q 347 1053 361 1036 q 333 1090 333 1071 q 356 1138 333 1115 l 501 1278 q 527 1297 513 1289 q 560 1306 542 1306 q 612 1283 589 1306 q 635 1233 635 1261 q 604 1174 635 1194 l 419 1050 z "},"ร":{"ha":958,"x_min":47,"x_max":911,"o":"m 214 54 q 182 12 201 24 q 133 0 163 0 q 71 21 94 0 q 47 76 47 42 q 51 105 47 92 q 63 138 54 118 l 379 882 q 418 938 394 918 q 479 958 442 958 q 541 938 517 958 q 581 882 565 918 l 897 138 q 911 85 911 106 q 885 23 911 46 q 819 0 858 0 q 767 16 788 0 q 733 67 747 32 l 675 215 l 278 215 l 214 54 m 335 360 l 618 360 l 476 718 l 335 360 m 343 1049 q 323 1039 331 1042 q 310 1036 315 1036 q 277 1051 290 1036 q 264 1082 264 1067 q 269 1103 264 1093 q 286 1125 275 1114 l 438 1282 q 458 1299 447 1293 q 488 1306 469 1306 q 516 1299 504 1306 q 538 1282 528 1292 l 686 1125 q 703 1103 697 1114 q 708 1082 708 1093 q 696 1051 708 1067 q 664 1036 683 1036 q 649 1038 657 1036 q 629 1049 642 1040 l 486 1151 l 343 1049 z "},"ร":{"ha":958,"x_min":47,"x_max":911,"o":"m 214 54 q 182 12 201 24 q 133 0 163 0 q 71 21 94 0 q 47 76 47 42 q 51 105 47 92 q 63 138 54 118 l 379 882 q 418 938 394 918 q 479 958 442 958 q 541 938 517 958 q 581 882 565 918 l 897 138 q 911 85 911 106 q 885 23 911 46 q 819 0 858 0 q 767 16 788 0 q 733 67 747 32 l 675 215 l 278 215 l 214 54 m 335 360 l 618 360 l 476 718 l 335 360 m 725 1199 q 699 1128 725 1156 q 654 1092 679 1104 q 601 1079 629 1079 q 539 1088 565 1079 q 490 1106 513 1096 q 447 1126 468 1117 q 400 1135 426 1135 q 359 1125 375 1135 q 331 1100 343 1115 q 310 1084 322 1090 q 279 1078 299 1078 q 240 1095 254 1078 q 225 1138 225 1113 q 231 1166 225 1149 q 250 1199 236 1183 q 302 1243 272 1225 q 381 1261 332 1261 q 438 1253 414 1261 q 482 1236 461 1246 q 523 1219 503 1226 q 568 1211 543 1211 q 599 1217 586 1211 q 625 1240 611 1224 q 642 1258 632 1250 q 668 1265 653 1265 q 708 1247 692 1265 q 725 1199 725 1228 z "},"ร":{"ha":958,"x_min":47,"x_max":911,"o":"m 214 54 q 182 12 201 24 q 133 0 163 0 q 71 21 94 0 q 47 76 47 42 q 51 105 47 92 q 63 138 54 118 l 379 882 q 418 938 394 918 q 479 958 442 958 q 541 938 517 958 q 581 882 565 918 l 897 138 q 911 85 911 106 q 885 23 911 46 q 819 0 858 0 q 767 16 788 0 q 733 67 747 32 l 675 215 l 278 215 l 214 54 m 335 360 l 618 360 l 476 718 l 335 360 m 304 1096 q 282 1157 282 1117 q 303 1217 282 1194 q 363 1239 325 1239 q 419 1217 396 1239 q 443 1157 443 1194 q 420 1096 443 1115 q 363 1076 397 1076 q 304 1096 326 1076 m 536 1097 q 515 1158 515 1118 q 537 1217 515 1196 q 594 1239 558 1239 q 653 1217 629 1239 q 676 1158 676 1196 q 653 1097 676 1115 q 594 1078 629 1078 q 536 1097 558 1078 z "},"ร":{"ha":958,"x_min":47,"x_max":911,"o":"m 214 54 q 182 12 201 24 q 133 0 163 0 q 71 21 94 0 q 47 76 47 42 q 51 105 47 92 q 63 138 54 118 l 379 882 q 418 938 394 918 q 479 958 442 958 q 541 938 517 958 q 581 882 565 918 l 897 138 q 911 85 911 106 q 885 23 911 46 q 819 0 858 0 q 767 16 788 0 q 733 67 747 32 l 675 215 l 278 215 l 214 54 m 335 360 l 618 360 l 476 718 l 335 360 m 417 1047 q 368 1079 389 1058 q 335 1129 347 1100 q 322 1194 322 1158 q 367 1312 322 1268 q 479 1356 413 1356 q 592 1310 549 1356 q 636 1194 636 1265 q 592 1081 636 1125 q 479 1036 549 1036 q 417 1047 446 1036 m 438 1153 q 479 1136 453 1136 q 522 1154 507 1136 q 536 1196 536 1172 q 522 1238 536 1219 q 479 1257 507 1257 q 436 1238 450 1257 q 422 1196 422 1219 q 438 1153 422 1171 z "},"ร":{"ha":1289,"x_min":33,"x_max":1239,"o":"m 196 46 q 124 0 168 0 q 62 20 90 0 q 33 83 33 40 q 37 108 33 96 q 50 133 40 119 l 513 893 q 559 942 532 925 q 628 958 586 958 l 1157 958 q 1217 938 1194 958 q 1239 881 1239 917 q 1217 824 1239 844 q 1157 803 1196 803 l 739 803 l 739 564 l 1006 564 q 1067 544 1043 564 q 1092 488 1092 524 q 1067 431 1092 451 q 1006 410 1043 410 l 739 410 l 739 154 l 1157 154 q 1217 133 1196 154 q 1239 76 1239 113 q 1217 20 1239 40 q 1157 0 1196 0 l 651 0 q 586 24 608 0 q 564 88 564 49 l 564 229 l 306 229 l 196 46 m 378 383 l 564 383 l 564 707 l 378 383 z "},"ร":{"ha":956,"x_min":68,"x_max":894,"o":"m 440 -8 q 288 44 357 4 q 170 147 219 85 q 94 293 121 210 q 68 476 68 376 q 101 678 68 586 q 193 835 133 769 q 335 936 253 900 q 518 972 418 972 q 656 953 596 972 q 760 906 717 933 q 832 851 804 879 q 872 804 860 822 q 889 767 883 786 q 894 733 894 749 q 887 697 894 713 q 867 670 879 681 q 840 655 854 660 q 813 650 825 650 q 781 655 797 650 q 751 675 765 660 q 704 726 728 703 q 653 765 681 749 q 594 792 626 782 q 518 801 561 801 q 406 778 456 801 q 320 711 356 754 q 266 608 285 668 q 247 475 247 547 q 267 346 247 404 q 322 246 286 288 q 412 181 358 204 q 532 157 465 157 q 660 188 608 157 q 760 275 711 218 q 817 300 783 300 q 871 274 850 300 q 892 221 892 247 q 886 186 892 204 q 865 149 881 168 q 817 98 846 125 q 748 47 789 71 q 655 6 707 22 q 538 -14 603 -11 l 538 -46 q 576 -56 557 -49 q 611 -78 596 -64 q 636 -112 626 -92 q 646 -164 646 -133 q 632 -227 646 -200 q 596 -272 618 -254 q 546 -299 574 -290 q 489 -308 518 -308 q 427 -294 444 -308 q 410 -253 410 -281 q 428 -212 410 -221 q 464 -204 447 -204 q 521 -168 521 -204 q 508 -143 521 -150 q 465 -132 494 -136 q 446 -124 451 -129 q 440 -103 440 -119 l 440 -8 z "},"ร":{"ha":828,"x_min":106,"x_max":781,"o":"m 193 0 q 128 24 151 0 q 106 88 106 49 l 106 871 q 128 934 106 910 q 194 958 151 958 l 699 958 q 758 938 736 958 q 781 881 781 917 q 758 824 781 844 q 699 803 736 803 l 281 803 l 281 564 l 547 564 q 609 544 585 564 q 633 488 633 524 q 609 431 633 451 q 547 410 585 410 l 281 410 l 281 154 l 700 154 q 759 134 738 154 q 781 78 781 114 q 759 21 781 42 q 700 0 738 0 l 193 0 m 328 1174 q 299 1233 299 1193 q 321 1283 299 1261 q 372 1306 343 1306 q 405 1297 390 1306 q 431 1278 419 1289 l 576 1138 q 600 1090 600 1115 q 585 1053 600 1071 q 547 1036 571 1036 q 513 1050 535 1036 l 328 1174 z "},"ร":{"ha":828,"x_min":106,"x_max":781,"o":"m 193 0 q 128 24 151 0 q 106 88 106 49 l 106 871 q 128 934 106 910 q 194 958 151 958 l 699 958 q 758 938 736 958 q 781 881 781 917 q 758 824 781 844 q 699 803 736 803 l 281 803 l 281 564 l 547 564 q 609 544 585 564 q 633 488 633 524 q 609 431 633 451 q 547 410 585 410 l 281 410 l 281 154 l 700 154 q 759 134 738 154 q 781 78 781 114 q 759 21 781 42 q 700 0 738 0 l 193 0 m 385 1050 q 350 1036 365 1036 q 313 1053 326 1036 q 299 1090 299 1071 q 321 1138 299 1115 l 467 1278 q 492 1297 478 1289 q 525 1306 507 1306 q 577 1283 554 1306 q 600 1233 600 1261 q 569 1174 600 1194 l 385 1050 z "},"ร":{"ha":828,"x_min":106,"x_max":781,"o":"m 193 0 q 128 24 151 0 q 106 88 106 49 l 106 871 q 128 934 106 910 q 194 958 151 958 l 699 958 q 758 938 736 958 q 781 881 781 917 q 758 824 781 844 q 699 803 736 803 l 281 803 l 281 564 l 547 564 q 609 544 585 564 q 633 488 633 524 q 609 431 633 451 q 547 410 585 410 l 281 410 l 281 154 l 700 154 q 759 134 738 154 q 781 78 781 114 q 759 21 781 42 q 700 0 738 0 l 193 0 m 308 1049 q 288 1039 296 1042 q 275 1036 281 1036 q 242 1051 256 1036 q 229 1082 229 1067 q 235 1103 229 1093 q 251 1125 240 1114 l 403 1282 q 424 1299 413 1293 q 453 1306 435 1306 q 481 1299 469 1306 q 503 1282 493 1292 l 651 1125 q 668 1103 663 1114 q 674 1082 674 1093 q 661 1051 674 1067 q 629 1036 649 1036 q 615 1038 622 1036 q 594 1049 607 1040 l 451 1151 l 308 1049 z "},"ร":{"ha":828,"x_min":106,"x_max":781,"o":"m 193 0 q 128 24 151 0 q 106 88 106 49 l 106 871 q 128 934 106 910 q 194 958 151 958 l 699 958 q 758 938 736 958 q 781 881 781 917 q 758 824 781 844 q 699 803 736 803 l 281 803 l 281 564 l 547 564 q 609 544 585 564 q 633 488 633 524 q 609 431 633 451 q 547 410 585 410 l 281 410 l 281 154 l 700 154 q 759 134 738 154 q 781 78 781 114 q 759 21 781 42 q 700 0 738 0 l 193 0 m 269 1096 q 247 1157 247 1117 q 269 1217 247 1194 q 328 1239 290 1239 q 385 1217 361 1239 q 408 1157 408 1194 q 385 1096 408 1115 q 328 1076 363 1076 q 269 1096 292 1076 m 501 1097 q 481 1158 481 1118 q 502 1217 481 1196 q 560 1239 524 1239 q 618 1217 594 1239 q 642 1158 642 1196 q 618 1097 642 1115 q 560 1078 594 1078 q 501 1097 524 1078 z "},"ร":{"ha":386,"x_min":47,"x_max":349,"o":"m 281 88 q 256 24 281 49 q 193 0 232 0 q 130 24 154 0 q 106 88 106 49 l 106 871 q 130 934 106 910 q 193 958 154 958 q 256 934 232 958 q 281 871 281 910 l 281 88 m 76 1174 q 47 1233 47 1193 q 69 1283 47 1261 q 121 1306 92 1306 q 153 1297 139 1306 q 179 1278 168 1289 l 325 1138 q 349 1090 349 1115 q 334 1053 349 1071 q 296 1036 319 1036 q 261 1050 283 1036 l 76 1174 z "},"ร":{"ha":386,"x_min":47,"x_max":349,"o":"m 281 88 q 256 24 281 49 q 193 0 232 0 q 130 24 154 0 q 106 88 106 49 l 106 871 q 130 934 106 910 q 193 958 154 958 q 256 934 232 958 q 281 871 281 910 l 281 88 m 133 1050 q 99 1036 114 1036 q 61 1053 75 1036 q 47 1090 47 1071 q 69 1138 47 1115 l 215 1278 q 241 1297 226 1289 q 274 1306 256 1306 q 326 1283 303 1306 q 349 1233 349 1261 q 318 1174 349 1194 l 133 1050 z "},"ร":{"ha":386,"x_min":-22,"x_max":422,"o":"m 281 88 q 256 24 281 49 q 193 0 232 0 q 130 24 154 0 q 106 88 106 49 l 106 871 q 130 934 106 910 q 193 958 154 958 q 256 934 232 958 q 281 871 281 910 l 281 88 m 57 1049 q 37 1039 44 1042 q 24 1036 29 1036 q -9 1051 4 1036 q -22 1082 -22 1067 q -17 1103 -22 1093 q 0 1125 -11 1114 l 151 1282 q 172 1299 161 1293 q 201 1306 183 1306 q 230 1299 218 1306 q 251 1282 242 1292 l 400 1125 q 417 1103 411 1114 q 422 1082 422 1093 q 410 1051 422 1067 q 378 1036 397 1036 q 363 1038 371 1036 q 343 1049 356 1040 l 200 1151 l 57 1049 z "},"ร":{"ha":386,"x_min":-4,"x_max":390,"o":"m 281 88 q 256 24 281 49 q 193 0 232 0 q 130 24 154 0 q 106 88 106 49 l 106 871 q 130 934 106 910 q 193 958 154 958 q 256 934 232 958 q 281 871 281 910 l 281 88 m 18 1096 q -4 1157 -4 1117 q 17 1217 -4 1194 q 76 1239 39 1239 q 133 1217 110 1239 q 157 1157 157 1194 q 134 1096 157 1115 q 76 1076 111 1076 q 18 1096 40 1076 m 250 1097 q 229 1158 229 1118 q 251 1217 229 1196 q 308 1239 272 1239 q 367 1217 343 1239 q 390 1158 390 1196 q 367 1097 390 1115 q 308 1078 343 1078 q 250 1097 272 1078 z "},"ร":{"ha":965,"x_min":-11,"x_max":897,"o":"m 193 0 q 126 24 146 0 q 106 88 106 47 l 106 415 l 75 415 q 14 438 39 415 q -11 499 -11 460 q 14 560 -11 539 q 75 582 39 582 l 106 582 l 106 871 q 127 935 106 911 q 194 958 149 958 l 465 958 q 642 924 563 958 q 779 828 722 890 q 867 678 836 765 q 897 483 897 590 q 865 289 897 378 q 776 136 833 200 q 640 36 719 72 q 465 0 561 0 l 193 0 m 281 154 l 454 154 q 567 178 518 154 q 650 244 617 201 q 701 348 683 288 q 718 483 718 408 q 649 718 718 633 q 447 803 579 803 l 281 803 l 281 582 l 397 582 q 459 560 433 582 q 485 499 485 539 q 459 438 485 460 q 397 415 433 415 l 281 415 l 281 154 z "},"ร":{"ha":963,"x_min":106,"x_max":857,"o":"m 281 85 q 256 22 281 44 q 193 0 231 0 q 131 22 156 0 q 106 85 106 44 l 106 861 q 125 929 106 900 q 192 958 144 958 q 232 949 213 958 q 267 918 251 940 l 682 333 l 682 872 q 707 935 682 913 q 769 958 732 958 q 831 935 806 958 q 857 872 857 913 l 857 85 q 835 24 857 49 q 774 0 814 0 q 730 9 749 0 q 693 40 711 18 l 281 599 l 281 85 m 726 1199 q 700 1128 726 1156 q 656 1092 681 1104 q 603 1079 631 1079 q 540 1088 567 1079 q 492 1106 514 1096 q 449 1126 469 1117 q 401 1135 428 1135 q 360 1125 376 1135 q 332 1100 344 1115 q 312 1084 324 1090 q 281 1078 300 1078 q 241 1095 256 1078 q 226 1138 226 1113 q 232 1166 226 1149 q 251 1199 238 1183 q 303 1243 274 1225 q 382 1261 333 1261 q 439 1253 415 1261 q 483 1236 463 1246 q 524 1219 504 1226 q 569 1211 544 1211 q 600 1217 588 1211 q 626 1240 613 1224 q 644 1258 633 1250 q 669 1265 654 1265 q 710 1247 693 1265 q 726 1199 726 1228 z "},"ร":{"ha":1043,"x_min":68,"x_max":975,"o":"m 338 21 q 194 122 254 57 q 101 278 135 188 q 68 479 68 368 q 101 681 68 590 q 194 837 135 772 q 338 937 254 901 q 521 972 421 972 q 706 937 622 972 q 849 837 789 901 q 942 681 908 772 q 975 479 975 590 q 942 278 975 368 q 849 122 908 188 q 706 22 789 57 q 521 -14 622 -14 q 338 21 421 -14 m 322 246 q 408 181 358 204 q 521 157 458 157 q 635 181 583 157 q 722 247 686 204 q 776 349 757 289 q 796 479 796 408 q 776 610 796 551 q 721 712 757 669 q 634 778 685 754 q 521 801 583 801 q 408 778 458 801 q 322 712 357 754 q 267 610 286 669 q 247 479 247 551 q 267 349 247 408 q 322 246 286 289 m 404 1174 q 375 1233 375 1193 q 397 1283 375 1261 q 449 1306 419 1306 q 481 1297 467 1306 q 507 1278 496 1289 l 653 1138 q 676 1090 676 1115 q 662 1053 676 1071 q 624 1036 647 1036 q 589 1050 611 1036 l 404 1174 z "},"ร":{"ha":1043,"x_min":68,"x_max":975,"o":"m 338 21 q 194 122 254 57 q 101 278 135 188 q 68 479 68 368 q 101 681 68 590 q 194 837 135 772 q 338 937 254 901 q 521 972 421 972 q 706 937 622 972 q 849 837 789 901 q 942 681 908 772 q 975 479 975 590 q 942 278 975 368 q 849 122 908 188 q 706 22 789 57 q 521 -14 622 -14 q 338 21 421 -14 m 322 246 q 408 181 358 204 q 521 157 458 157 q 635 181 583 157 q 722 247 686 204 q 776 349 757 289 q 796 479 796 408 q 776 610 796 551 q 721 712 757 669 q 634 778 685 754 q 521 801 583 801 q 408 778 458 801 q 322 712 357 754 q 267 610 286 669 q 247 479 247 551 q 267 349 247 408 q 322 246 286 289 m 461 1050 q 426 1036 442 1036 q 389 1053 403 1036 q 375 1090 375 1071 q 397 1138 375 1115 l 543 1278 q 569 1297 554 1289 q 601 1306 583 1306 q 653 1283 631 1306 q 676 1233 676 1261 q 646 1174 676 1194 l 461 1050 z "},"ร":{"ha":1043,"x_min":68,"x_max":975,"o":"m 338 21 q 194 122 254 57 q 101 278 135 188 q 68 479 68 368 q 101 681 68 590 q 194 837 135 772 q 338 937 254 901 q 521 972 421 972 q 706 937 622 972 q 849 837 789 901 q 942 681 908 772 q 975 479 975 590 q 942 278 975 368 q 849 122 908 188 q 706 22 789 57 q 521 -14 622 -14 q 338 21 421 -14 m 322 246 q 408 181 358 204 q 521 157 458 157 q 635 181 583 157 q 722 247 686 204 q 776 349 757 289 q 796 479 796 408 q 776 610 796 551 q 721 712 757 669 q 634 778 685 754 q 521 801 583 801 q 408 778 458 801 q 322 712 357 754 q 267 610 286 669 q 247 479 247 551 q 267 349 247 408 q 322 246 286 289 m 385 1049 q 365 1039 372 1042 q 351 1036 357 1036 q 319 1051 332 1036 q 306 1082 306 1067 q 311 1103 306 1093 q 328 1125 317 1114 l 479 1282 q 500 1299 489 1293 q 529 1306 511 1306 q 558 1299 546 1306 q 579 1282 569 1292 l 728 1125 q 744 1103 739 1114 q 750 1082 750 1093 q 738 1051 750 1067 q 706 1036 725 1036 q 691 1038 699 1036 q 671 1049 683 1040 l 528 1151 l 385 1049 z "},"ร":{"ha":1043,"x_min":68,"x_max":975,"o":"m 338 21 q 194 122 254 57 q 101 278 135 188 q 68 479 68 368 q 101 681 68 590 q 194 837 135 772 q 338 937 254 901 q 521 972 421 972 q 706 937 622 972 q 849 837 789 901 q 942 681 908 772 q 975 479 975 590 q 942 278 975 368 q 849 122 908 188 q 706 22 789 57 q 521 -14 622 -14 q 338 21 421 -14 m 322 246 q 408 181 358 204 q 521 157 458 157 q 635 181 583 157 q 722 247 686 204 q 776 349 757 289 q 796 479 796 408 q 776 610 796 551 q 721 712 757 669 q 634 778 685 754 q 521 801 583 801 q 408 778 458 801 q 322 712 357 754 q 267 610 286 669 q 247 479 247 551 q 267 349 247 408 q 322 246 286 289 m 767 1199 q 740 1128 767 1156 q 696 1092 721 1104 q 643 1079 671 1079 q 581 1088 607 1079 q 532 1106 554 1096 q 489 1126 510 1117 q 442 1135 468 1135 q 401 1125 417 1135 q 372 1100 385 1115 q 352 1084 364 1090 q 321 1078 340 1078 q 281 1095 296 1078 q 267 1138 267 1113 q 272 1166 267 1149 q 292 1199 278 1183 q 344 1243 314 1225 q 422 1261 374 1261 q 479 1253 456 1261 q 524 1236 503 1246 q 565 1219 544 1226 q 610 1211 585 1211 q 640 1217 628 1211 q 667 1240 653 1224 q 684 1258 674 1250 q 710 1265 694 1265 q 750 1247 733 1265 q 767 1199 767 1228 z "},"ร":{"ha":1043,"x_min":68,"x_max":975,"o":"m 338 21 q 194 122 254 57 q 101 278 135 188 q 68 479 68 368 q 101 681 68 590 q 194 837 135 772 q 338 937 254 901 q 521 972 421 972 q 706 937 622 972 q 849 837 789 901 q 942 681 908 772 q 975 479 975 590 q 942 278 975 368 q 849 122 908 188 q 706 22 789 57 q 521 -14 622 -14 q 338 21 421 -14 m 322 246 q 408 181 358 204 q 521 157 458 157 q 635 181 583 157 q 722 247 686 204 q 776 349 757 289 q 796 479 796 408 q 776 610 796 551 q 721 712 757 669 q 634 778 685 754 q 521 801 583 801 q 408 778 458 801 q 322 712 357 754 q 267 610 286 669 q 247 479 247 551 q 267 349 247 408 q 322 246 286 289 m 346 1096 q 324 1157 324 1117 q 345 1217 324 1194 q 404 1239 367 1239 q 461 1217 438 1239 q 485 1157 485 1194 q 462 1096 485 1115 q 404 1076 439 1076 q 346 1096 368 1076 m 578 1097 q 557 1158 557 1118 q 578 1217 557 1196 q 636 1239 600 1239 q 694 1217 671 1239 q 718 1158 718 1196 q 694 1097 718 1115 q 636 1078 671 1078 q 578 1097 600 1078 z "},"ร":{"ha":872,"x_min":196,"x_max":675,"o":"m 306 219 q 263 199 285 199 q 217 217 239 199 q 196 263 196 235 q 217 308 196 288 l 347 440 l 218 569 q 197 613 197 588 q 215 658 197 638 q 261 678 233 678 q 306 658 286 678 l 436 528 l 565 658 q 610 678 588 678 q 654 659 633 678 q 675 613 675 640 q 656 568 675 588 l 525 438 l 656 308 q 675 263 675 289 q 658 219 675 239 q 613 199 640 199 q 565 218 589 199 l 436 349 l 306 219 z "},"ร":{"ha":1043,"x_min":68,"x_max":975,"o":"m 272 19 q 243 -7 257 0 q 214 -14 229 -14 q 169 3 188 -14 q 150 47 150 19 q 155 72 150 63 q 164 89 160 82 l 190 126 q 100 281 132 192 q 68 479 68 369 q 101 681 68 590 q 194 837 135 772 q 338 937 254 901 q 521 972 421 972 q 639 958 583 972 q 743 918 694 944 l 761 943 q 788 967 774 961 q 817 972 801 972 q 863 954 844 972 q 881 911 881 936 q 877 888 881 896 q 869 872 874 879 l 846 840 q 942 683 908 775 q 975 479 975 592 q 942 278 975 368 q 849 122 908 188 q 706 22 789 57 q 521 -14 622 -14 q 397 1 454 -14 q 290 44 339 17 l 272 19 m 390 189 q 521 157 447 157 q 635 181 583 157 q 722 247 686 204 q 776 349 757 289 q 796 479 796 408 q 781 594 796 542 q 739 686 767 646 l 390 189 m 642 774 q 521 801 589 801 q 408 778 458 801 q 322 712 357 754 q 267 610 286 669 q 247 479 247 551 q 297 281 247 363 l 642 774 z "},"ร":{"ha":986,"x_min":99,"x_max":888,"o":"m 274 394 q 493 157 274 157 q 713 400 713 157 l 713 871 q 736 934 713 910 q 800 958 760 958 q 863 934 839 958 q 888 871 888 910 l 888 374 q 860 215 888 286 q 782 93 833 144 q 658 14 731 42 q 493 -14 585 -14 q 328 14 401 -14 q 203 92 254 42 q 126 212 153 142 q 99 368 99 282 l 99 871 q 123 934 99 910 q 186 958 147 958 q 249 934 225 958 q 274 871 274 910 l 274 394 m 376 1174 q 347 1233 347 1193 q 369 1283 347 1261 q 421 1306 392 1306 q 453 1297 439 1306 q 479 1278 468 1289 l 625 1138 q 649 1090 649 1115 q 634 1053 649 1071 q 596 1036 619 1036 q 561 1050 583 1036 l 376 1174 z "},"ร":{"ha":986,"x_min":99,"x_max":888,"o":"m 274 394 q 493 157 274 157 q 713 400 713 157 l 713 871 q 736 934 713 910 q 800 958 760 958 q 863 934 839 958 q 888 871 888 910 l 888 374 q 860 215 888 286 q 782 93 833 144 q 658 14 731 42 q 493 -14 585 -14 q 328 14 401 -14 q 203 92 254 42 q 126 212 153 142 q 99 368 99 282 l 99 871 q 123 934 99 910 q 186 958 147 958 q 249 934 225 958 q 274 871 274 910 l 274 394 m 433 1050 q 399 1036 414 1036 q 361 1053 375 1036 q 347 1090 347 1071 q 369 1138 347 1115 l 515 1278 q 541 1297 526 1289 q 574 1306 556 1306 q 626 1283 603 1306 q 649 1233 649 1261 q 618 1174 649 1194 l 433 1050 z "},"ร":{"ha":986,"x_min":99,"x_max":888,"o":"m 274 394 q 493 157 274 157 q 713 400 713 157 l 713 871 q 736 934 713 910 q 800 958 760 958 q 863 934 839 958 q 888 871 888 910 l 888 374 q 860 215 888 286 q 782 93 833 144 q 658 14 731 42 q 493 -14 585 -14 q 328 14 401 -14 q 203 92 254 42 q 126 212 153 142 q 99 368 99 282 l 99 871 q 123 934 99 910 q 186 958 147 958 q 249 934 225 958 q 274 871 274 910 l 274 394 m 357 1049 q 337 1039 344 1042 q 324 1036 329 1036 q 291 1051 304 1036 q 278 1082 278 1067 q 283 1103 278 1093 q 300 1125 289 1114 l 451 1282 q 472 1299 461 1293 q 501 1306 483 1306 q 530 1299 518 1306 q 551 1282 542 1292 l 700 1125 q 717 1103 711 1114 q 722 1082 722 1093 q 710 1051 722 1067 q 678 1036 697 1036 q 663 1038 671 1036 q 643 1049 656 1040 l 500 1151 l 357 1049 z "},"ร":{"ha":986,"x_min":99,"x_max":888,"o":"m 274 394 q 493 157 274 157 q 713 400 713 157 l 713 871 q 736 934 713 910 q 800 958 760 958 q 863 934 839 958 q 888 871 888 910 l 888 374 q 860 215 888 286 q 782 93 833 144 q 658 14 731 42 q 493 -14 585 -14 q 328 14 401 -14 q 203 92 254 42 q 126 212 153 142 q 99 368 99 282 l 99 871 q 123 934 99 910 q 186 958 147 958 q 249 934 225 958 q 274 871 274 910 l 274 394 m 318 1096 q 296 1157 296 1117 q 317 1217 296 1194 q 376 1239 339 1239 q 433 1217 410 1239 q 457 1157 457 1194 q 434 1096 457 1115 q 376 1076 411 1076 q 318 1096 340 1076 m 550 1097 q 529 1158 529 1118 q 551 1217 529 1196 q 608 1239 572 1239 q 667 1217 643 1239 q 690 1158 690 1196 q 667 1097 690 1115 q 608 1078 643 1078 q 550 1097 572 1078 z "},"ร":{"ha":882,"x_min":47,"x_max":836,"o":"m 528 88 q 504 24 528 49 q 440 0 481 0 q 377 24 401 0 q 353 88 353 49 l 353 351 l 60 826 q 50 851 53 838 q 47 876 47 864 q 68 933 47 908 q 132 958 89 958 q 170 950 151 958 q 203 918 189 942 l 443 518 l 672 907 q 704 946 688 933 q 753 958 721 958 q 809 937 782 958 q 836 883 836 915 q 828 843 836 864 q 810 807 819 822 l 528 351 l 528 88 m 381 1050 q 346 1036 361 1036 q 308 1053 322 1036 q 294 1090 294 1071 q 317 1138 294 1115 l 463 1278 q 488 1297 474 1289 q 521 1306 503 1306 q 573 1283 550 1306 q 596 1233 596 1261 q 565 1174 596 1194 l 381 1050 z "},"ร":{"ha":867,"x_min":106,"x_max":813,"o":"m 281 88 q 256 24 281 49 q 193 0 232 0 q 130 24 154 0 q 106 88 106 49 l 106 871 q 130 934 106 910 q 193 958 154 958 q 256 934 232 958 q 281 871 281 910 l 281 800 l 454 800 q 603 778 538 800 q 716 714 669 756 q 788 613 763 672 q 813 482 813 554 q 787 348 813 407 q 713 248 761 289 q 599 185 665 207 q 449 164 532 164 l 281 164 l 281 88 m 281 319 l 449 319 q 587 363 540 319 q 633 482 633 407 q 585 603 633 561 q 446 646 538 646 l 281 646 l 281 319 z "},"ร":{"ha":876,"x_min":96,"x_max":843,"o":"m 267 83 q 243 22 267 44 q 182 0 219 0 q 120 22 144 0 q 96 83 96 44 l 96 672 q 120 801 96 744 q 187 895 144 857 q 287 953 229 933 q 413 972 344 972 q 546 949 488 972 q 645 883 604 925 q 708 785 686 842 q 729 663 729 728 q 712 590 729 618 q 639 561 694 563 q 572 550 601 561 q 543 511 543 539 q 565 469 543 486 q 619 435 588 451 q 685 404 650 419 q 710 392 689 401 q 765 356 732 382 q 821 294 799 331 q 843 207 843 258 q 822 116 843 157 q 765 47 801 75 q 682 2 729 18 q 582 -14 635 -14 q 499 -3 538 -14 q 431 26 461 8 q 380 67 400 44 q 351 111 360 89 q 348 122 350 114 q 346 142 346 131 q 367 194 346 171 q 422 217 388 217 q 454 209 442 217 q 478 190 467 201 q 521 153 497 171 q 585 135 544 135 q 644 153 621 135 q 668 206 668 171 q 646 253 668 233 q 590 288 624 272 q 518 321 557 304 q 446 360 479 338 q 390 417 413 383 q 368 501 368 451 q 422 619 368 579 q 557 668 476 660 q 517 783 556 740 q 413 825 479 825 q 304 783 342 825 q 267 672 267 740 l 267 83 z "},"ร":{"ha":869,"x_min":54,"x_max":846,"o":"m 596 139 q 502 26 563 65 q 360 -14 442 -14 q 242 12 297 -14 q 144 85 186 38 q 78 199 103 132 q 54 350 54 267 q 80 502 54 433 q 149 619 106 571 q 251 694 193 668 q 372 721 308 721 q 512 683 458 721 q 596 579 565 644 l 596 635 q 619 687 596 667 q 682 707 643 707 q 744 687 721 707 q 767 635 767 667 l 767 217 q 801 154 767 154 q 834 137 822 154 q 846 88 846 119 q 739 0 846 0 q 638 37 669 0 q 597 122 606 74 l 596 139 m 282 197 q 340 155 307 169 q 413 140 374 140 q 484 155 450 140 q 543 197 518 169 q 583 263 568 224 q 597 350 597 301 q 547 506 597 447 q 413 565 496 565 q 278 506 326 565 q 229 350 229 446 q 243 263 229 301 q 282 197 257 225 m 317 896 q 288 956 288 915 q 310 1006 288 983 q 361 1028 332 1028 q 394 1019 379 1028 q 419 1000 408 1011 l 565 860 q 589 813 589 838 q 574 776 589 793 q 536 758 560 758 q 501 772 524 758 l 317 896 z "},"รก":{"ha":869,"x_min":54,"x_max":846,"o":"m 596 139 q 502 26 563 65 q 360 -14 442 -14 q 242 12 297 -14 q 144 85 186 38 q 78 199 103 132 q 54 350 54 267 q 80 502 54 433 q 149 619 106 571 q 251 694 193 668 q 372 721 308 721 q 512 683 458 721 q 596 579 565 644 l 596 635 q 619 687 596 667 q 682 707 643 707 q 744 687 721 707 q 767 635 767 667 l 767 217 q 801 154 767 154 q 834 137 822 154 q 846 88 846 119 q 739 0 846 0 q 638 37 669 0 q 597 122 606 74 l 596 139 m 282 197 q 340 155 307 169 q 413 140 374 140 q 484 155 450 140 q 543 197 518 169 q 583 263 568 224 q 597 350 597 301 q 547 506 597 447 q 413 565 496 565 q 278 506 326 565 q 229 350 229 446 q 243 263 229 301 q 282 197 257 225 m 346 772 q 311 758 326 758 q 274 776 288 758 q 260 813 260 793 q 282 860 260 838 l 428 1000 q 453 1019 439 1011 q 486 1028 468 1028 q 538 1006 515 1028 q 561 956 561 983 q 531 896 561 917 l 346 772 z "},"รข":{"ha":869,"x_min":54,"x_max":846,"o":"m 596 139 q 502 26 563 65 q 360 -14 442 -14 q 242 12 297 -14 q 144 85 186 38 q 78 199 103 132 q 54 350 54 267 q 80 502 54 433 q 149 619 106 571 q 251 694 193 668 q 372 721 308 721 q 512 683 458 721 q 596 579 565 644 l 596 635 q 619 687 596 667 q 682 707 643 707 q 744 687 721 707 q 767 635 767 667 l 767 217 q 801 154 767 154 q 834 137 822 154 q 846 88 846 119 q 739 0 846 0 q 638 37 669 0 q 597 122 606 74 l 596 139 m 282 197 q 340 155 307 169 q 413 140 374 140 q 484 155 450 140 q 543 197 518 169 q 583 263 568 224 q 597 350 597 301 q 547 506 597 447 q 413 565 496 565 q 278 506 326 565 q 229 350 229 446 q 243 263 229 301 q 282 197 257 225 m 269 771 q 249 761 257 764 q 236 758 242 758 q 203 774 217 758 q 190 804 190 789 q 196 826 190 815 q 213 847 201 836 l 364 1004 q 385 1022 374 1015 q 414 1028 396 1028 q 442 1021 431 1028 q 464 1004 454 1014 l 613 847 q 629 826 624 836 q 635 804 635 815 q 622 774 635 789 q 590 758 610 758 q 576 760 583 758 q 556 771 568 763 l 413 874 l 269 771 z "},"รฃ":{"ha":869,"x_min":54,"x_max":846,"o":"m 596 139 q 502 26 563 65 q 360 -14 442 -14 q 242 12 297 -14 q 144 85 186 38 q 78 199 103 132 q 54 350 54 267 q 80 502 54 433 q 149 619 106 571 q 251 694 193 668 q 372 721 308 721 q 512 683 458 721 q 596 579 565 644 l 596 635 q 619 687 596 667 q 682 707 643 707 q 744 687 721 707 q 767 635 767 667 l 767 217 q 801 154 767 154 q 834 137 822 154 q 846 88 846 119 q 739 0 846 0 q 638 37 669 0 q 597 122 606 74 l 596 139 m 282 197 q 340 155 307 169 q 413 140 374 140 q 484 155 450 140 q 543 197 518 169 q 583 263 568 224 q 597 350 597 301 q 547 506 597 447 q 413 565 496 565 q 278 506 326 565 q 229 350 229 446 q 243 263 229 301 q 282 197 257 225 m 679 921 q 653 850 679 878 q 608 814 633 826 q 556 801 583 801 q 493 810 519 801 q 444 828 467 818 q 401 848 422 839 q 354 857 381 857 q 313 847 329 857 q 285 822 297 838 q 265 806 276 813 q 233 800 253 800 q 194 817 208 800 q 179 860 179 835 q 185 888 179 871 q 204 921 190 906 q 256 965 226 947 q 335 983 286 983 q 392 976 368 983 q 436 958 415 968 q 477 941 457 949 q 522 933 497 933 q 553 940 540 933 q 579 963 565 946 q 597 980 586 972 q 622 988 607 988 q 663 969 646 988 q 679 921 679 950 z "},"รค":{"ha":869,"x_min":54,"x_max":846,"o":"m 596 139 q 502 26 563 65 q 360 -14 442 -14 q 242 12 297 -14 q 144 85 186 38 q 78 199 103 132 q 54 350 54 267 q 80 502 54 433 q 149 619 106 571 q 251 694 193 668 q 372 721 308 721 q 512 683 458 721 q 596 579 565 644 l 596 635 q 619 687 596 667 q 682 707 643 707 q 744 687 721 707 q 767 635 767 667 l 767 217 q 801 154 767 154 q 834 137 822 154 q 846 88 846 119 q 739 0 846 0 q 638 37 669 0 q 597 122 606 74 l 596 139 m 282 197 q 340 155 307 169 q 413 140 374 140 q 484 155 450 140 q 543 197 518 169 q 583 263 568 224 q 597 350 597 301 q 547 506 597 447 q 413 565 496 565 q 278 506 326 565 q 229 350 229 446 q 243 263 229 301 q 282 197 257 225 m 244 818 q 222 879 222 839 q 244 939 222 917 q 303 961 265 961 q 360 939 336 961 q 383 879 383 917 q 360 818 383 838 q 303 799 338 799 q 244 818 267 799 m 476 819 q 456 881 456 840 q 477 940 456 918 q 535 961 499 961 q 593 940 569 961 q 617 881 617 918 q 593 819 617 838 q 535 800 569 800 q 476 819 499 800 z "},"รฅ":{"ha":869,"x_min":54,"x_max":846,"o":"m 596 139 q 502 26 563 65 q 360 -14 442 -14 q 242 12 297 -14 q 144 85 186 38 q 78 199 103 132 q 54 350 54 267 q 80 502 54 433 q 149 619 106 571 q 251 694 193 668 q 372 721 308 721 q 512 683 458 721 q 596 579 565 644 l 596 635 q 619 687 596 667 q 682 707 643 707 q 744 687 721 707 q 767 635 767 667 l 767 217 q 801 154 767 154 q 834 137 822 154 q 846 88 846 119 q 739 0 846 0 q 638 37 669 0 q 597 122 606 74 l 596 139 m 282 197 q 340 155 307 169 q 413 140 374 140 q 484 155 450 140 q 543 197 518 169 q 583 263 568 224 q 597 350 597 301 q 547 506 597 447 q 413 565 496 565 q 278 506 326 565 q 229 350 229 446 q 243 263 229 301 q 282 197 257 225 m 347 769 q 299 801 319 781 q 265 851 278 822 q 253 917 253 881 q 298 1034 253 990 q 410 1078 343 1078 q 523 1033 479 1078 q 567 917 567 988 q 523 803 567 847 q 410 758 479 758 q 347 769 376 758 m 368 875 q 410 858 383 858 q 452 876 438 858 q 467 918 467 894 q 452 960 467 942 q 410 979 438 979 q 367 960 381 979 q 353 918 353 942 q 368 875 353 893 z "},"รฆ":{"ha":1326,"x_min":54,"x_max":1265,"o":"m 771 313 q 833 185 782 229 q 960 140 883 140 q 1015 147 989 140 q 1061 163 1040 153 q 1098 183 1082 172 q 1124 200 1114 193 q 1161 211 1149 211 q 1215 188 1193 211 q 1236 135 1236 164 q 1225 97 1236 114 q 1200 68 1214 79 q 1096 10 1160 35 q 946 -14 1032 -14 q 763 38 838 -14 q 653 178 689 90 q 539 38 613 89 q 368 -14 465 -14 q 245 12 303 -14 q 145 85 188 38 q 78 199 103 132 q 54 350 54 267 q 80 502 54 433 q 149 619 106 571 q 251 694 193 668 q 372 721 308 721 q 525 684 467 721 q 617 590 583 647 l 617 635 q 635 687 617 667 q 682 707 653 707 q 728 687 711 707 q 746 635 746 667 l 746 585 q 833 689 779 657 q 951 721 886 721 q 1080 695 1022 721 q 1178 627 1138 669 q 1242 529 1219 585 q 1265 414 1265 474 q 1251 341 1265 369 q 1189 313 1236 313 l 771 313 m 282 197 q 340 155 307 169 q 413 140 374 140 q 484 155 450 140 q 543 197 518 169 q 583 263 568 224 q 597 350 597 301 q 547 506 597 447 q 413 565 496 565 q 278 506 326 565 q 229 350 229 446 q 243 263 229 301 q 282 197 257 225 m 1099 414 q 1090 467 1100 440 q 1060 517 1081 494 q 1011 552 1040 539 q 944 565 982 565 q 832 526 878 565 q 772 414 786 486 l 1099 414 z "},"รง":{"ha":736,"x_min":54,"x_max":689,"o":"m 321 -6 q 210 40 260 7 q 126 119 161 72 q 73 226 92 167 q 54 354 54 286 q 81 499 54 432 q 153 615 107 565 q 262 692 199 664 q 400 721 325 721 q 551 692 483 721 q 663 604 618 663 q 689 536 689 569 q 665 478 689 496 q 615 461 640 461 q 578 469 592 461 q 554 488 564 478 q 533 509 546 496 q 502 535 521 522 q 459 556 483 547 q 401 565 435 565 q 328 548 360 565 q 274 501 296 531 q 240 433 251 471 q 229 353 229 394 q 240 273 229 311 q 274 205 251 235 q 327 158 296 175 q 400 140 358 140 q 481 160 444 140 q 550 213 517 181 q 581 233 567 228 q 606 238 596 238 q 656 219 631 238 q 681 165 681 201 q 651 93 681 122 q 563 23 618 56 q 418 -14 507 -10 l 418 -46 q 457 -56 438 -49 q 492 -78 476 -64 q 517 -112 507 -92 q 526 -164 526 -133 q 513 -227 526 -200 q 476 -272 499 -254 q 426 -299 454 -290 q 369 -308 399 -308 q 308 -294 326 -308 q 290 -253 290 -281 q 309 -212 290 -221 q 344 -204 328 -204 q 403 -168 403 -204 q 389 -143 403 -150 q 346 -132 375 -136 q 326 -124 332 -129 q 321 -103 321 -119 l 321 -6 z "},"รจ":{"ha":782,"x_min":54,"x_max":721,"o":"m 226 313 q 288 185 238 229 q 415 140 339 140 q 470 147 444 140 q 517 163 496 153 q 553 183 538 172 q 579 200 569 193 q 617 211 604 211 q 670 188 649 211 q 692 135 692 164 q 681 97 692 114 q 656 68 669 79 q 551 10 615 35 q 401 -14 488 -14 q 261 13 325 -14 q 151 89 197 40 q 80 204 106 138 q 54 350 54 271 q 81 494 54 426 q 153 613 107 563 q 264 692 200 663 q 401 721 328 721 q 533 695 474 721 q 633 627 592 669 q 698 529 675 585 q 721 414 721 474 q 706 341 721 369 q 644 313 692 313 l 226 313 m 554 414 q 546 467 556 440 q 516 517 536 494 q 467 552 496 539 q 400 565 438 565 q 288 526 333 565 q 228 414 242 486 l 554 414 m 274 896 q 244 956 244 915 q 267 1006 244 983 q 318 1028 289 1028 q 351 1019 336 1028 q 376 1000 365 1011 l 522 860 q 546 813 546 838 q 531 776 546 793 q 493 758 517 758 q 458 772 481 758 l 274 896 z "},"รฉ":{"ha":782,"x_min":54,"x_max":721,"o":"m 226 313 q 288 185 238 229 q 415 140 339 140 q 470 147 444 140 q 517 163 496 153 q 553 183 538 172 q 579 200 569 193 q 617 211 604 211 q 670 188 649 211 q 692 135 692 164 q 681 97 692 114 q 656 68 669 79 q 551 10 615 35 q 401 -14 488 -14 q 261 13 325 -14 q 151 89 197 40 q 80 204 106 138 q 54 350 54 271 q 81 494 54 426 q 153 613 107 563 q 264 692 200 663 q 401 721 328 721 q 533 695 474 721 q 633 627 592 669 q 698 529 675 585 q 721 414 721 474 q 706 341 721 369 q 644 313 692 313 l 226 313 m 554 414 q 546 467 556 440 q 516 517 536 494 q 467 552 496 539 q 400 565 438 565 q 288 526 333 565 q 228 414 242 486 l 554 414 m 358 772 q 324 758 339 758 q 286 776 300 758 q 272 813 272 793 q 294 860 272 838 l 440 1000 q 466 1019 451 1011 q 499 1028 481 1028 q 551 1006 528 1028 q 574 956 574 983 q 543 896 574 917 l 358 772 z "},"รช":{"ha":782,"x_min":54,"x_max":721,"o":"m 226 313 q 288 185 238 229 q 415 140 339 140 q 470 147 444 140 q 517 163 496 153 q 553 183 538 172 q 579 200 569 193 q 617 211 604 211 q 670 188 649 211 q 692 135 692 164 q 681 97 692 114 q 656 68 669 79 q 551 10 615 35 q 401 -14 488 -14 q 261 13 325 -14 q 151 89 197 40 q 80 204 106 138 q 54 350 54 271 q 81 494 54 426 q 153 613 107 563 q 264 692 200 663 q 401 721 328 721 q 533 695 474 721 q 633 627 592 669 q 698 529 675 585 q 721 414 721 474 q 706 341 721 369 q 644 313 692 313 l 226 313 m 554 414 q 546 467 556 440 q 516 517 536 494 q 467 552 496 539 q 400 565 438 565 q 288 526 333 565 q 228 414 242 486 l 554 414 m 258 771 q 238 761 246 764 q 225 758 231 758 q 192 774 206 758 q 179 804 179 789 q 185 826 179 815 q 201 847 190 836 l 353 1004 q 374 1022 363 1015 q 403 1028 385 1028 q 431 1021 419 1028 q 453 1004 443 1014 l 601 847 q 618 826 613 836 q 624 804 624 815 q 611 774 624 789 q 579 758 599 758 q 565 760 572 758 q 544 771 557 763 l 401 874 l 258 771 z "},"รซ":{"ha":782,"x_min":54,"x_max":721,"o":"m 226 313 q 288 185 238 229 q 415 140 339 140 q 470 147 444 140 q 517 163 496 153 q 553 183 538 172 q 579 200 569 193 q 617 211 604 211 q 670 188 649 211 q 692 135 692 164 q 681 97 692 114 q 656 68 669 79 q 551 10 615 35 q 401 -14 488 -14 q 261 13 325 -14 q 151 89 197 40 q 80 204 106 138 q 54 350 54 271 q 81 494 54 426 q 153 613 107 563 q 264 692 200 663 q 401 721 328 721 q 533 695 474 721 q 633 627 592 669 q 698 529 675 585 q 721 414 721 474 q 706 341 721 369 q 644 313 692 313 l 226 313 m 554 414 q 546 467 556 440 q 516 517 536 494 q 467 552 496 539 q 400 565 438 565 q 288 526 333 565 q 228 414 242 486 l 554 414 m 229 818 q 207 879 207 839 q 228 939 207 917 q 288 961 250 961 q 344 939 321 961 q 368 879 368 917 q 345 818 368 838 q 288 799 322 799 q 229 818 251 799 m 461 819 q 440 881 440 840 q 462 940 440 918 q 519 961 483 961 q 578 940 554 961 q 601 881 601 918 q 578 819 601 838 q 519 800 554 800 q 461 819 483 800 z "},"รฌ":{"ha":368,"x_min":11,"x_max":344,"o":"m 265 219 q 273 173 265 192 q 301 154 281 154 q 335 133 325 154 q 344 89 344 113 q 320 24 344 49 q 247 0 296 0 q 136 48 176 0 q 96 208 96 96 l 96 624 q 119 683 96 658 q 181 707 143 707 q 242 683 218 707 q 265 624 265 658 l 265 219 m 40 896 q 11 956 11 915 q 33 1006 11 983 q 85 1028 56 1028 q 117 1019 103 1028 q 143 1000 132 1011 l 289 860 q 313 813 313 838 q 298 776 313 793 q 260 758 283 758 q 225 772 247 758 l 40 896 z "},"รญ":{"ha":368,"x_min":67,"x_max":368,"o":"m 265 219 q 273 173 265 192 q 301 154 281 154 q 335 133 325 154 q 344 89 344 113 q 320 24 344 49 q 247 0 296 0 q 136 48 176 0 q 96 208 96 96 l 96 624 q 119 683 96 658 q 181 707 143 707 q 242 683 218 707 q 265 624 265 658 l 265 219 m 153 772 q 118 758 133 758 q 81 776 94 758 q 67 813 67 793 q 89 860 67 838 l 235 1000 q 260 1019 246 1011 q 293 1028 275 1028 q 345 1006 322 1028 q 368 956 368 983 q 338 896 368 917 l 153 772 z "},"รฎ":{"ha":368,"x_min":-31,"x_max":414,"o":"m 265 219 q 273 173 265 192 q 301 154 281 154 q 335 133 325 154 q 344 89 344 113 q 320 24 344 49 q 247 0 296 0 q 136 48 176 0 q 96 208 96 96 l 96 624 q 119 683 96 658 q 181 707 143 707 q 242 683 218 707 q 265 624 265 658 l 265 219 m 49 771 q 28 761 36 764 q 15 758 21 758 q -17 774 -4 758 q -31 804 -31 789 q -25 826 -31 815 q -8 847 -19 836 l 143 1004 q 164 1022 153 1015 q 193 1028 175 1028 q 222 1021 210 1028 q 243 1004 233 1014 l 392 847 q 408 826 403 836 q 414 804 414 815 q 401 774 414 789 q 369 758 389 758 q 355 760 363 758 q 335 771 347 763 l 192 874 l 49 771 z "},"รฏ":{"ha":368,"x_min":-12,"x_max":382,"o":"m 265 219 q 273 173 265 192 q 301 154 281 154 q 335 133 325 154 q 344 89 344 113 q 320 24 344 49 q 247 0 296 0 q 136 48 176 0 q 96 208 96 96 l 96 624 q 119 683 96 658 q 181 707 143 707 q 242 683 218 707 q 265 624 265 658 l 265 219 m 10 818 q -12 879 -12 839 q 9 939 -12 917 q 68 961 31 961 q 125 939 101 961 q 149 879 149 917 q 126 818 149 838 q 68 799 103 799 q 10 818 32 799 m 242 819 q 221 881 221 840 q 242 940 221 918 q 300 961 264 961 q 358 940 335 961 q 382 881 382 918 q 358 819 382 838 q 300 800 335 800 q 242 819 264 800 z "},"รฐ":{"ha":822,"x_min":56,"x_max":767,"o":"m 767 343 q 740 203 767 268 q 667 90 714 138 q 554 14 619 42 q 411 -14 489 -14 q 267 14 332 -14 q 155 90 201 42 q 82 203 108 138 q 56 343 56 268 q 81 483 56 418 q 153 597 107 549 q 264 672 200 644 q 404 700 328 700 q 446 697 425 700 q 486 690 467 694 q 425 758 456 729 q 367 808 394 786 q 315 857 331 836 q 299 897 299 878 q 319 949 299 925 q 372 972 339 972 q 414 963 396 972 q 456 936 432 953 l 475 922 l 507 953 q 528 967 517 961 q 556 972 540 972 q 600 954 582 972 q 618 908 618 936 q 600 864 618 882 l 574 838 q 640 757 607 803 q 701 653 674 711 q 745 522 728 594 q 765 363 763 450 q 767 343 767 356 m 276 201 q 333 157 300 174 q 411 140 367 140 q 489 156 456 140 q 545 199 522 172 q 580 263 568 226 q 592 340 592 299 q 580 419 592 382 q 545 485 568 457 q 489 528 522 513 q 411 544 456 544 q 333 529 367 544 q 277 487 300 514 q 242 423 254 460 q 231 344 231 386 q 242 266 231 303 q 276 201 254 229 z "},"รฑ":{"ha":817,"x_min":96,"x_max":728,"o":"m 265 82 q 242 24 265 47 q 181 0 218 0 q 121 23 146 0 q 96 82 96 46 l 96 633 q 117 683 96 660 q 182 707 138 707 q 246 685 226 707 q 265 635 265 663 l 265 592 q 347 688 292 654 q 474 721 403 721 q 661 645 594 721 q 728 438 728 569 l 728 82 q 703 24 728 47 q 642 0 679 0 q 581 24 606 0 q 557 82 557 47 l 557 378 q 519 517 557 469 q 413 565 481 565 q 304 516 343 565 q 265 374 265 467 l 265 82 m 654 921 q 628 850 654 878 q 583 814 608 826 q 531 801 558 801 q 468 810 494 801 q 419 828 442 818 q 376 848 397 839 q 329 857 356 857 q 288 847 304 857 q 260 822 272 838 q 240 806 251 813 q 208 800 228 800 q 169 817 183 800 q 154 860 154 835 q 160 888 154 871 q 179 921 165 906 q 231 965 201 947 q 310 983 261 983 q 367 976 343 983 q 411 958 390 968 q 452 941 432 949 q 497 933 472 933 q 528 940 515 933 q 554 963 540 946 q 572 980 561 972 q 597 988 582 988 q 638 969 621 988 q 654 921 654 950 z "},"รฒ":{"ha":822,"x_min":56,"x_max":767,"o":"m 267 14 q 155 92 201 43 q 82 208 108 142 q 56 353 56 275 q 82 498 56 431 q 155 615 108 565 q 267 692 201 664 q 411 721 332 721 q 554 692 489 721 q 667 615 619 664 q 740 498 714 565 q 767 353 767 431 q 740 208 767 275 q 667 92 714 142 q 554 15 619 43 q 411 -14 489 -14 q 267 14 332 -14 m 276 204 q 333 158 300 175 q 411 140 367 140 q 489 157 456 140 q 545 203 522 174 q 580 270 568 232 q 592 351 592 308 q 580 435 592 396 q 545 503 568 474 q 489 549 522 532 q 411 565 456 565 q 333 549 367 565 q 277 505 300 533 q 242 438 254 476 q 231 356 231 400 q 242 274 231 313 q 276 204 254 235 m 294 896 q 265 956 265 915 q 288 1006 265 983 q 339 1028 310 1028 q 372 1019 357 1028 q 397 1000 386 1011 l 543 860 q 567 813 567 838 q 552 776 567 793 q 514 758 538 758 q 479 772 501 758 l 294 896 z "},"รณ":{"ha":822,"x_min":56,"x_max":767,"o":"m 267 14 q 155 92 201 43 q 82 208 108 142 q 56 353 56 275 q 82 498 56 431 q 155 615 108 565 q 267 692 201 664 q 411 721 332 721 q 554 692 489 721 q 667 615 619 664 q 740 498 714 565 q 767 353 767 431 q 740 208 767 275 q 667 92 714 142 q 554 15 619 43 q 411 -14 489 -14 q 267 14 332 -14 m 276 204 q 333 158 300 175 q 411 140 367 140 q 489 157 456 140 q 545 203 522 174 q 580 270 568 232 q 592 351 592 308 q 580 435 592 396 q 545 503 568 474 q 489 549 522 532 q 411 565 456 565 q 333 549 367 565 q 277 505 300 533 q 242 438 254 476 q 231 356 231 400 q 242 274 231 313 q 276 204 254 235 m 351 772 q 317 758 332 758 q 279 776 293 758 q 265 813 265 793 q 288 860 265 838 l 433 1000 q 459 1019 444 1011 q 492 1028 474 1028 q 544 1006 521 1028 q 567 956 567 983 q 536 896 567 917 l 351 772 z "},"รด":{"ha":822,"x_min":56,"x_max":767,"o":"m 267 14 q 155 92 201 43 q 82 208 108 142 q 56 353 56 275 q 82 498 56 431 q 155 615 108 565 q 267 692 201 664 q 411 721 332 721 q 554 692 489 721 q 667 615 619 664 q 740 498 714 565 q 767 353 767 431 q 740 208 767 275 q 667 92 714 142 q 554 15 619 43 q 411 -14 489 -14 q 267 14 332 -14 m 276 204 q 333 158 300 175 q 411 140 367 140 q 489 157 456 140 q 545 203 522 174 q 580 270 568 232 q 592 351 592 308 q 580 435 592 396 q 545 503 568 474 q 489 549 522 532 q 411 565 456 565 q 333 549 367 565 q 277 505 300 533 q 242 438 254 476 q 231 356 231 400 q 242 274 231 313 q 276 204 254 235 m 275 771 q 255 761 263 764 q 242 758 247 758 q 209 774 222 758 q 196 804 196 789 q 201 826 196 815 q 218 847 207 836 l 369 1004 q 390 1022 379 1015 q 419 1028 401 1028 q 448 1021 436 1028 q 469 1004 460 1014 l 618 847 q 635 826 629 836 q 640 804 640 815 q 628 774 640 789 q 596 758 615 758 q 581 760 589 758 q 561 771 574 763 l 418 874 l 275 771 z "},"รต":{"ha":822,"x_min":56,"x_max":767,"o":"m 267 14 q 155 92 201 43 q 82 208 108 142 q 56 353 56 275 q 82 498 56 431 q 155 615 108 565 q 267 692 201 664 q 411 721 332 721 q 554 692 489 721 q 667 615 619 664 q 740 498 714 565 q 767 353 767 431 q 740 208 767 275 q 667 92 714 142 q 554 15 619 43 q 411 -14 489 -14 q 267 14 332 -14 m 276 204 q 333 158 300 175 q 411 140 367 140 q 489 157 456 140 q 545 203 522 174 q 580 270 568 232 q 592 351 592 308 q 580 435 592 396 q 545 503 568 474 q 489 549 522 532 q 411 565 456 565 q 333 549 367 565 q 277 505 300 533 q 242 438 254 476 q 231 356 231 400 q 242 274 231 313 q 276 204 254 235 m 657 921 q 631 850 657 878 q 586 814 611 826 q 533 801 561 801 q 471 810 497 801 q 422 828 444 818 q 379 848 400 839 q 332 857 358 857 q 291 847 307 857 q 263 822 275 838 q 242 806 254 813 q 211 800 231 800 q 172 817 186 800 q 157 860 157 835 q 163 888 157 871 q 182 921 168 906 q 234 965 204 947 q 313 983 264 983 q 369 976 346 983 q 414 958 393 968 q 455 941 435 949 q 500 933 475 933 q 531 940 518 933 q 557 963 543 946 q 574 980 564 972 q 600 988 585 988 q 640 969 624 988 q 657 921 657 950 z "},"รถ":{"ha":822,"x_min":56,"x_max":767,"o":"m 267 14 q 155 92 201 43 q 82 208 108 142 q 56 353 56 275 q 82 498 56 431 q 155 615 108 565 q 267 692 201 664 q 411 721 332 721 q 554 692 489 721 q 667 615 619 664 q 740 498 714 565 q 767 353 767 431 q 740 208 767 275 q 667 92 714 142 q 554 15 619 43 q 411 -14 489 -14 q 267 14 332 -14 m 276 204 q 333 158 300 175 q 411 140 367 140 q 489 157 456 140 q 545 203 522 174 q 580 270 568 232 q 592 351 592 308 q 580 435 592 396 q 545 503 568 474 q 489 549 522 532 q 411 565 456 565 q 333 549 367 565 q 277 505 300 533 q 242 438 254 476 q 231 356 231 400 q 242 274 231 313 q 276 204 254 235 m 236 818 q 214 879 214 839 q 235 939 214 917 q 294 961 257 961 q 351 939 328 961 q 375 879 375 917 q 352 818 375 838 q 294 799 329 799 q 236 818 258 799 m 468 819 q 447 881 447 840 q 469 940 447 918 q 526 961 490 961 q 585 940 561 961 q 608 881 608 918 q 585 819 608 838 q 526 800 561 800 q 468 819 490 800 z "},"รท":{"ha":872,"x_min":154,"x_max":717,"o":"m 219 375 q 173 393 192 375 q 154 439 154 411 q 173 484 154 467 q 219 501 192 501 l 653 501 q 699 483 681 501 q 717 438 717 465 q 699 392 717 410 q 653 375 681 375 l 219 375 m 354 108 q 326 185 326 135 q 354 261 326 233 q 429 289 382 289 q 503 262 472 289 q 533 186 533 235 q 503 108 533 133 q 429 83 474 83 q 354 108 383 83 m 354 603 q 326 679 326 629 q 354 756 326 728 q 429 783 382 783 q 503 756 472 783 q 533 681 533 729 q 503 603 533 628 q 429 578 474 578 q 354 603 383 578 z "},"รธ":{"ha":822,"x_min":56,"x_max":767,"o":"m 151 94 q 81 210 106 143 q 56 353 56 276 q 82 498 56 431 q 155 615 108 565 q 267 692 201 664 q 411 721 332 721 q 567 686 494 721 l 571 692 q 597 715 583 710 q 624 721 610 721 q 668 703 651 721 q 685 663 685 686 q 681 640 685 649 q 674 625 678 632 l 667 615 q 740 499 714 565 q 767 353 767 432 q 740 208 767 275 q 667 92 714 142 q 554 15 619 43 q 411 -14 489 -14 q 326 -4 367 -14 q 250 22 286 6 l 246 17 q 218 -8 232 -1 q 192 -14 204 -14 q 149 2 167 -14 q 131 43 131 18 q 135 67 131 58 q 143 83 140 76 l 151 94 m 342 153 q 411 140 372 140 q 489 157 456 140 q 545 203 522 174 q 580 270 568 232 q 592 351 592 308 q 585 415 592 385 q 565 471 579 446 l 342 153 m 474 554 q 411 565 444 565 q 333 549 367 565 q 277 505 300 533 q 242 438 254 476 q 231 356 231 400 q 236 295 231 324 q 254 242 242 267 l 474 554 z "},"รน":{"ha":783,"x_min":90,"x_max":693,"o":"m 261 294 q 294 182 261 224 q 392 140 326 140 q 491 182 458 140 q 524 294 524 224 l 524 624 q 548 683 524 660 q 608 707 572 707 q 669 683 644 707 q 693 624 693 660 l 693 299 q 672 172 693 229 q 613 74 651 115 q 518 9 574 32 q 392 -14 463 -14 q 266 9 322 -14 q 171 74 210 32 q 111 172 132 115 q 90 299 90 229 l 90 624 q 115 683 90 660 q 175 707 139 707 q 236 683 211 707 q 261 624 261 660 l 261 294 m 247 896 q 218 956 218 915 q 240 1006 218 983 q 292 1028 263 1028 q 324 1019 310 1028 q 350 1000 339 1011 l 496 860 q 519 813 519 838 q 505 776 519 793 q 467 758 490 758 q 432 772 454 758 l 247 896 z "},"รบ":{"ha":783,"x_min":90,"x_max":693,"o":"m 261 294 q 294 182 261 224 q 392 140 326 140 q 491 182 458 140 q 524 294 524 224 l 524 624 q 548 683 524 660 q 608 707 572 707 q 669 683 644 707 q 693 624 693 660 l 693 299 q 672 172 693 229 q 613 74 651 115 q 518 9 574 32 q 392 -14 463 -14 q 266 9 322 -14 q 171 74 210 32 q 111 172 132 115 q 90 299 90 229 l 90 624 q 115 683 90 660 q 175 707 139 707 q 236 683 211 707 q 261 624 261 660 l 261 294 m 360 772 q 325 758 340 758 q 288 776 301 758 q 274 813 274 793 q 296 860 274 838 l 442 1000 q 467 1019 453 1011 q 500 1028 482 1028 q 552 1006 529 1028 q 575 956 575 983 q 544 896 575 917 l 360 772 z "},"รป":{"ha":783,"x_min":90,"x_max":693,"o":"m 261 294 q 294 182 261 224 q 392 140 326 140 q 491 182 458 140 q 524 294 524 224 l 524 624 q 548 683 524 660 q 608 707 572 707 q 669 683 644 707 q 693 624 693 660 l 693 299 q 672 172 693 229 q 613 74 651 115 q 518 9 574 32 q 392 -14 463 -14 q 266 9 322 -14 q 171 74 210 32 q 111 172 132 115 q 90 299 90 229 l 90 624 q 115 683 90 660 q 175 707 139 707 q 236 683 211 707 q 261 624 261 660 l 261 294 m 256 771 q 235 761 243 764 q 222 758 228 758 q 190 774 203 758 q 176 804 176 789 q 182 826 176 815 q 199 847 188 836 l 350 1004 q 371 1022 360 1015 q 400 1028 382 1028 q 428 1021 417 1028 q 450 1004 440 1014 l 599 847 q 615 826 610 836 q 621 804 621 815 q 608 774 621 789 q 576 758 596 758 q 562 760 569 758 q 542 771 554 763 l 399 874 l 256 771 z "},"รผ":{"ha":783,"x_min":90,"x_max":693,"o":"m 261 294 q 294 182 261 224 q 392 140 326 140 q 491 182 458 140 q 524 294 524 224 l 524 624 q 548 683 524 660 q 608 707 572 707 q 669 683 644 707 q 693 624 693 660 l 693 299 q 672 172 693 229 q 613 74 651 115 q 518 9 574 32 q 392 -14 463 -14 q 266 9 322 -14 q 171 74 210 32 q 111 172 132 115 q 90 299 90 229 l 90 624 q 115 683 90 660 q 175 707 139 707 q 236 683 211 707 q 261 624 261 660 l 261 294 m 217 818 q 194 879 194 839 q 216 939 194 917 q 275 961 238 961 q 332 939 308 961 q 356 879 356 917 q 333 818 356 838 q 275 799 310 799 q 217 818 239 799 m 449 819 q 428 881 428 840 q 449 940 428 918 q 507 961 471 961 q 565 940 542 961 q 589 881 589 918 q 565 819 589 838 q 507 800 542 800 q 449 819 471 800 z "},"รฝ":{"ha":729,"x_min":33,"x_max":690,"o":"m 429 -28 q 371 -140 401 -94 q 306 -213 340 -186 q 232 -252 272 -240 q 146 -264 192 -264 q 68 -244 93 -264 q 43 -189 43 -225 q 64 -132 43 -154 q 125 -110 85 -110 q 221 -87 188 -110 q 271 -21 254 -65 l 279 1 l 43 576 q 35 601 38 589 q 33 624 33 614 q 61 684 33 661 q 126 707 89 707 q 173 692 154 707 q 201 654 192 678 l 361 208 l 535 651 q 560 690 544 674 q 607 707 576 707 q 666 685 642 707 q 690 628 690 664 q 686 597 690 613 q 678 572 682 582 l 429 -28 m 304 772 q 269 758 285 758 q 232 776 246 758 q 218 813 218 793 q 240 860 218 838 l 386 1000 q 412 1019 397 1011 q 444 1028 426 1028 q 497 1006 474 1028 q 519 956 519 983 q 489 896 519 917 l 304 772 z "},"รพ":{"ha":863,"x_min":96,"x_max":808,"o":"m 265 -182 q 242 -241 265 -218 q 182 -264 218 -264 q 121 -241 146 -264 q 96 -182 96 -218 l 96 888 q 117 935 96 911 q 182 958 138 958 q 246 937 226 958 q 265 886 265 915 l 265 579 q 351 679 297 638 q 492 721 404 721 q 621 694 563 721 q 721 618 679 667 q 785 501 763 569 q 808 353 808 433 q 785 206 808 274 q 719 90 761 139 q 617 14 676 42 q 485 -14 557 -14 q 349 26 404 -14 q 265 129 293 67 l 265 -182 m 314 201 q 373 157 339 174 q 450 140 407 140 q 527 157 493 140 q 585 203 561 174 q 621 271 608 232 q 633 353 633 310 q 621 436 633 397 q 585 503 608 475 q 527 549 561 532 q 450 565 493 565 q 373 549 407 565 q 315 503 339 532 q 278 435 290 474 q 265 353 265 396 q 278 269 265 308 q 314 201 290 231 z "},"รฟ":{"ha":729,"x_min":33,"x_max":690,"o":"m 429 -28 q 371 -140 401 -94 q 306 -213 340 -186 q 232 -252 272 -240 q 146 -264 192 -264 q 68 -244 93 -264 q 43 -189 43 -225 q 64 -132 43 -154 q 125 -110 85 -110 q 221 -87 188 -110 q 271 -21 254 -65 l 279 1 l 43 576 q 35 601 38 589 q 33 624 33 614 q 61 684 33 661 q 126 707 89 707 q 173 692 154 707 q 201 654 192 678 l 361 208 l 535 651 q 560 690 544 674 q 607 707 576 707 q 666 685 642 707 q 690 628 690 664 q 686 597 690 613 q 678 572 682 582 l 429 -28 m 189 818 q 167 879 167 839 q 188 939 167 917 q 247 961 210 961 q 304 939 281 961 q 328 879 328 917 q 305 818 328 838 q 247 799 282 799 q 189 818 211 799 m 421 819 q 400 881 400 840 q 422 940 400 918 q 479 961 443 961 q 538 940 514 961 q 561 881 561 918 q 538 819 561 838 q 479 800 514 800 q 421 819 443 800 z "},"ฤ":{"ha":958,"x_min":47,"x_max":911,"o":"m 214 54 q 182 12 201 24 q 133 0 163 0 q 71 21 94 0 q 47 76 47 42 q 51 105 47 92 q 63 138 54 118 l 379 882 q 418 938 394 918 q 479 958 442 958 q 541 938 517 958 q 581 882 565 918 l 897 138 q 911 85 911 106 q 885 23 911 46 q 819 0 858 0 q 767 16 788 0 q 733 67 747 32 l 675 215 l 278 215 l 214 54 m 335 360 l 618 360 l 476 718 l 335 360 m 336 1118 q 290 1139 308 1118 q 271 1188 271 1160 q 290 1235 271 1215 q 336 1256 308 1256 l 622 1256 q 668 1235 650 1256 q 686 1188 686 1215 q 668 1139 686 1160 q 622 1118 650 1118 l 336 1118 z "},"ฤ":{"ha":869,"x_min":54,"x_max":846,"o":"m 596 139 q 502 26 563 65 q 360 -14 442 -14 q 242 12 297 -14 q 144 85 186 38 q 78 199 103 132 q 54 350 54 267 q 80 502 54 433 q 149 619 106 571 q 251 694 193 668 q 372 721 308 721 q 512 683 458 721 q 596 579 565 644 l 596 635 q 619 687 596 667 q 682 707 643 707 q 744 687 721 707 q 767 635 767 667 l 767 217 q 801 154 767 154 q 834 137 822 154 q 846 88 846 119 q 739 0 846 0 q 638 37 669 0 q 597 122 606 74 l 596 139 m 282 197 q 340 155 307 169 q 413 140 374 140 q 484 155 450 140 q 543 197 518 169 q 583 263 568 224 q 597 350 597 301 q 547 506 597 447 q 413 565 496 565 q 278 506 326 565 q 229 350 229 446 q 243 263 229 301 q 282 197 257 225 m 290 840 q 244 861 263 840 q 225 910 225 882 q 244 958 225 938 q 290 978 263 978 l 576 978 q 622 958 604 978 q 640 910 640 938 q 622 861 640 882 q 576 840 604 840 l 290 840 z "},"ฤ":{"ha":958,"x_min":47,"x_max":911,"o":"m 214 54 q 182 12 201 24 q 133 0 163 0 q 71 21 94 0 q 47 76 47 42 q 51 105 47 92 q 63 138 54 118 l 379 882 q 418 938 394 918 q 479 958 442 958 q 541 938 517 958 q 581 882 565 918 l 897 138 q 911 85 911 106 q 885 23 911 46 q 819 0 858 0 q 767 16 788 0 q 733 67 747 32 l 675 215 l 278 215 l 214 54 m 335 360 l 618 360 l 476 718 l 335 360 m 529 1186 q 564 1243 550 1203 q 618 1286 575 1286 q 660 1269 647 1286 q 674 1231 674 1251 q 658 1163 674 1194 q 614 1107 642 1131 q 550 1069 586 1083 q 474 1056 514 1056 q 398 1069 433 1056 q 335 1107 363 1083 q 293 1163 308 1131 q 278 1231 278 1194 q 291 1269 278 1251 q 332 1286 304 1286 q 388 1243 374 1286 q 422 1187 400 1203 q 475 1171 443 1171 q 529 1186 508 1171 z "},"ฤ":{"ha":869,"x_min":54,"x_max":846,"o":"m 596 139 q 502 26 563 65 q 360 -14 442 -14 q 242 12 297 -14 q 144 85 186 38 q 78 199 103 132 q 54 350 54 267 q 80 502 54 433 q 149 619 106 571 q 251 694 193 668 q 372 721 308 721 q 512 683 458 721 q 596 579 565 644 l 596 635 q 619 687 596 667 q 682 707 643 707 q 744 687 721 707 q 767 635 767 667 l 767 217 q 801 154 767 154 q 834 137 822 154 q 846 88 846 119 q 739 0 846 0 q 638 37 669 0 q 597 122 606 74 l 596 139 m 282 197 q 340 155 307 169 q 413 140 374 140 q 484 155 450 140 q 543 197 518 169 q 583 263 568 224 q 597 350 597 301 q 547 506 597 447 q 413 565 496 565 q 278 506 326 565 q 229 350 229 446 q 243 263 229 301 q 282 197 257 225 m 483 908 q 518 965 504 925 q 572 1008 529 1008 q 615 991 601 1008 q 628 953 628 974 q 612 885 628 917 q 568 829 596 853 q 504 792 540 806 q 428 778 468 778 q 352 792 388 778 q 290 829 317 806 q 247 885 263 853 q 232 953 232 917 q 245 991 232 974 q 286 1008 258 1008 q 342 965 328 1008 q 376 909 354 925 q 429 893 397 893 q 483 908 463 893 z "},"ฤ":{"ha":958,"x_min":47,"x_max":911,"o":"m 214 54 q 182 12 201 24 q 133 0 163 0 q 71 21 94 0 q 47 76 47 42 q 51 105 47 92 q 63 138 54 118 l 379 882 q 418 938 394 918 q 479 958 442 958 q 541 938 517 958 q 581 882 565 918 l 897 138 q 911 85 911 106 q 890 28 911 50 q 838 1 869 7 q 780 -61 799 -28 q 761 -122 761 -94 q 775 -161 761 -144 q 821 -181 789 -178 q 885 -236 885 -185 q 860 -281 885 -268 q 794 -294 835 -294 q 685 -262 731 -294 q 640 -161 640 -229 q 676 -58 640 -104 q 763 19 713 -11 q 733 67 743 36 l 675 215 l 278 215 l 214 54 m 335 360 l 618 360 l 476 718 l 335 360 z "},"ฤ":{"ha":869,"x_min":54,"x_max":846,"o":"m 596 139 q 502 26 563 65 q 360 -14 442 -14 q 242 12 297 -14 q 144 85 186 38 q 78 199 103 132 q 54 350 54 267 q 80 502 54 433 q 149 619 106 571 q 251 694 193 668 q 372 721 308 721 q 512 683 458 721 q 596 579 565 644 l 596 635 q 619 687 596 667 q 682 707 643 707 q 744 687 721 707 q 767 635 767 667 l 767 217 q 801 154 767 154 q 834 137 822 154 q 846 88 846 119 q 771 3 846 15 q 711 -60 731 -26 q 692 -122 692 -94 q 706 -161 692 -144 q 753 -181 721 -178 q 815 -236 815 -185 q 791 -281 815 -268 q 726 -294 767 -294 q 617 -262 663 -294 q 571 -161 571 -229 q 602 -65 571 -108 q 678 10 633 -22 q 623 56 642 25 q 597 122 604 86 l 596 139 m 282 197 q 340 155 307 169 q 413 140 374 140 q 484 155 450 140 q 543 197 518 169 q 583 263 568 224 q 597 350 597 301 q 547 506 597 447 q 413 565 496 565 q 278 506 326 565 q 229 350 229 446 q 243 263 229 301 q 282 197 257 225 z "},"ฤ":{"ha":956,"x_min":68,"x_max":894,"o":"m 660 188 q 760 275 711 218 q 817 300 783 300 q 871 274 850 300 q 892 221 892 247 q 886 186 892 204 q 865 149 881 168 q 815 97 846 125 q 742 44 785 68 q 644 3 700 19 q 518 -14 588 -14 q 335 21 418 -14 q 193 120 253 56 q 101 275 133 185 q 68 476 68 365 q 101 678 68 586 q 193 835 133 769 q 335 936 253 900 q 518 972 418 972 q 656 953 596 972 q 760 906 717 933 q 832 851 804 879 q 872 804 860 822 q 889 767 883 786 q 894 733 894 749 q 887 697 894 713 q 867 670 879 681 q 840 655 854 660 q 813 650 825 650 q 781 655 797 650 q 751 675 765 660 q 704 726 728 703 q 653 765 681 749 q 594 792 626 782 q 518 801 561 801 q 406 778 456 801 q 320 711 356 754 q 266 608 285 668 q 247 475 247 547 q 267 346 247 404 q 322 246 286 288 q 412 181 358 204 q 532 157 465 157 q 660 188 608 157 m 456 1050 q 421 1036 436 1036 q 383 1053 397 1036 q 369 1090 369 1071 q 392 1138 369 1115 l 538 1278 q 563 1297 549 1289 q 596 1306 578 1306 q 648 1283 625 1306 q 671 1233 671 1261 q 640 1174 671 1194 l 456 1050 z "},"ฤ":{"ha":736,"x_min":54,"x_max":689,"o":"m 681 165 q 651 93 681 122 q 611 54 635 74 q 557 19 588 35 q 488 -5 526 4 q 400 -14 449 -14 q 257 15 321 -14 q 148 92 193 43 q 78 209 103 142 q 54 354 54 276 q 81 499 54 432 q 153 615 107 565 q 262 692 199 664 q 400 721 325 721 q 551 692 483 721 q 663 604 618 663 q 689 536 689 569 q 665 478 689 496 q 615 461 640 461 q 578 469 592 461 q 554 488 564 478 q 533 509 546 496 q 502 535 521 522 q 459 556 483 547 q 401 565 435 565 q 328 548 360 565 q 274 501 296 531 q 240 433 251 471 q 229 353 229 394 q 240 273 229 311 q 274 205 251 235 q 327 158 296 175 q 400 140 358 140 q 481 160 444 140 q 550 213 517 181 q 581 233 567 228 q 606 238 596 238 q 656 219 631 238 q 681 165 681 201 m 335 772 q 300 758 315 758 q 263 776 276 758 q 249 813 249 793 q 271 860 249 838 l 417 1000 q 442 1019 428 1011 q 475 1028 457 1028 q 527 1006 504 1028 q 550 956 550 983 q 519 896 550 917 l 335 772 z "},"ฤ":{"ha":956,"x_min":68,"x_max":894,"o":"m 660 188 q 760 275 711 218 q 817 300 783 300 q 871 274 850 300 q 892 221 892 247 q 886 186 892 204 q 865 149 881 168 q 815 97 846 125 q 742 44 785 68 q 644 3 700 19 q 518 -14 588 -14 q 335 21 418 -14 q 193 120 253 56 q 101 275 133 185 q 68 476 68 365 q 101 678 68 586 q 193 835 133 769 q 335 936 253 900 q 518 972 418 972 q 656 953 596 972 q 760 906 717 933 q 832 851 804 879 q 872 804 860 822 q 889 767 883 786 q 894 733 894 749 q 887 697 894 713 q 867 670 879 681 q 840 655 854 660 q 813 650 825 650 q 781 655 797 650 q 751 675 765 660 q 704 726 728 703 q 653 765 681 749 q 594 792 626 782 q 518 801 561 801 q 406 778 456 801 q 320 711 356 754 q 266 608 285 668 q 247 475 247 547 q 267 346 247 404 q 322 246 286 288 q 412 181 358 204 q 532 157 465 157 q 660 188 608 157 m 379 1049 q 359 1039 367 1042 q 346 1036 351 1036 q 313 1051 326 1036 q 300 1082 300 1067 q 306 1103 300 1093 q 322 1125 311 1114 l 474 1282 q 494 1299 483 1293 q 524 1306 506 1306 q 552 1299 540 1306 q 574 1282 564 1292 l 722 1125 q 739 1103 733 1114 q 744 1082 744 1093 q 732 1051 744 1067 q 700 1036 719 1036 q 685 1038 693 1036 q 665 1049 678 1040 l 522 1151 l 379 1049 z "},"ฤ":{"ha":736,"x_min":54,"x_max":689,"o":"m 681 165 q 651 93 681 122 q 611 54 635 74 q 557 19 588 35 q 488 -5 526 4 q 400 -14 449 -14 q 257 15 321 -14 q 148 92 193 43 q 78 209 103 142 q 54 354 54 276 q 81 499 54 432 q 153 615 107 565 q 262 692 199 664 q 400 721 325 721 q 551 692 483 721 q 663 604 618 663 q 689 536 689 569 q 665 478 689 496 q 615 461 640 461 q 578 469 592 461 q 554 488 564 478 q 533 509 546 496 q 502 535 521 522 q 459 556 483 547 q 401 565 435 565 q 328 548 360 565 q 274 501 296 531 q 240 433 251 471 q 229 353 229 394 q 240 273 229 311 q 274 205 251 235 q 327 158 296 175 q 400 140 358 140 q 481 160 444 140 q 550 213 517 181 q 581 233 567 228 q 606 238 596 238 q 656 219 631 238 q 681 165 681 201 m 258 771 q 238 761 246 764 q 225 758 231 758 q 192 774 206 758 q 179 804 179 789 q 185 826 179 815 q 201 847 190 836 l 353 1004 q 374 1022 363 1015 q 403 1028 385 1028 q 431 1021 419 1028 q 453 1004 443 1014 l 601 847 q 618 826 613 836 q 624 804 624 815 q 611 774 624 789 q 579 758 599 758 q 565 760 572 758 q 544 771 557 763 l 401 874 l 258 771 z "},"ฤ":{"ha":956,"x_min":68,"x_max":894,"o":"m 660 188 q 760 275 711 218 q 817 300 783 300 q 871 274 850 300 q 892 221 892 247 q 886 186 892 204 q 865 149 881 168 q 815 97 846 125 q 742 44 785 68 q 644 3 700 19 q 518 -14 588 -14 q 335 21 418 -14 q 193 120 253 56 q 101 275 133 185 q 68 476 68 365 q 101 678 68 586 q 193 835 133 769 q 335 936 253 900 q 518 972 418 972 q 656 953 596 972 q 760 906 717 933 q 832 851 804 879 q 872 804 860 822 q 889 767 883 786 q 894 733 894 749 q 887 697 894 713 q 867 670 879 681 q 840 655 854 660 q 813 650 825 650 q 781 655 797 650 q 751 675 765 660 q 704 726 728 703 q 653 765 681 749 q 594 792 626 782 q 518 801 561 801 q 406 778 456 801 q 320 711 356 754 q 266 608 285 668 q 247 475 247 547 q 267 346 247 404 q 322 246 286 288 q 412 181 358 204 q 532 157 465 157 q 660 188 608 157 m 442 1113 q 414 1186 414 1138 q 442 1260 414 1233 q 514 1288 469 1288 q 588 1261 558 1288 q 617 1186 617 1235 q 587 1110 617 1133 q 514 1088 557 1088 q 442 1113 471 1088 z "},"ฤ":{"ha":736,"x_min":54,"x_max":689,"o":"m 681 165 q 651 93 681 122 q 611 54 635 74 q 557 19 588 35 q 488 -5 526 4 q 400 -14 449 -14 q 257 15 321 -14 q 148 92 193 43 q 78 209 103 142 q 54 354 54 276 q 81 499 54 432 q 153 615 107 565 q 262 692 199 664 q 400 721 325 721 q 551 692 483 721 q 663 604 618 663 q 689 536 689 569 q 665 478 689 496 q 615 461 640 461 q 578 469 592 461 q 554 488 564 478 q 533 509 546 496 q 502 535 521 522 q 459 556 483 547 q 401 565 435 565 q 328 548 360 565 q 274 501 296 531 q 240 433 251 471 q 229 353 229 394 q 240 273 229 311 q 274 205 251 235 q 327 158 296 175 q 400 140 358 140 q 481 160 444 140 q 550 213 517 181 q 581 233 567 228 q 606 238 596 238 q 656 219 631 238 q 681 165 681 201 m 329 835 q 301 908 301 860 q 329 983 301 956 q 401 1010 357 1010 q 475 983 446 1010 q 504 908 504 957 q 474 833 504 856 q 401 810 444 810 q 329 835 358 810 z "},"ฤ":{"ha":956,"x_min":68,"x_max":894,"o":"m 660 188 q 760 275 711 218 q 817 300 783 300 q 871 274 850 300 q 892 221 892 247 q 886 186 892 204 q 865 149 881 168 q 815 97 846 125 q 742 44 785 68 q 644 3 700 19 q 518 -14 588 -14 q 335 21 418 -14 q 193 120 253 56 q 101 275 133 185 q 68 476 68 365 q 101 678 68 586 q 193 835 133 769 q 335 936 253 900 q 518 972 418 972 q 656 953 596 972 q 760 906 717 933 q 832 851 804 879 q 872 804 860 822 q 889 767 883 786 q 894 733 894 749 q 887 697 894 713 q 867 670 879 681 q 840 655 854 660 q 813 650 825 650 q 781 655 797 650 q 751 675 765 660 q 704 726 728 703 q 653 765 681 749 q 594 792 626 782 q 518 801 561 801 q 406 778 456 801 q 320 711 356 754 q 266 608 285 668 q 247 475 247 547 q 267 346 247 404 q 322 246 286 288 q 412 181 358 204 q 532 157 465 157 q 660 188 608 157 m 322 1217 q 306 1238 311 1228 q 300 1260 300 1249 q 313 1290 300 1275 q 346 1306 326 1306 q 359 1303 351 1306 q 379 1293 367 1300 l 522 1190 l 665 1293 q 685 1303 678 1301 q 700 1306 693 1306 q 732 1290 719 1306 q 744 1260 744 1275 q 739 1238 744 1249 q 722 1217 733 1228 l 574 1060 q 552 1043 564 1050 q 524 1036 540 1036 q 494 1042 506 1036 q 474 1060 483 1049 l 322 1217 z "},"ฤ":{"ha":736,"x_min":54,"x_max":689,"o":"m 681 165 q 651 93 681 122 q 611 54 635 74 q 557 19 588 35 q 488 -5 526 4 q 400 -14 449 -14 q 257 15 321 -14 q 148 92 193 43 q 78 209 103 142 q 54 354 54 276 q 81 499 54 432 q 153 615 107 565 q 262 692 199 664 q 400 721 325 721 q 551 692 483 721 q 663 604 618 663 q 689 536 689 569 q 665 478 689 496 q 615 461 640 461 q 578 469 592 461 q 554 488 564 478 q 533 509 546 496 q 502 535 521 522 q 459 556 483 547 q 401 565 435 565 q 328 548 360 565 q 274 501 296 531 q 240 433 251 471 q 229 353 229 394 q 240 273 229 311 q 274 205 251 235 q 327 158 296 175 q 400 140 358 140 q 481 160 444 140 q 550 213 517 181 q 581 233 567 228 q 606 238 596 238 q 656 219 631 238 q 681 165 681 201 m 201 939 q 185 960 190 950 q 179 982 179 971 q 192 1013 179 997 q 225 1028 206 1028 q 238 1025 231 1028 q 258 1015 246 1022 l 401 913 l 544 1015 q 565 1026 557 1024 q 579 1028 572 1028 q 611 1013 599 1028 q 624 982 624 997 q 618 960 624 971 q 601 939 613 950 l 453 782 q 431 765 443 772 q 403 758 419 758 q 374 765 385 758 q 353 782 363 771 l 201 939 z "},"ฤ":{"ha":965,"x_min":106,"x_max":897,"o":"m 193 0 q 126 24 146 0 q 106 88 106 47 l 106 871 q 127 935 106 911 q 194 958 149 958 l 465 958 q 642 924 563 958 q 779 828 722 890 q 867 678 836 765 q 897 483 897 590 q 865 289 897 378 q 776 136 833 200 q 640 36 719 72 q 465 0 561 0 l 193 0 m 281 154 l 454 154 q 567 178 518 154 q 650 244 617 201 q 701 348 683 288 q 718 483 718 408 q 649 718 718 633 q 447 803 579 803 l 281 803 l 281 154 m 219 1217 q 203 1238 208 1228 q 197 1260 197 1249 q 210 1290 197 1275 q 243 1306 224 1306 q 256 1303 249 1306 q 276 1293 264 1300 l 419 1190 l 563 1293 q 583 1303 575 1301 q 597 1306 590 1306 q 629 1290 617 1306 q 642 1260 642 1275 q 636 1238 642 1249 q 619 1217 631 1228 l 471 1060 q 449 1043 461 1050 q 421 1036 438 1036 q 392 1042 403 1036 q 371 1060 381 1049 l 219 1217 z "},"ฤ":{"ha":960,"x_min":54,"x_max":1013,"o":"m 767 89 q 743 21 767 42 q 679 0 719 0 q 617 24 638 0 q 596 82 596 49 l 596 139 q 504 26 561 67 q 365 -14 447 -14 q 247 10 303 -14 q 147 82 190 35 q 79 197 104 129 q 54 350 54 264 q 80 505 54 436 q 150 622 106 574 q 253 695 194 669 q 376 721 311 721 q 517 681 465 721 q 596 579 568 642 l 596 875 q 621 935 596 911 q 682 958 646 958 q 742 935 718 958 q 767 875 767 911 l 767 89 m 282 197 q 340 156 307 171 q 413 140 374 140 q 484 155 450 140 q 543 197 518 169 q 583 263 568 224 q 597 351 597 303 q 545 507 597 449 q 413 565 493 565 q 278 506 326 565 q 229 351 229 447 q 243 264 229 303 q 282 197 257 225 m 886 817 q 904 867 904 839 q 847 896 864 874 q 831 947 831 918 q 856 1015 831 990 q 915 1039 882 1039 q 984 1008 956 1039 q 1013 918 1013 978 q 996 817 1013 858 q 956 751 979 776 q 906 714 932 725 q 858 703 879 703 q 823 714 835 703 q 811 743 811 725 q 818 767 811 756 q 838 785 825 779 q 886 817 869 796 z "},"ฤ":{"ha":965,"x_min":-11,"x_max":897,"o":"m 193 0 q 126 24 146 0 q 106 88 106 47 l 106 415 l 75 415 q 14 438 39 415 q -11 499 -11 460 q 14 560 -11 539 q 75 582 39 582 l 106 582 l 106 871 q 127 935 106 911 q 194 958 149 958 l 465 958 q 642 924 563 958 q 779 828 722 890 q 867 678 836 765 q 897 483 897 590 q 865 289 897 378 q 776 136 833 200 q 640 36 719 72 q 465 0 561 0 l 193 0 m 281 154 l 454 154 q 567 178 518 154 q 650 244 617 201 q 701 348 683 288 q 718 483 718 408 q 649 718 718 633 q 447 803 579 803 l 281 803 l 281 582 l 397 582 q 459 560 433 582 q 485 499 485 539 q 459 438 485 460 q 397 415 433 415 l 281 415 l 281 154 z "},"ฤ":{"ha":863,"x_min":54,"x_max":850,"o":"m 767 89 q 743 21 767 42 q 679 0 719 0 q 617 24 638 0 q 596 82 596 49 l 596 139 q 504 26 561 67 q 365 -14 447 -14 q 247 10 303 -14 q 147 82 190 35 q 79 197 104 129 q 54 350 54 264 q 80 505 54 436 q 150 622 106 574 q 253 695 194 669 q 376 721 311 721 q 517 681 465 721 q 596 579 568 642 l 596 761 l 514 761 q 467 781 486 761 q 449 829 449 801 q 467 878 449 857 q 514 899 486 899 l 599 899 q 628 942 606 926 q 682 958 651 958 q 735 942 713 958 q 764 899 757 926 l 786 899 q 832 878 814 899 q 850 829 850 857 q 832 781 850 801 q 786 761 814 761 l 767 761 l 767 89 m 282 197 q 340 156 307 171 q 413 140 374 140 q 484 155 450 140 q 543 197 518 169 q 583 263 568 224 q 597 351 597 303 q 545 507 597 449 q 413 565 493 565 q 278 506 326 565 q 229 351 229 447 q 243 264 229 303 q 282 197 257 225 z "},"ฤ":{"ha":828,"x_min":106,"x_max":781,"o":"m 193 0 q 128 24 151 0 q 106 88 106 49 l 106 871 q 128 934 106 910 q 194 958 151 958 l 699 958 q 758 938 736 958 q 781 881 781 917 q 758 824 781 844 q 699 803 736 803 l 281 803 l 281 564 l 547 564 q 609 544 585 564 q 633 488 633 524 q 609 431 633 451 q 547 410 585 410 l 281 410 l 281 154 l 700 154 q 759 134 738 154 q 781 78 781 114 q 759 21 781 42 q 700 0 738 0 l 193 0 m 301 1118 q 255 1139 274 1118 q 236 1188 236 1160 q 255 1235 236 1215 q 301 1256 274 1256 l 588 1256 q 633 1235 615 1256 q 651 1188 651 1215 q 633 1139 651 1160 q 588 1118 615 1118 l 301 1118 z "},"ฤ":{"ha":782,"x_min":54,"x_max":721,"o":"m 226 313 q 288 185 238 229 q 415 140 339 140 q 470 147 444 140 q 517 163 496 153 q 553 183 538 172 q 579 200 569 193 q 617 211 604 211 q 670 188 649 211 q 692 135 692 164 q 681 97 692 114 q 656 68 669 79 q 551 10 615 35 q 401 -14 488 -14 q 261 13 325 -14 q 151 89 197 40 q 80 204 106 138 q 54 350 54 271 q 81 494 54 426 q 153 613 107 563 q 264 692 200 663 q 401 721 328 721 q 533 695 474 721 q 633 627 592 669 q 698 529 675 585 q 721 414 721 474 q 706 341 721 369 q 644 313 692 313 l 226 313 m 554 414 q 546 467 556 440 q 516 517 536 494 q 467 552 496 539 q 400 565 438 565 q 288 526 333 565 q 228 414 242 486 l 554 414 m 247 840 q 201 861 219 840 q 182 910 182 882 q 201 958 182 938 q 247 978 219 978 l 533 978 q 579 958 561 978 q 597 910 597 938 q 579 861 597 882 q 533 840 561 840 l 247 840 z "},"ฤ":{"ha":828,"x_min":106,"x_max":781,"o":"m 193 0 q 128 24 151 0 q 106 88 106 49 l 106 871 q 128 934 106 910 q 194 958 151 958 l 699 958 q 758 938 736 958 q 781 881 781 917 q 758 824 781 844 q 699 803 736 803 l 281 803 l 281 564 l 547 564 q 609 544 585 564 q 633 488 633 524 q 609 431 633 451 q 547 410 585 410 l 281 410 l 281 154 l 700 154 q 759 134 738 154 q 781 78 781 114 q 759 21 781 42 q 700 0 738 0 l 193 0 m 494 1186 q 529 1243 515 1203 q 583 1286 540 1286 q 626 1269 613 1286 q 639 1231 639 1251 q 623 1163 639 1194 q 579 1107 607 1131 q 515 1069 551 1083 q 439 1056 479 1056 q 363 1069 399 1056 q 301 1107 328 1083 q 258 1163 274 1131 q 243 1231 243 1194 q 256 1269 243 1251 q 297 1286 269 1286 q 353 1243 339 1286 q 387 1187 365 1203 q 440 1171 408 1171 q 494 1186 474 1171 z "},"ฤ":{"ha":782,"x_min":54,"x_max":721,"o":"m 226 313 q 288 185 238 229 q 415 140 339 140 q 470 147 444 140 q 517 163 496 153 q 553 183 538 172 q 579 200 569 193 q 617 211 604 211 q 670 188 649 211 q 692 135 692 164 q 681 97 692 114 q 656 68 669 79 q 551 10 615 35 q 401 -14 488 -14 q 261 13 325 -14 q 151 89 197 40 q 80 204 106 138 q 54 350 54 271 q 81 494 54 426 q 153 613 107 563 q 264 692 200 663 q 401 721 328 721 q 533 695 474 721 q 633 627 592 669 q 698 529 675 585 q 721 414 721 474 q 706 341 721 369 q 644 313 692 313 l 226 313 m 554 414 q 546 467 556 440 q 516 517 536 494 q 467 552 496 539 q 400 565 438 565 q 288 526 333 565 q 228 414 242 486 l 554 414 m 454 908 q 489 965 475 925 q 543 1008 500 1008 q 585 991 572 1008 q 599 953 599 974 q 583 885 599 917 q 539 829 567 853 q 475 792 511 806 q 399 778 439 778 q 323 792 358 778 q 260 829 288 806 q 218 885 233 853 q 203 953 203 917 q 216 991 203 974 q 257 1008 229 1008 q 313 965 299 1008 q 347 909 325 925 q 400 893 368 893 q 454 908 433 893 z "},"ฤ":{"ha":828,"x_min":106,"x_max":781,"o":"m 193 0 q 128 24 151 0 q 106 88 106 49 l 106 871 q 128 934 106 910 q 194 958 151 958 l 699 958 q 758 938 736 958 q 781 881 781 917 q 758 824 781 844 q 699 803 736 803 l 281 803 l 281 564 l 547 564 q 609 544 585 564 q 633 488 633 524 q 609 431 633 451 q 547 410 585 410 l 281 410 l 281 154 l 700 154 q 759 134 738 154 q 781 78 781 114 q 759 21 781 42 q 700 0 738 0 l 193 0 m 371 1113 q 343 1186 343 1138 q 371 1260 343 1233 q 443 1288 399 1288 q 517 1261 488 1288 q 546 1186 546 1235 q 516 1110 546 1133 q 443 1088 486 1088 q 371 1113 400 1088 z "},"ฤ":{"ha":782,"x_min":54,"x_max":721,"o":"m 226 313 q 288 185 238 229 q 415 140 339 140 q 470 147 444 140 q 517 163 496 153 q 553 183 538 172 q 579 200 569 193 q 617 211 604 211 q 670 188 649 211 q 692 135 692 164 q 681 97 692 114 q 656 68 669 79 q 551 10 615 35 q 401 -14 488 -14 q 261 13 325 -14 q 151 89 197 40 q 80 204 106 138 q 54 350 54 271 q 81 494 54 426 q 153 613 107 563 q 264 692 200 663 q 401 721 328 721 q 533 695 474 721 q 633 627 592 669 q 698 529 675 585 q 721 414 721 474 q 706 341 721 369 q 644 313 692 313 l 226 313 m 554 414 q 546 467 556 440 q 516 517 536 494 q 467 552 496 539 q 400 565 438 565 q 288 526 333 565 q 228 414 242 486 l 554 414 m 328 835 q 300 908 300 860 q 328 983 300 956 q 400 1010 356 1010 q 474 983 444 1010 q 503 908 503 957 q 473 833 503 856 q 400 810 443 810 q 328 835 357 810 z "},"ฤ":{"ha":828,"x_min":106,"x_max":781,"o":"m 193 0 q 128 24 151 0 q 106 88 106 49 l 106 871 q 128 934 106 910 q 194 958 151 958 l 699 958 q 758 938 736 958 q 781 881 781 917 q 758 824 781 844 q 699 803 736 803 l 281 803 l 281 564 l 547 564 q 609 544 585 564 q 633 488 633 524 q 609 431 633 451 q 547 410 585 410 l 281 410 l 281 154 l 700 154 q 759 134 738 154 q 781 78 781 114 q 759 21 781 42 q 700 0 738 0 l 694 0 q 638 -62 657 -29 q 619 -122 619 -94 q 633 -161 619 -144 q 679 -181 647 -178 q 743 -236 743 -185 q 718 -281 743 -268 q 653 -294 693 -294 q 544 -262 589 -294 q 499 -161 499 -229 q 524 -72 499 -112 q 590 0 550 -32 l 193 0 z "},"ฤ":{"ha":782,"x_min":54,"x_max":721,"o":"m 226 313 q 288 185 238 229 q 415 140 339 140 q 470 147 444 140 q 517 163 496 153 q 553 183 538 172 q 579 200 569 193 q 617 211 604 211 q 670 188 649 211 q 692 135 692 164 q 681 97 692 114 q 656 68 669 79 q 622 44 640 56 q 581 22 603 32 q 500 -50 528 -10 q 472 -122 472 -90 q 487 -161 472 -144 q 533 -181 501 -178 q 596 -236 596 -185 q 572 -281 596 -268 q 507 -294 547 -294 q 397 -262 442 -294 q 351 -161 351 -229 q 373 -81 351 -118 q 428 -12 394 -43 q 414 -14 421 -14 l 401 -14 q 261 13 325 -14 q 151 89 197 40 q 80 204 106 138 q 54 350 54 271 q 81 494 54 426 q 153 613 107 563 q 264 692 200 663 q 401 721 328 721 q 533 695 474 721 q 633 627 592 669 q 698 529 675 585 q 721 414 721 474 q 706 341 721 369 q 644 313 692 313 l 226 313 m 554 414 q 546 467 556 440 q 516 517 536 494 q 467 552 496 539 q 400 565 438 565 q 288 526 333 565 q 228 414 242 486 l 554 414 z "},"ฤ":{"ha":828,"x_min":106,"x_max":781,"o":"m 193 0 q 128 24 151 0 q 106 88 106 49 l 106 871 q 128 934 106 910 q 194 958 151 958 l 699 958 q 758 938 736 958 q 781 881 781 917 q 758 824 781 844 q 699 803 736 803 l 281 803 l 281 564 l 547 564 q 609 544 585 564 q 633 488 633 524 q 609 431 633 451 q 547 410 585 410 l 281 410 l 281 154 l 700 154 q 759 134 738 154 q 781 78 781 114 q 759 21 781 42 q 700 0 738 0 l 193 0 m 251 1217 q 235 1238 240 1228 q 229 1260 229 1249 q 242 1290 229 1275 q 275 1306 256 1306 q 288 1303 281 1306 q 308 1293 296 1300 l 451 1190 l 594 1293 q 615 1303 607 1301 q 629 1306 622 1306 q 661 1290 649 1306 q 674 1260 674 1275 q 668 1238 674 1249 q 651 1217 663 1228 l 503 1060 q 481 1043 493 1050 q 453 1036 469 1036 q 424 1042 435 1036 q 403 1060 413 1049 l 251 1217 z "},"ฤ":{"ha":782,"x_min":54,"x_max":721,"o":"m 226 313 q 288 185 238 229 q 415 140 339 140 q 470 147 444 140 q 517 163 496 153 q 553 183 538 172 q 579 200 569 193 q 617 211 604 211 q 670 188 649 211 q 692 135 692 164 q 681 97 692 114 q 656 68 669 79 q 551 10 615 35 q 401 -14 488 -14 q 261 13 325 -14 q 151 89 197 40 q 80 204 106 138 q 54 350 54 271 q 81 494 54 426 q 153 613 107 563 q 264 692 200 663 q 401 721 328 721 q 533 695 474 721 q 633 627 592 669 q 698 529 675 585 q 721 414 721 474 q 706 341 721 369 q 644 313 692 313 l 226 313 m 554 414 q 546 467 556 440 q 516 517 536 494 q 467 552 496 539 q 400 565 438 565 q 288 526 333 565 q 228 414 242 486 l 554 414 m 197 939 q 181 960 186 950 q 175 982 175 971 q 188 1013 175 997 q 221 1028 201 1028 q 234 1025 226 1028 q 254 1015 242 1022 l 397 913 l 540 1015 q 560 1026 553 1024 q 575 1028 568 1028 q 607 1013 594 1028 q 619 982 619 997 q 614 960 619 971 q 597 939 608 950 l 449 782 q 427 765 439 772 q 399 758 415 758 q 369 765 381 758 q 349 782 358 771 l 197 939 z "},"ฤ":{"ha":1008,"x_min":68,"x_max":940,"o":"m 592 357 q 528 378 551 357 q 504 433 504 399 q 528 490 504 468 q 592 511 551 511 l 835 511 q 918 480 896 511 q 940 397 940 449 q 912 236 940 311 q 829 106 883 161 q 697 18 775 50 q 519 -14 619 -14 q 340 21 422 -14 q 197 119 257 56 q 102 274 136 183 q 68 476 68 365 q 103 681 68 589 q 199 837 138 772 q 344 937 261 901 q 524 972 428 972 q 703 941 625 972 q 851 838 781 910 q 892 785 882 810 q 901 739 901 761 q 879 678 903 701 q 824 656 856 656 q 783 665 803 656 q 743 697 763 674 q 652 774 703 746 q 528 801 601 801 q 409 778 461 801 q 321 711 357 754 q 266 608 285 668 q 247 475 247 547 q 268 346 247 404 q 326 246 289 288 q 415 181 364 204 q 528 157 467 157 q 695 209 633 157 q 761 357 757 261 l 592 357 m 382 1049 q 362 1039 369 1042 q 349 1036 354 1036 q 316 1051 329 1036 q 303 1082 303 1067 q 308 1103 303 1093 q 325 1125 314 1114 l 476 1282 q 497 1299 486 1293 q 526 1306 508 1306 q 555 1299 543 1306 q 576 1282 567 1292 l 725 1125 q 742 1103 736 1114 q 747 1082 747 1093 q 735 1051 747 1067 q 703 1036 722 1036 q 688 1038 696 1036 q 668 1049 681 1040 l 525 1151 l 382 1049 z "},"ฤ":{"ha":857,"x_min":54,"x_max":767,"o":"m 767 65 q 741 -82 767 -18 q 669 -190 715 -146 q 557 -256 622 -233 q 413 -278 492 -278 q 299 -266 350 -278 q 208 -233 249 -254 q 164 -168 164 -210 q 182 -115 164 -136 q 231 -93 200 -93 q 270 -99 251 -93 q 310 -111 289 -104 q 359 -124 332 -118 q 424 -129 386 -129 q 553 -76 511 -129 q 596 61 596 -22 l 596 139 q 501 26 558 65 q 360 -14 443 -14 q 242 11 297 -14 q 144 83 186 36 q 78 197 103 129 q 54 349 54 264 q 81 504 54 435 q 151 622 107 574 q 253 695 196 669 q 372 721 310 721 q 454 709 418 721 q 517 678 490 697 q 564 633 544 658 q 596 579 583 607 l 596 635 q 619 687 596 667 q 682 707 642 707 q 747 685 726 707 q 767 635 767 664 l 767 65 m 282 197 q 341 156 307 171 q 413 140 375 140 q 483 155 450 140 q 542 197 517 169 q 581 264 567 225 q 596 351 596 303 q 546 507 596 449 q 413 565 496 565 q 337 549 371 565 q 278 506 303 533 q 241 438 254 478 q 228 351 228 399 q 242 264 228 303 q 282 197 257 225 m 292 771 q 272 761 279 764 q 258 758 264 758 q 226 774 239 758 q 213 804 213 789 q 218 826 213 815 q 235 847 224 836 l 386 1004 q 407 1022 396 1015 q 436 1028 418 1028 q 465 1021 453 1028 q 486 1004 476 1014 l 635 847 q 651 826 646 836 q 657 804 657 815 q 644 774 657 789 q 613 758 632 758 q 598 760 606 758 q 578 771 590 763 l 435 874 l 292 771 z "},"ฤ":{"ha":1008,"x_min":68,"x_max":940,"o":"m 592 357 q 528 378 551 357 q 504 433 504 399 q 528 490 504 468 q 592 511 551 511 l 835 511 q 918 480 896 511 q 940 397 940 449 q 912 236 940 311 q 829 106 883 161 q 697 18 775 50 q 519 -14 619 -14 q 340 21 422 -14 q 197 119 257 56 q 102 274 136 183 q 68 476 68 365 q 103 681 68 589 q 199 837 138 772 q 344 937 261 901 q 524 972 428 972 q 703 941 625 972 q 851 838 781 910 q 892 785 882 810 q 901 739 901 761 q 879 678 903 701 q 824 656 856 656 q 783 665 803 656 q 743 697 763 674 q 652 774 703 746 q 528 801 601 801 q 409 778 461 801 q 321 711 357 754 q 266 608 285 668 q 247 475 247 547 q 268 346 247 404 q 326 246 289 288 q 415 181 364 204 q 528 157 467 157 q 695 209 633 157 q 761 357 757 261 l 592 357 m 568 1186 q 603 1243 589 1203 q 657 1286 614 1286 q 699 1269 686 1286 q 713 1231 713 1251 q 697 1163 713 1194 q 653 1107 681 1131 q 589 1069 625 1083 q 513 1056 553 1056 q 437 1069 472 1056 q 374 1107 401 1083 q 332 1163 347 1131 q 317 1231 317 1194 q 330 1269 317 1251 q 371 1286 343 1286 q 426 1243 413 1286 q 460 1187 439 1203 q 514 1171 482 1171 q 568 1186 547 1171 z "},"ฤ":{"ha":857,"x_min":54,"x_max":767,"o":"m 767 65 q 741 -82 767 -18 q 669 -190 715 -146 q 557 -256 622 -233 q 413 -278 492 -278 q 299 -266 350 -278 q 208 -233 249 -254 q 164 -168 164 -210 q 182 -115 164 -136 q 231 -93 200 -93 q 270 -99 251 -93 q 310 -111 289 -104 q 359 -124 332 -118 q 424 -129 386 -129 q 553 -76 511 -129 q 596 61 596 -22 l 596 139 q 501 26 558 65 q 360 -14 443 -14 q 242 11 297 -14 q 144 83 186 36 q 78 197 103 129 q 54 349 54 264 q 81 504 54 435 q 151 622 107 574 q 253 695 196 669 q 372 721 310 721 q 454 709 418 721 q 517 678 490 697 q 564 633 544 658 q 596 579 583 607 l 596 635 q 619 687 596 667 q 682 707 642 707 q 747 685 726 707 q 767 635 767 664 l 767 65 m 282 197 q 341 156 307 171 q 413 140 375 140 q 483 155 450 140 q 542 197 517 169 q 581 264 567 225 q 596 351 596 303 q 546 507 596 449 q 413 565 496 565 q 337 549 371 565 q 278 506 303 533 q 241 438 254 478 q 228 351 228 399 q 242 264 228 303 q 282 197 257 225 m 482 908 q 517 965 503 925 q 571 1008 528 1008 q 613 991 600 1008 q 626 953 626 974 q 610 885 626 917 q 567 829 594 853 q 503 792 539 806 q 426 778 467 778 q 351 792 386 778 q 288 829 315 806 q 246 885 261 853 q 231 953 231 917 q 244 991 231 974 q 285 1008 257 1008 q 340 965 326 1008 q 374 909 353 925 q 428 893 396 893 q 482 908 461 893 z "},"ฤ":{"ha":1008,"x_min":68,"x_max":940,"o":"m 592 357 q 528 378 551 357 q 504 433 504 399 q 528 490 504 468 q 592 511 551 511 l 835 511 q 918 480 896 511 q 940 397 940 449 q 912 236 940 311 q 829 106 883 161 q 697 18 775 50 q 519 -14 619 -14 q 340 21 422 -14 q 197 119 257 56 q 102 274 136 183 q 68 476 68 365 q 103 681 68 589 q 199 837 138 772 q 344 937 261 901 q 524 972 428 972 q 703 941 625 972 q 851 838 781 910 q 892 785 882 810 q 901 739 901 761 q 879 678 903 701 q 824 656 856 656 q 783 665 803 656 q 743 697 763 674 q 652 774 703 746 q 528 801 601 801 q 409 778 461 801 q 321 711 357 754 q 266 608 285 668 q 247 475 247 547 q 268 346 247 404 q 326 246 289 288 q 415 181 364 204 q 528 157 467 157 q 695 209 633 157 q 761 357 757 261 l 592 357 m 444 1113 q 417 1186 417 1138 q 444 1260 417 1233 q 517 1288 472 1288 q 590 1261 561 1288 q 619 1186 619 1235 q 590 1110 619 1133 q 517 1088 560 1088 q 444 1113 474 1088 z "},"ฤก":{"ha":857,"x_min":54,"x_max":767,"o":"m 767 65 q 741 -82 767 -18 q 669 -190 715 -146 q 557 -256 622 -233 q 413 -278 492 -278 q 299 -266 350 -278 q 208 -233 249 -254 q 164 -168 164 -210 q 182 -115 164 -136 q 231 -93 200 -93 q 270 -99 251 -93 q 310 -111 289 -104 q 359 -124 332 -118 q 424 -129 386 -129 q 553 -76 511 -129 q 596 61 596 -22 l 596 139 q 501 26 558 65 q 360 -14 443 -14 q 242 11 297 -14 q 144 83 186 36 q 78 197 103 129 q 54 349 54 264 q 81 504 54 435 q 151 622 107 574 q 253 695 196 669 q 372 721 310 721 q 454 709 418 721 q 517 678 490 697 q 564 633 544 658 q 596 579 583 607 l 596 635 q 619 687 596 667 q 682 707 642 707 q 747 685 726 707 q 767 635 767 664 l 767 65 m 282 197 q 341 156 307 171 q 413 140 375 140 q 483 155 450 140 q 542 197 517 169 q 581 264 567 225 q 596 351 596 303 q 546 507 596 449 q 413 565 496 565 q 337 549 371 565 q 278 506 303 533 q 241 438 254 478 q 228 351 228 399 q 242 264 228 303 q 282 197 257 225 m 354 835 q 326 908 326 860 q 354 983 326 956 q 426 1010 382 1010 q 500 983 471 1010 q 529 908 529 957 q 499 833 529 856 q 426 810 469 810 q 354 835 383 810 z "},"ฤข":{"ha":1008,"x_min":68,"x_max":940,"o":"m 592 357 q 528 378 551 357 q 504 433 504 399 q 528 490 504 468 q 592 511 551 511 l 835 511 q 918 480 896 511 q 940 397 940 449 q 912 236 940 311 q 829 106 883 161 q 697 18 775 50 q 519 -14 619 -14 q 340 21 422 -14 q 197 119 257 56 q 102 274 136 183 q 68 476 68 365 q 103 681 68 589 q 199 837 138 772 q 344 937 261 901 q 524 972 428 972 q 703 941 625 972 q 851 838 781 910 q 892 785 882 810 q 901 739 901 761 q 879 678 903 701 q 824 656 856 656 q 783 665 803 656 q 743 697 763 674 q 652 774 703 746 q 528 801 601 801 q 409 778 461 801 q 321 711 357 754 q 266 608 285 668 q 247 475 247 547 q 268 346 247 404 q 326 246 289 288 q 415 181 364 204 q 528 157 467 157 q 695 209 633 157 q 761 357 757 261 l 592 357 m 478 -293 q 496 -244 496 -272 q 439 -215 456 -237 q 422 -164 422 -193 q 448 -97 422 -121 q 507 -72 474 -72 q 577 -103 549 -72 q 606 -193 606 -133 q 589 -294 606 -253 q 548 -360 572 -335 q 497 -397 524 -386 q 450 -408 471 -408 q 415 -397 426 -408 q 403 -368 403 -386 q 410 -344 403 -356 q 431 -326 417 -332 q 478 -293 461 -315 z "},"ฤฃ":{"ha":857,"x_min":54,"x_max":767,"o":"m 767 65 q 741 -82 767 -18 q 669 -190 715 -146 q 557 -256 622 -233 q 413 -278 492 -278 q 299 -266 350 -278 q 208 -233 249 -254 q 164 -168 164 -210 q 182 -115 164 -136 q 231 -93 200 -93 q 270 -99 251 -93 q 310 -111 289 -104 q 359 -124 332 -118 q 424 -129 386 -129 q 553 -76 511 -129 q 596 61 596 -22 l 596 139 q 501 26 558 65 q 360 -14 443 -14 q 242 11 297 -14 q 144 83 186 36 q 78 197 103 129 q 54 349 54 264 q 81 504 54 435 q 151 622 107 574 q 253 695 196 669 q 372 721 310 721 q 454 709 418 721 q 517 678 490 697 q 564 633 544 658 q 596 579 583 607 l 596 635 q 619 687 596 667 q 682 707 642 707 q 747 685 726 707 q 767 635 767 664 l 767 65 m 282 197 q 341 156 307 171 q 413 140 375 140 q 483 155 450 140 q 542 197 517 169 q 581 264 567 225 q 596 351 596 303 q 546 507 596 449 q 413 565 496 565 q 337 549 371 565 q 278 506 303 533 q 241 438 254 478 q 228 351 228 399 q 242 264 228 303 q 282 197 257 225 m 450 996 q 433 947 432 975 q 490 918 474 940 q 507 867 507 896 q 481 799 507 822 q 422 775 456 775 q 352 806 381 775 q 324 896 324 836 q 340 997 324 956 q 381 1063 357 1038 q 431 1100 404 1089 q 479 1111 458 1111 q 514 1099 501 1111 q 526 1071 526 1088 q 519 1047 526 1058 q 499 1029 511 1035 q 450 996 468 1017 z "},"ฤค":{"ha":982,"x_min":106,"x_max":876,"o":"m 281 88 q 256 24 281 49 q 193 0 232 0 q 130 24 154 0 q 106 88 106 49 l 106 871 q 130 934 106 910 q 193 958 154 958 q 256 934 232 958 q 281 871 281 910 l 281 571 l 701 571 l 701 871 q 725 934 701 910 q 789 958 749 958 q 852 934 828 958 q 876 871 876 910 l 876 88 q 852 24 876 49 q 789 0 828 0 q 725 24 749 0 q 701 88 701 49 l 701 415 l 281 415 l 281 88 m 354 1049 q 334 1039 342 1042 q 321 1036 326 1036 q 288 1051 301 1036 q 275 1082 275 1067 q 281 1103 275 1093 q 297 1125 286 1114 l 449 1282 q 469 1299 458 1293 q 499 1306 481 1306 q 527 1299 515 1306 q 549 1282 539 1292 l 697 1125 q 714 1103 708 1114 q 719 1082 719 1093 q 707 1051 719 1067 q 675 1036 694 1036 q 660 1038 668 1036 q 640 1049 653 1040 l 497 1151 l 354 1049 z "},"ฤฅ":{"ha":813,"x_min":96,"x_max":724,"o":"m 265 82 q 241 23 265 46 q 181 0 217 0 q 120 23 144 0 q 96 82 96 46 l 96 875 q 118 935 96 911 q 181 958 140 958 q 243 935 221 958 q 265 875 265 911 l 265 592 q 344 686 294 651 q 469 721 394 721 q 658 644 592 721 q 724 438 724 568 l 724 82 q 699 23 724 46 q 639 0 675 0 q 578 23 603 0 q 554 82 554 46 l 554 378 q 516 517 554 469 q 408 565 478 565 q 302 516 339 565 q 265 374 265 467 l 265 82 m 214 1021 q 194 1011 201 1014 q 181 1008 186 1008 q 148 1024 161 1008 q 135 1054 135 1039 q 140 1076 135 1065 q 157 1097 146 1086 l 308 1254 q 329 1272 318 1265 q 358 1278 340 1278 q 387 1271 375 1278 q 408 1254 399 1264 l 557 1097 q 574 1076 568 1086 q 579 1054 579 1065 q 567 1024 579 1039 q 535 1008 554 1008 q 520 1010 528 1008 q 500 1021 513 1013 l 357 1124 l 214 1021 z "},"ฤฆ":{"ha":982,"x_min":25,"x_max":954,"o":"m 281 88 q 256 24 281 49 q 193 0 232 0 q 130 24 154 0 q 106 88 106 49 l 106 696 l 90 696 q 44 716 63 696 q 25 764 25 736 q 44 812 25 792 q 90 832 63 832 l 106 832 l 106 871 q 130 934 106 910 q 193 958 154 958 q 256 934 232 958 q 281 871 281 910 l 281 832 l 701 832 l 701 871 q 725 934 701 910 q 789 958 749 958 q 852 934 828 958 q 876 871 876 910 l 876 832 l 890 832 q 936 812 918 832 q 954 764 954 792 q 936 716 954 736 q 890 696 918 696 l 876 696 l 876 88 q 852 24 876 49 q 789 0 828 0 q 725 24 749 0 q 701 88 701 49 l 701 415 l 281 415 l 281 88 m 281 571 l 701 571 l 701 696 l 281 696 l 281 571 z "},"ฤง":{"ha":813,"x_min":18,"x_max":724,"o":"m 265 82 q 241 23 265 46 q 181 0 217 0 q 120 23 144 0 q 96 82 96 46 l 96 761 l 82 761 q 36 781 54 761 q 18 829 18 801 q 36 878 18 857 q 82 899 54 899 l 99 899 q 126 942 106 926 q 181 958 146 958 q 235 942 214 958 q 263 899 256 926 l 356 899 q 401 878 383 899 q 419 829 419 857 q 401 781 419 801 q 356 761 383 761 l 265 761 l 265 592 q 344 686 294 651 q 469 721 394 721 q 658 644 592 721 q 724 438 724 568 l 724 82 q 699 23 724 46 q 639 0 675 0 q 578 23 603 0 q 554 82 554 46 l 554 378 q 516 517 554 469 q 408 565 478 565 q 302 516 339 565 q 265 374 265 467 l 265 82 z "},"ฤจ":{"ha":386,"x_min":-61,"x_max":439,"o":"m 281 88 q 256 24 281 49 q 193 0 232 0 q 130 24 154 0 q 106 88 106 49 l 106 871 q 130 934 106 910 q 193 958 154 958 q 256 934 232 958 q 281 871 281 910 l 281 88 m 439 1199 q 413 1128 439 1156 q 368 1092 393 1104 q 315 1079 343 1079 q 253 1088 279 1079 q 204 1106 226 1096 q 161 1126 182 1117 q 114 1135 140 1135 q 73 1125 89 1135 q 44 1100 57 1115 q 24 1084 36 1090 q -7 1078 13 1078 q -47 1095 -32 1078 q -61 1138 -61 1113 q -56 1166 -61 1149 q -36 1199 -50 1183 q 16 1243 -14 1225 q 94 1261 46 1261 q 151 1253 128 1261 q 196 1236 175 1246 q 237 1219 217 1226 q 282 1211 257 1211 q 313 1217 300 1211 q 339 1240 325 1224 q 356 1258 346 1250 q 382 1265 367 1265 q 422 1247 406 1265 q 439 1199 439 1228 z "},"ฤฉ":{"ha":368,"x_min":-69,"x_max":431,"o":"m 265 219 q 273 173 265 192 q 301 154 281 154 q 335 133 325 154 q 344 89 344 113 q 320 24 344 49 q 247 0 296 0 q 136 48 176 0 q 96 208 96 96 l 96 624 q 119 683 96 658 q 181 707 143 707 q 242 683 218 707 q 265 624 265 658 l 265 219 m 431 921 q 404 850 431 878 q 360 814 385 826 q 307 801 335 801 q 244 810 271 801 q 196 828 218 818 q 153 848 174 839 q 106 857 132 857 q 65 847 81 857 q 36 822 49 838 q 16 806 28 813 q -15 800 4 800 q -55 817 -40 800 q -69 860 -69 835 q -64 888 -69 871 q -44 921 -58 906 q 8 965 -22 947 q 86 983 38 983 q 143 976 119 983 q 188 958 167 968 q 228 941 208 949 q 274 933 249 933 q 304 940 292 933 q 331 963 317 946 q 348 980 338 972 q 374 988 358 988 q 414 969 397 988 q 431 921 431 950 z "},"ฤช":{"ha":386,"x_min":-15,"x_max":400,"o":"m 281 88 q 256 24 281 49 q 193 0 232 0 q 130 24 154 0 q 106 88 106 49 l 106 871 q 130 934 106 910 q 193 958 154 958 q 256 934 232 958 q 281 871 281 910 l 281 88 m 50 1118 q 3 1139 22 1118 q -15 1188 -15 1160 q 3 1235 -15 1215 q 50 1256 22 1256 l 336 1256 q 382 1235 364 1256 q 400 1188 400 1215 q 382 1139 400 1160 q 336 1118 364 1118 l 50 1118 z "},"ฤซ":{"ha":368,"x_min":-24,"x_max":392,"o":"m 265 219 q 273 173 265 192 q 301 154 281 154 q 335 133 325 154 q 344 89 344 113 q 320 24 344 49 q 247 0 296 0 q 136 48 176 0 q 96 208 96 96 l 96 624 q 119 683 96 658 q 181 707 143 707 q 242 683 218 707 q 265 624 265 658 l 265 219 m 42 840 q -5 861 14 840 q -24 910 -24 882 q -5 958 -24 938 q 42 978 14 978 l 328 978 q 374 958 356 978 q 392 910 392 938 q 374 861 392 882 q 328 840 356 840 l 42 840 z "},"ฤฌ":{"ha":386,"x_min":-8,"x_max":388,"o":"m 281 88 q 256 24 281 49 q 193 0 232 0 q 130 24 154 0 q 106 88 106 49 l 106 871 q 130 934 106 910 q 193 958 154 958 q 256 934 232 958 q 281 871 281 910 l 281 88 m 243 1186 q 278 1243 264 1203 q 332 1286 289 1286 q 374 1269 361 1286 q 388 1231 388 1251 q 372 1163 388 1194 q 328 1107 356 1131 q 264 1069 300 1083 q 188 1056 228 1056 q 112 1069 147 1056 q 49 1107 76 1083 q 7 1163 22 1131 q -8 1231 -8 1194 q 5 1269 -8 1251 q 46 1286 18 1286 q 101 1243 88 1286 q 135 1187 114 1203 q 189 1171 157 1171 q 243 1186 222 1171 z "},"ฤญ":{"ha":368,"x_min":-17,"x_max":379,"o":"m 265 219 q 273 173 265 192 q 301 154 281 154 q 335 133 325 154 q 344 89 344 113 q 320 24 344 49 q 247 0 296 0 q 136 48 176 0 q 96 208 96 96 l 96 624 q 119 683 96 658 q 181 707 143 707 q 242 683 218 707 q 265 624 265 658 l 265 219 m 235 908 q 269 965 256 925 q 324 1008 281 1008 q 366 991 353 1008 q 379 953 379 974 q 363 885 379 917 q 319 829 347 853 q 256 792 292 806 q 179 778 219 778 q 103 792 139 778 q 41 829 68 806 q -1 885 14 853 q -17 953 -17 917 q -3 991 -17 974 q 38 1008 10 1008 q 93 965 79 1008 q 127 909 106 925 q 181 893 149 893 q 235 908 214 893 z "},"ฤฎ":{"ha":386,"x_min":11,"x_max":281,"o":"m 281 88 q 260 28 281 51 q 207 0 240 6 q 151 -62 169 -29 q 132 -122 132 -94 q 146 -161 132 -144 q 192 -181 160 -178 q 256 -236 256 -185 q 231 -281 256 -268 q 165 -294 206 -294 q 56 -262 101 -294 q 11 -161 11 -229 q 47 -58 11 -104 q 133 21 83 -11 q 106 88 106 44 l 106 871 q 130 934 106 910 q 193 958 154 958 q 256 934 232 958 q 281 871 281 910 l 281 88 z "},"ฤฏ":{"ha":368,"x_min":71,"x_max":344,"o":"m 265 219 q 273 173 265 192 q 301 154 281 154 q 335 133 325 154 q 344 89 344 113 q 326 30 344 53 q 269 1 307 7 q 211 -62 231 -29 q 192 -122 192 -94 q 206 -161 192 -144 q 253 -181 221 -178 q 317 -236 317 -185 q 292 -281 317 -268 q 226 -294 267 -294 q 117 -262 163 -294 q 71 -161 71 -229 q 103 -64 71 -108 q 181 13 135 -19 q 118 78 140 32 q 96 208 96 125 l 96 624 q 119 683 96 658 q 181 707 143 707 q 242 683 218 707 q 265 624 265 658 l 265 219 m 110 832 q 82 906 82 857 q 110 979 82 951 q 182 1007 138 1007 q 256 980 226 1007 q 285 906 285 953 q 256 830 285 853 q 182 807 226 807 q 110 832 139 807 z "},"ฤฐ":{"ha":386,"x_min":92,"x_max":294,"o":"m 281 88 q 256 24 281 49 q 193 0 232 0 q 130 24 154 0 q 106 88 106 49 l 106 871 q 130 934 106 910 q 193 958 154 958 q 256 934 232 958 q 281 871 281 910 l 281 88 m 119 1113 q 92 1186 92 1138 q 119 1260 92 1233 q 192 1288 147 1288 q 265 1261 236 1288 q 294 1186 294 1235 q 265 1110 294 1133 q 192 1088 235 1088 q 119 1113 149 1088 z "},"ฤฑ":{"ha":368,"x_min":96,"x_max":344,"o":"m 265 219 q 273 173 265 192 q 301 154 281 154 q 335 133 325 154 q 344 89 344 113 q 320 24 344 49 q 247 0 296 0 q 136 48 176 0 q 96 208 96 96 l 96 624 q 119 683 96 658 q 181 707 143 707 q 242 683 218 707 q 265 624 265 658 l 265 219 z "},"ฤฒ":{"ha":1213,"x_min":106,"x_max":1113,"o":"m 281 88 q 256 24 281 49 q 193 0 232 0 q 130 24 154 0 q 106 88 106 49 l 106 871 q 130 934 106 910 q 193 958 154 958 q 256 934 232 958 q 281 871 281 910 l 281 88 m 1113 333 q 1083 178 1113 243 q 1006 69 1054 113 q 897 6 958 26 q 768 -14 835 -14 q 652 2 701 -14 q 565 44 603 18 q 502 102 528 69 q 458 168 476 135 q 439 215 444 193 q 433 250 433 238 q 442 290 433 274 q 465 317 451 307 q 495 333 479 328 q 525 338 511 338 q 599 276 569 338 q 665 188 626 218 q 769 157 703 157 q 830 165 800 157 q 884 194 860 174 q 923 248 908 214 q 938 332 938 282 l 938 872 q 962 934 938 910 q 1025 958 986 958 q 1088 934 1064 958 q 1113 871 1113 910 l 1113 333 z "},"ฤณ":{"ha":729,"x_min":92,"x_max":640,"o":"m 117 803 q 92 869 92 825 q 117 937 92 913 q 182 961 142 961 q 249 938 222 961 q 275 869 275 914 q 249 801 275 822 q 182 781 222 781 q 117 803 143 781 m 265 219 q 273 173 265 192 q 301 154 281 154 q 335 133 325 154 q 344 89 344 113 q 320 24 344 49 q 247 0 296 0 q 136 48 176 0 q 96 208 96 96 l 96 624 q 119 683 96 658 q 181 707 143 707 q 242 683 218 707 q 265 624 265 658 l 265 219 m 633 11 q 576 -192 633 -119 q 401 -264 518 -264 q 315 -240 342 -264 q 289 -182 289 -215 q 308 -128 289 -149 q 367 -107 328 -107 q 419 -97 400 -107 q 449 -68 439 -86 q 461 -25 458 -50 q 464 28 464 0 l 464 624 q 488 683 464 660 q 549 707 513 707 q 609 683 585 707 q 633 624 633 660 l 633 11 m 481 803 q 456 869 456 825 q 481 937 456 913 q 547 961 507 961 q 614 938 588 961 q 640 869 640 914 q 614 801 640 822 q 547 781 588 781 q 481 803 507 781 z "},"ฤด":{"ha":825,"x_min":47,"x_max":853,"o":"m 726 333 q 697 178 726 243 q 620 69 668 113 q 510 6 572 26 q 382 -14 449 -14 q 266 2 315 -14 q 179 44 217 18 q 116 102 142 69 q 72 168 90 135 q 53 215 58 193 q 47 250 47 238 q 56 290 47 274 q 79 317 65 307 q 109 333 93 328 q 139 338 125 338 q 213 276 183 338 q 278 188 240 218 q 383 157 317 157 q 444 165 414 157 q 498 194 474 174 q 537 248 522 214 q 551 332 551 282 l 551 872 q 576 934 551 910 q 639 958 600 958 q 702 934 678 958 q 726 871 726 910 l 726 333 m 488 1049 q 467 1039 475 1042 q 454 1036 460 1036 q 422 1051 435 1036 q 408 1082 408 1067 q 414 1103 408 1093 q 431 1125 419 1114 l 582 1282 q 603 1299 592 1293 q 632 1306 614 1306 q 660 1299 649 1306 q 682 1282 672 1292 l 831 1125 q 847 1103 842 1114 q 853 1082 853 1093 q 840 1051 853 1067 q 808 1036 828 1036 q 794 1038 801 1036 q 774 1049 786 1040 l 631 1151 l 488 1049 z "},"ฤต":{"ha":361,"x_min":-79,"x_max":410,"o":"m 265 11 q 208 -192 265 -119 q 33 -264 150 -264 q -53 -240 -26 -264 q -79 -182 -79 -215 q -60 -128 -79 -149 q -1 -107 -40 -107 q 51 -97 32 -107 q 81 -68 71 -86 q 93 -25 90 -50 q 96 28 96 0 l 96 624 q 120 683 96 660 q 181 707 144 707 q 241 683 217 707 q 265 624 265 660 l 265 11 m 44 771 q 24 761 32 764 q 11 758 17 758 q -22 774 -8 758 q -35 804 -35 789 q -29 826 -35 815 q -12 847 -24 836 l 139 1004 q 160 1022 149 1015 q 189 1028 171 1028 q 217 1021 206 1028 q 239 1004 229 1014 l 388 847 q 404 826 399 836 q 410 804 410 815 q 397 774 410 789 q 365 758 385 758 q 351 760 358 758 q 331 771 343 763 l 188 874 l 44 771 z "},"ฤถ":{"ha":871,"x_min":106,"x_max":824,"o":"m 281 90 q 257 25 281 50 q 193 0 233 0 q 129 25 153 0 q 106 90 106 50 l 106 868 q 129 933 106 908 q 193 958 153 958 q 257 933 233 958 q 281 868 281 908 l 281 529 l 632 924 q 663 949 647 940 q 703 958 679 958 q 762 934 739 958 q 785 881 785 910 q 781 849 785 865 q 760 815 776 833 l 485 508 l 786 161 q 817 120 810 136 q 824 88 824 104 q 815 49 824 65 q 794 22 807 33 q 765 6 781 11 q 738 0 750 0 q 667 32 694 0 l 358 386 l 281 300 l 281 90 m 419 -293 q 438 -244 438 -272 q 381 -215 397 -237 q 364 -164 364 -193 q 390 -97 364 -121 q 449 -72 415 -72 q 519 -103 490 -72 q 547 -193 547 -133 q 531 -294 547 -253 q 490 -360 514 -335 q 439 -397 465 -386 q 392 -408 413 -408 q 356 -397 368 -408 q 344 -368 344 -386 q 351 -344 344 -356 q 372 -326 358 -332 q 419 -293 403 -315 z "},"ฤท":{"ha":756,"x_min":96,"x_max":710,"o":"m 265 82 q 244 24 265 47 q 181 0 224 0 q 117 24 138 0 q 96 82 96 47 l 96 875 q 116 934 96 910 q 181 958 136 958 q 245 934 225 958 q 265 875 265 910 l 265 425 l 544 667 q 579 694 563 682 q 619 707 596 707 q 675 683 656 707 q 694 632 694 660 q 685 592 694 608 q 660 563 676 576 l 456 389 l 681 138 q 700 113 690 126 q 710 76 710 100 q 683 18 710 36 q 629 0 656 0 q 595 7 610 0 q 565 31 581 14 l 336 288 l 265 228 l 265 82 m 344 -293 q 363 -244 363 -272 q 306 -215 322 -237 q 289 -164 289 -193 q 315 -97 289 -121 q 374 -72 340 -72 q 444 -103 415 -72 q 472 -193 472 -133 q 456 -294 472 -253 q 415 -360 439 -335 q 364 -397 390 -386 q 317 -408 338 -408 q 281 -397 293 -408 q 269 -368 269 -386 q 276 -344 269 -356 q 297 -326 283 -332 q 344 -293 328 -315 z "},"ฤน":{"ha":774,"x_min":106,"x_max":740,"o":"m 194 0 q 128 24 151 0 q 106 88 106 49 l 106 871 q 130 934 106 910 q 193 958 154 958 q 256 934 232 958 q 281 871 281 910 l 281 154 l 654 154 q 716 134 692 154 q 740 78 740 114 q 716 21 740 42 q 654 0 692 0 l 194 0 m 213 1050 q 178 1036 193 1036 q 140 1053 154 1036 q 126 1090 126 1071 q 149 1138 126 1115 l 294 1278 q 320 1297 306 1289 q 353 1306 335 1306 q 405 1283 382 1306 q 428 1233 428 1261 q 397 1174 428 1194 l 213 1050 z "},"ฤบ":{"ha":368,"x_min":69,"x_max":371,"o":"m 265 219 q 273 173 265 192 q 301 154 281 154 q 335 133 325 154 q 344 89 344 113 q 320 24 344 49 q 247 0 296 0 q 136 48 176 0 q 96 208 96 96 l 96 875 q 119 934 96 910 q 181 958 143 958 q 242 934 218 958 q 265 875 265 910 l 265 219 m 156 1022 q 121 1008 136 1008 q 83 1026 97 1008 q 69 1063 69 1043 q 92 1110 69 1088 l 238 1250 q 263 1269 249 1261 q 296 1278 278 1278 q 348 1256 325 1278 q 371 1206 371 1233 q 340 1146 371 1167 l 156 1022 z "},"ฤป":{"ha":774,"x_min":106,"x_max":740,"o":"m 194 0 q 128 24 151 0 q 106 88 106 49 l 106 871 q 130 934 106 910 q 193 958 154 958 q 256 934 232 958 q 281 871 281 910 l 281 154 l 654 154 q 716 134 692 154 q 740 78 740 114 q 716 21 740 42 q 654 0 692 0 l 194 0 m 389 -293 q 407 -244 407 -272 q 350 -215 367 -237 q 333 -164 333 -193 q 359 -97 333 -121 q 418 -72 385 -72 q 488 -103 460 -72 q 517 -193 517 -133 q 500 -294 517 -253 q 459 -360 483 -335 q 408 -397 435 -386 q 361 -408 382 -408 q 326 -397 338 -408 q 314 -368 314 -386 q 321 -344 314 -356 q 342 -326 328 -332 q 389 -293 372 -315 z "},"ฤผ":{"ha":368,"x_min":96,"x_max":344,"o":"m 265 219 q 273 173 265 192 q 301 154 281 154 q 335 133 325 154 q 344 89 344 113 q 320 24 344 49 q 247 0 296 0 q 136 48 176 0 q 96 208 96 96 l 96 875 q 119 934 96 910 q 181 958 143 958 q 242 934 218 958 q 265 875 265 910 l 265 219 m 171 -293 q 189 -244 189 -272 q 132 -215 149 -237 q 115 -164 115 -193 q 141 -97 115 -121 q 200 -72 167 -72 q 270 -103 242 -72 q 299 -193 299 -133 q 282 -294 299 -253 q 241 -360 265 -335 q 190 -397 217 -386 q 143 -408 164 -408 q 108 -397 119 -408 q 96 -368 96 -386 q 103 -344 96 -356 q 124 -326 110 -332 q 171 -293 154 -315 z "},"ฤฝ":{"ha":774,"x_min":106,"x_max":740,"o":"m 194 0 q 128 24 151 0 q 106 88 106 49 l 106 871 q 130 934 106 910 q 193 958 154 958 q 256 934 232 958 q 281 871 281 910 l 281 154 l 654 154 q 716 134 692 154 q 740 78 740 114 q 716 21 740 42 q 654 0 692 0 l 194 0 m 463 817 q 481 867 481 839 q 424 896 440 874 q 407 947 407 918 q 433 1015 407 990 q 492 1039 458 1039 q 562 1008 533 1039 q 590 918 590 978 q 574 817 590 858 q 533 751 557 776 q 482 714 508 725 q 435 703 456 703 q 399 714 411 703 q 388 743 388 725 q 394 767 388 756 q 415 785 401 779 q 463 817 446 796 z "},"ฤพ":{"ha":458,"x_min":96,"x_max":515,"o":"m 265 219 q 273 173 265 192 q 301 154 281 154 q 335 133 325 154 q 344 89 344 113 q 320 24 344 49 q 247 0 296 0 q 136 48 176 0 q 96 208 96 96 l 96 875 q 119 934 96 910 q 181 958 143 958 q 242 934 218 958 q 265 875 265 910 l 265 219 m 388 817 q 406 867 406 839 q 349 896 365 874 q 332 947 332 918 q 358 1015 332 990 q 417 1039 383 1039 q 487 1008 458 1039 q 515 918 515 978 q 499 817 515 858 q 458 751 482 776 q 407 714 433 725 q 360 703 381 703 q 324 714 336 703 q 313 743 313 725 q 319 767 313 756 q 340 785 326 779 q 388 817 371 796 z "},"ฤฟ":{"ha":774,"x_min":106,"x_max":740,"o":"m 194 0 q 128 24 151 0 q 106 88 106 49 l 106 871 q 130 934 106 910 q 193 958 154 958 q 256 934 232 958 q 281 871 281 910 l 281 154 l 654 154 q 716 134 692 154 q 740 78 740 114 q 716 21 740 42 q 654 0 692 0 l 194 0 m 494 421 q 467 494 467 446 q 494 569 467 542 q 567 596 522 596 q 640 569 611 596 q 669 494 669 542 q 640 419 669 442 q 567 396 611 396 q 494 421 524 396 z "},"ล":{"ha":468,"x_min":96,"x_max":521,"o":"m 265 219 q 273 173 265 192 q 301 154 281 154 q 335 133 325 154 q 344 89 344 113 q 320 24 344 49 q 247 0 296 0 q 136 48 176 0 q 96 208 96 96 l 96 875 q 119 934 96 910 q 181 958 143 958 q 242 934 218 958 q 265 875 265 910 l 265 219 m 346 421 q 318 494 318 446 q 347 569 318 542 q 419 596 375 596 q 492 569 464 596 q 521 494 521 542 q 492 419 521 442 q 419 396 463 396 q 346 421 375 396 z "},"ล":{"ha":774,"x_min":-26,"x_max":740,"o":"m 194 0 q 128 24 151 0 q 106 88 106 49 l 106 372 l 79 357 q 36 346 54 346 q -11 367 4 346 q -26 414 -26 388 q -19 444 -26 429 q 10 469 -11 458 l 106 524 l 106 871 q 130 934 106 910 q 193 958 154 958 q 256 934 232 958 q 281 871 281 910 l 281 621 l 400 689 q 439 699 419 699 q 484 680 468 699 q 500 638 500 661 q 494 606 500 621 q 468 581 488 590 l 281 472 l 281 154 l 654 154 q 716 134 692 154 q 740 78 740 114 q 716 21 740 42 q 654 0 692 0 l 194 0 z "},"ล":{"ha":368,"x_min":-37,"x_max":421,"o":"m 63 365 q 26 354 44 354 q -19 372 0 354 q -37 418 -37 390 q -3 475 -37 457 l 96 531 l 96 875 q 119 934 96 910 q 181 958 143 958 q 242 934 218 958 q 265 875 265 910 l 265 626 l 322 658 q 358 667 339 667 q 403 649 385 667 q 421 604 421 632 q 388 547 421 565 l 265 479 l 265 219 q 273 173 265 192 q 301 154 281 154 q 335 133 325 154 q 344 89 344 113 q 320 24 344 49 q 247 0 296 0 q 136 48 176 0 q 96 208 96 96 l 96 383 l 63 365 z "},"ล":{"ha":963,"x_min":106,"x_max":857,"o":"m 281 85 q 256 22 281 44 q 193 0 231 0 q 131 22 156 0 q 106 85 106 44 l 106 861 q 125 929 106 900 q 192 958 144 958 q 232 949 213 958 q 267 918 251 940 l 682 333 l 682 872 q 707 935 682 913 q 769 958 732 958 q 831 935 806 958 q 857 872 857 913 l 857 85 q 835 24 857 49 q 774 0 814 0 q 730 9 749 0 q 693 40 711 18 l 281 599 l 281 85 m 421 1050 q 386 1036 401 1036 q 349 1053 363 1036 q 335 1090 335 1071 q 357 1138 335 1115 l 503 1278 q 528 1297 514 1289 q 561 1306 543 1306 q 613 1283 590 1306 q 636 1233 636 1261 q 606 1174 636 1194 l 421 1050 z "},"ล":{"ha":817,"x_min":96,"x_max":728,"o":"m 265 82 q 242 24 265 47 q 181 0 218 0 q 121 23 146 0 q 96 82 96 46 l 96 633 q 117 683 96 660 q 182 707 138 707 q 246 685 226 707 q 265 635 265 663 l 265 592 q 347 688 292 654 q 474 721 403 721 q 661 645 594 721 q 728 438 728 569 l 728 82 q 703 24 728 47 q 642 0 679 0 q 581 24 606 0 q 557 82 557 47 l 557 378 q 519 517 557 469 q 413 565 481 565 q 304 516 343 565 q 265 374 265 467 l 265 82 m 349 772 q 314 758 329 758 q 276 776 290 758 q 263 813 263 793 q 285 860 263 838 l 431 1000 q 456 1019 442 1011 q 489 1028 471 1028 q 541 1006 518 1028 q 564 956 564 983 q 533 896 564 917 l 349 772 z "},"ล":{"ha":963,"x_min":106,"x_max":857,"o":"m 281 85 q 256 22 281 44 q 193 0 231 0 q 131 22 156 0 q 106 85 106 44 l 106 861 q 125 929 106 900 q 192 958 144 958 q 232 949 213 958 q 267 918 251 940 l 682 333 l 682 872 q 707 935 682 913 q 769 958 732 958 q 831 935 806 958 q 857 872 857 913 l 857 85 q 835 24 857 49 q 774 0 814 0 q 730 9 749 0 q 693 40 711 18 l 281 599 l 281 85 m 435 -293 q 453 -244 453 -272 q 396 -215 413 -237 q 379 -164 379 -193 q 405 -97 379 -121 q 464 -72 431 -72 q 534 -103 506 -72 q 563 -193 563 -133 q 546 -294 563 -253 q 505 -360 529 -335 q 454 -397 481 -386 q 407 -408 428 -408 q 372 -397 383 -408 q 360 -368 360 -386 q 367 -344 360 -356 q 388 -326 374 -332 q 435 -293 418 -315 z "},"ล":{"ha":817,"x_min":96,"x_max":728,"o":"m 265 82 q 242 24 265 47 q 181 0 218 0 q 121 23 146 0 q 96 82 96 46 l 96 633 q 117 683 96 660 q 182 707 138 707 q 246 685 226 707 q 265 635 265 663 l 265 592 q 347 688 292 654 q 474 721 403 721 q 661 645 594 721 q 728 438 728 569 l 728 82 q 703 24 728 47 q 642 0 679 0 q 581 24 606 0 q 557 82 557 47 l 557 378 q 519 517 557 469 q 413 565 481 565 q 304 516 343 565 q 265 374 265 467 l 265 82 m 371 -293 q 389 -244 389 -272 q 332 -215 349 -237 q 315 -164 315 -193 q 341 -97 315 -121 q 400 -72 367 -72 q 470 -103 442 -72 q 499 -193 499 -133 q 482 -294 499 -253 q 441 -360 465 -335 q 390 -397 417 -386 q 343 -408 364 -408 q 308 -397 319 -408 q 296 -368 296 -386 q 303 -344 296 -356 q 324 -326 310 -332 q 371 -293 354 -315 z "},"ล":{"ha":963,"x_min":106,"x_max":857,"o":"m 281 85 q 256 22 281 44 q 193 0 231 0 q 131 22 156 0 q 106 85 106 44 l 106 861 q 125 929 106 900 q 192 958 144 958 q 232 949 213 958 q 267 918 251 940 l 682 333 l 682 872 q 707 935 682 913 q 769 958 732 958 q 831 935 806 958 q 857 872 857 913 l 857 85 q 835 24 857 49 q 774 0 814 0 q 730 9 749 0 q 693 40 711 18 l 281 599 l 281 85 m 288 1217 q 271 1238 276 1228 q 265 1260 265 1249 q 278 1290 265 1275 q 311 1306 292 1306 q 324 1303 317 1306 q 344 1293 332 1300 l 488 1190 l 631 1293 q 651 1303 643 1301 q 665 1306 658 1306 q 697 1290 685 1306 q 710 1260 710 1275 q 704 1238 710 1249 q 688 1217 699 1228 l 539 1060 q 517 1043 529 1050 q 489 1036 506 1036 q 460 1042 471 1036 q 439 1060 449 1049 l 288 1217 z "},"ล":{"ha":817,"x_min":96,"x_max":728,"o":"m 265 82 q 242 24 265 47 q 181 0 218 0 q 121 23 146 0 q 96 82 96 46 l 96 633 q 117 683 96 660 q 182 707 138 707 q 246 685 226 707 q 265 635 265 663 l 265 592 q 347 688 292 654 q 474 721 403 721 q 661 645 594 721 q 728 438 728 569 l 728 82 q 703 24 728 47 q 642 0 679 0 q 581 24 606 0 q 557 82 557 47 l 557 378 q 519 517 557 469 q 413 565 481 565 q 304 516 343 565 q 265 374 265 467 l 265 82 m 215 939 q 199 960 204 950 q 193 982 193 971 q 206 1013 193 997 q 239 1028 219 1028 q 252 1025 244 1028 q 272 1015 260 1022 l 415 913 l 558 1015 q 578 1026 571 1024 q 593 1028 586 1028 q 625 1013 613 1028 q 638 982 638 997 q 632 960 638 971 q 615 939 626 950 l 467 782 q 445 765 457 772 q 417 758 433 758 q 388 765 399 758 q 367 782 376 771 l 215 939 z "},"ล":{"ha":1043,"x_min":68,"x_max":975,"o":"m 338 21 q 194 122 254 57 q 101 278 135 188 q 68 479 68 368 q 101 681 68 590 q 194 837 135 772 q 338 937 254 901 q 521 972 421 972 q 706 937 622 972 q 849 837 789 901 q 942 681 908 772 q 975 479 975 590 q 942 278 975 368 q 849 122 908 188 q 706 22 789 57 q 521 -14 622 -14 q 338 21 421 -14 m 322 246 q 408 181 358 204 q 521 157 458 157 q 635 181 583 157 q 722 247 686 204 q 776 349 757 289 q 796 479 796 408 q 776 610 796 551 q 721 712 757 669 q 634 778 685 754 q 521 801 583 801 q 408 778 458 801 q 322 712 357 754 q 267 610 286 669 q 247 479 247 551 q 267 349 247 408 q 322 246 286 289 m 378 1118 q 331 1139 350 1118 q 313 1188 313 1160 q 331 1235 313 1215 q 378 1256 350 1256 l 664 1256 q 710 1235 692 1256 q 728 1188 728 1215 q 710 1139 728 1160 q 664 1118 692 1118 l 378 1118 z "},"ล":{"ha":822,"x_min":56,"x_max":767,"o":"m 267 14 q 155 92 201 43 q 82 208 108 142 q 56 353 56 275 q 82 498 56 431 q 155 615 108 565 q 267 692 201 664 q 411 721 332 721 q 554 692 489 721 q 667 615 619 664 q 740 498 714 565 q 767 353 767 431 q 740 208 767 275 q 667 92 714 142 q 554 15 619 43 q 411 -14 489 -14 q 267 14 332 -14 m 276 204 q 333 158 300 175 q 411 140 367 140 q 489 157 456 140 q 545 203 522 174 q 580 270 568 232 q 592 351 592 308 q 580 435 592 396 q 545 503 568 474 q 489 549 522 532 q 411 565 456 565 q 333 549 367 565 q 277 505 300 533 q 242 438 254 476 q 231 356 231 400 q 242 274 231 313 q 276 204 254 235 m 268 840 q 222 861 240 840 q 203 910 203 882 q 222 958 203 938 q 268 978 240 978 l 554 978 q 600 958 582 978 q 618 910 618 938 q 600 861 618 882 q 554 840 582 840 l 268 840 z "},"ล":{"ha":1043,"x_min":68,"x_max":975,"o":"m 338 21 q 194 122 254 57 q 101 278 135 188 q 68 479 68 368 q 101 681 68 590 q 194 837 135 772 q 338 937 254 901 q 521 972 421 972 q 706 937 622 972 q 849 837 789 901 q 942 681 908 772 q 975 479 975 590 q 942 278 975 368 q 849 122 908 188 q 706 22 789 57 q 521 -14 622 -14 q 338 21 421 -14 m 322 246 q 408 181 358 204 q 521 157 458 157 q 635 181 583 157 q 722 247 686 204 q 776 349 757 289 q 796 479 796 408 q 776 610 796 551 q 721 712 757 669 q 634 778 685 754 q 521 801 583 801 q 408 778 458 801 q 322 712 357 754 q 267 610 286 669 q 247 479 247 551 q 267 349 247 408 q 322 246 286 289 m 571 1186 q 606 1243 592 1203 q 660 1286 617 1286 q 702 1269 689 1286 q 715 1231 715 1251 q 699 1163 715 1194 q 656 1107 683 1131 q 592 1069 628 1083 q 515 1056 556 1056 q 440 1069 475 1056 q 377 1107 404 1083 q 335 1163 350 1131 q 319 1231 319 1194 q 333 1269 319 1251 q 374 1286 346 1286 q 429 1243 415 1286 q 463 1187 442 1203 q 517 1171 485 1171 q 571 1186 550 1171 z "},"ล":{"ha":822,"x_min":56,"x_max":767,"o":"m 267 14 q 155 92 201 43 q 82 208 108 142 q 56 353 56 275 q 82 498 56 431 q 155 615 108 565 q 267 692 201 664 q 411 721 332 721 q 554 692 489 721 q 667 615 619 664 q 740 498 714 565 q 767 353 767 431 q 740 208 767 275 q 667 92 714 142 q 554 15 619 43 q 411 -14 489 -14 q 267 14 332 -14 m 276 204 q 333 158 300 175 q 411 140 367 140 q 489 157 456 140 q 545 203 522 174 q 580 270 568 232 q 592 351 592 308 q 580 435 592 396 q 545 503 568 474 q 489 549 522 532 q 411 565 456 565 q 333 549 367 565 q 277 505 300 533 q 242 438 254 476 q 231 356 231 400 q 242 274 231 313 q 276 204 254 235 m 461 908 q 496 965 482 925 q 550 1008 507 1008 q 592 991 579 1008 q 606 953 606 974 q 590 885 606 917 q 546 829 574 853 q 482 792 518 806 q 406 778 446 778 q 330 792 365 778 q 267 829 294 806 q 225 885 240 853 q 210 953 210 917 q 223 991 210 974 q 264 1008 236 1008 q 319 965 306 1008 q 353 909 332 925 q 407 893 375 893 q 461 908 440 893 z "},"ล":{"ha":1043,"x_min":68,"x_max":975,"o":"m 338 21 q 194 122 254 57 q 101 278 135 188 q 68 479 68 368 q 101 681 68 590 q 194 837 135 772 q 338 937 254 901 q 521 972 421 972 q 706 937 622 972 q 849 837 789 901 q 942 681 908 772 q 975 479 975 590 q 942 278 975 368 q 849 122 908 188 q 706 22 789 57 q 521 -14 622 -14 q 338 21 421 -14 m 322 246 q 408 181 358 204 q 521 157 458 157 q 635 181 583 157 q 722 247 686 204 q 776 349 757 289 q 796 479 796 408 q 776 610 796 551 q 721 712 757 669 q 634 778 685 754 q 521 801 583 801 q 408 778 458 801 q 322 712 357 754 q 267 610 286 669 q 247 479 247 551 q 267 349 247 408 q 322 246 286 289 m 389 1050 q 354 1036 367 1036 q 316 1053 331 1036 q 301 1090 301 1071 q 324 1138 301 1115 l 471 1278 q 497 1297 482 1289 q 529 1306 511 1306 q 580 1283 557 1306 q 603 1233 603 1261 q 574 1174 603 1193 l 389 1050 m 674 1050 q 639 1036 651 1036 q 601 1053 615 1036 q 586 1090 586 1071 q 610 1138 586 1115 l 756 1278 q 781 1297 767 1289 q 814 1306 796 1306 q 865 1283 843 1306 q 888 1233 888 1261 q 858 1174 888 1193 l 674 1050 z "},"ล":{"ha":822,"x_min":56,"x_max":767,"o":"m 267 14 q 155 92 201 43 q 82 208 108 142 q 56 353 56 275 q 82 498 56 431 q 155 615 108 565 q 267 692 201 664 q 411 721 332 721 q 554 692 489 721 q 667 615 619 664 q 740 498 714 565 q 767 353 767 431 q 740 208 767 275 q 667 92 714 142 q 554 15 619 43 q 411 -14 489 -14 q 267 14 332 -14 m 276 204 q 333 158 300 175 q 411 140 367 140 q 489 157 456 140 q 545 203 522 174 q 580 270 568 232 q 592 351 592 308 q 580 435 592 396 q 545 503 568 474 q 489 549 522 532 q 411 565 456 565 q 333 549 367 565 q 277 505 300 533 q 242 438 254 476 q 231 356 231 400 q 242 274 231 313 q 276 204 254 235 m 268 772 q 233 758 246 758 q 195 776 210 758 q 181 813 181 793 q 203 860 181 838 l 350 1000 q 376 1019 361 1011 q 408 1028 390 1028 q 459 1006 436 1028 q 482 956 482 983 q 453 896 482 915 l 268 772 m 553 772 q 518 758 531 758 q 480 776 494 758 q 465 813 465 793 q 489 860 465 838 l 635 1000 q 660 1019 646 1011 q 693 1028 675 1028 q 744 1006 722 1028 q 767 956 767 983 q 738 896 767 915 l 553 772 z "},"ล":{"ha":1479,"x_min":38,"x_max":1442,"o":"m 864 0 q 771 76 771 0 l 771 138 q 648 28 722 69 q 465 -14 574 -14 q 297 22 375 -14 q 160 122 218 57 q 70 278 103 188 q 38 479 38 368 q 71 681 38 590 q 163 837 104 772 q 302 937 221 901 q 479 972 383 972 q 658 933 586 972 q 771 825 731 894 l 771 883 q 793 935 771 913 q 856 958 815 958 l 1360 958 q 1419 938 1397 958 q 1442 882 1442 918 q 1419 824 1442 846 q 1360 803 1397 803 l 942 803 l 942 564 l 1208 564 q 1269 544 1244 564 q 1294 488 1294 524 q 1269 430 1294 450 q 1208 410 1244 410 l 942 410 l 942 154 l 1360 154 q 1420 134 1399 154 q 1442 78 1442 114 q 1420 21 1442 42 q 1360 0 1399 0 l 864 0 m 744 349 q 767 476 765 407 q 748 610 767 550 q 694 713 729 671 q 607 778 658 756 q 492 801 556 801 q 379 778 429 801 q 293 713 329 756 q 238 612 257 671 q 218 481 218 553 q 238 350 218 410 q 293 247 257 290 q 379 181 329 204 q 492 157 429 157 q 604 181 554 157 q 690 248 654 206 q 744 349 725 290 z "},"ล":{"ha":1317,"x_min":56,"x_max":1256,"o":"m 761 313 q 823 185 772 229 q 950 140 874 140 q 1005 147 979 140 q 1051 163 1031 153 q 1088 183 1072 172 q 1114 200 1104 193 q 1151 211 1139 211 q 1205 188 1183 211 q 1226 135 1226 164 q 1215 97 1226 114 q 1190 68 1204 79 q 1086 10 1150 35 q 936 -14 1022 -14 q 785 18 851 -14 q 674 107 718 50 q 562 18 629 50 q 411 -14 494 -14 q 267 15 332 -14 q 155 92 201 43 q 82 208 108 142 q 56 353 56 275 q 82 498 56 431 q 155 615 108 565 q 267 692 201 664 q 411 721 332 721 q 565 687 497 721 q 678 593 633 653 q 789 686 724 651 q 936 721 854 721 q 1067 695 1008 721 q 1168 627 1126 669 q 1233 529 1210 585 q 1256 414 1256 474 q 1241 341 1256 369 q 1179 313 1226 313 l 761 313 m 276 204 q 333 158 300 175 q 411 140 367 140 q 489 157 456 140 q 545 203 522 174 q 580 270 568 232 q 592 351 592 308 q 580 435 592 396 q 545 503 568 474 q 489 549 522 532 q 411 565 456 565 q 333 549 367 565 q 277 505 300 533 q 242 438 254 476 q 231 356 231 400 q 242 274 231 313 q 276 204 254 235 m 1089 414 q 1081 467 1090 440 q 1051 517 1071 494 q 1001 552 1031 539 q 935 565 972 565 q 822 526 868 565 q 763 414 776 486 l 1089 414 z "},"ล":{"ha":857,"x_min":106,"x_max":796,"o":"m 281 88 q 256 24 281 49 q 193 0 232 0 q 130 24 154 0 q 106 88 106 49 l 106 871 q 130 934 106 910 q 193 958 154 958 l 449 958 q 590 936 528 958 q 697 873 653 914 q 765 774 742 832 q 789 647 789 717 q 742 476 789 549 q 603 367 694 403 l 756 172 q 788 119 781 140 q 796 78 796 99 q 774 25 796 50 q 708 0 751 0 q 658 15 679 0 q 618 53 636 29 l 411 336 l 281 336 l 281 88 m 281 492 l 447 492 q 567 533 524 492 q 610 647 610 574 q 565 763 610 722 q 444 803 519 803 l 281 803 l 281 492 m 368 1050 q 333 1036 349 1036 q 296 1053 310 1036 q 282 1090 282 1071 q 304 1138 282 1115 l 450 1278 q 476 1297 461 1289 q 508 1306 490 1306 q 560 1283 538 1306 q 583 1233 583 1261 q 553 1174 583 1194 l 368 1050 z "},"ล":{"ha":568,"x_min":96,"x_max":551,"o":"m 265 82 q 240 22 265 44 q 181 0 215 0 q 120 22 144 0 q 96 82 96 44 l 96 631 q 116 685 96 663 q 175 707 136 707 q 256 631 256 707 l 256 583 q 337 681 285 642 q 463 721 389 721 q 531 699 511 721 q 551 646 551 676 q 532 588 551 611 q 469 564 513 564 q 394 551 431 564 q 328 511 357 538 q 283 444 300 485 q 265 347 265 403 l 265 82 m 225 772 q 190 758 206 758 q 153 776 167 758 q 139 813 139 793 q 161 860 139 838 l 307 1000 q 333 1019 318 1011 q 365 1028 347 1028 q 417 1006 394 1028 q 440 956 440 983 q 410 896 440 917 l 225 772 z "},"ล":{"ha":857,"x_min":106,"x_max":796,"o":"m 281 88 q 256 24 281 49 q 193 0 232 0 q 130 24 154 0 q 106 88 106 49 l 106 871 q 130 934 106 910 q 193 958 154 958 l 449 958 q 590 936 528 958 q 697 873 653 914 q 765 774 742 832 q 789 647 789 717 q 742 476 789 549 q 603 367 694 403 l 756 172 q 788 119 781 140 q 796 78 796 99 q 774 25 796 50 q 708 0 751 0 q 658 15 679 0 q 618 53 636 29 l 411 336 l 281 336 l 281 88 m 281 492 l 447 492 q 567 533 524 492 q 610 647 610 574 q 565 763 610 722 q 444 803 519 803 l 281 803 l 281 492 m 396 -293 q 414 -244 414 -272 q 357 -215 374 -237 q 340 -164 340 -193 q 366 -97 340 -121 q 425 -72 392 -72 q 495 -103 467 -72 q 524 -193 524 -133 q 507 -294 524 -253 q 466 -360 490 -335 q 415 -397 442 -386 q 368 -408 389 -408 q 333 -397 344 -408 q 321 -368 321 -386 q 328 -344 321 -356 q 349 -326 335 -332 q 396 -293 379 -315 z "},"ล":{"ha":568,"x_min":82,"x_max":551,"o":"m 265 82 q 240 22 265 44 q 181 0 215 0 q 120 22 144 0 q 96 82 96 44 l 96 631 q 116 685 96 663 q 175 707 136 707 q 256 631 256 707 l 256 583 q 337 681 285 642 q 463 721 389 721 q 531 699 511 721 q 551 646 551 676 q 532 588 551 611 q 469 564 513 564 q 394 551 431 564 q 328 511 357 538 q 283 444 300 485 q 265 347 265 403 l 265 82 m 157 -293 q 175 -244 175 -272 q 118 -215 135 -237 q 101 -164 101 -193 q 127 -97 101 -121 q 186 -72 153 -72 q 256 -103 228 -72 q 285 -193 285 -133 q 268 -294 285 -253 q 227 -360 251 -335 q 176 -397 203 -386 q 129 -408 150 -408 q 94 -397 106 -408 q 82 -368 82 -386 q 89 -344 82 -356 q 110 -326 96 -332 q 157 -293 140 -315 z "},"ล":{"ha":857,"x_min":106,"x_max":796,"o":"m 281 88 q 256 24 281 49 q 193 0 232 0 q 130 24 154 0 q 106 88 106 49 l 106 871 q 130 934 106 910 q 193 958 154 958 l 449 958 q 590 936 528 958 q 697 873 653 914 q 765 774 742 832 q 789 647 789 717 q 742 476 789 549 q 603 367 694 403 l 756 172 q 788 119 781 140 q 796 78 796 99 q 774 25 796 50 q 708 0 751 0 q 658 15 679 0 q 618 53 636 29 l 411 336 l 281 336 l 281 88 m 281 492 l 447 492 q 567 533 524 492 q 610 647 610 574 q 565 763 610 722 q 444 803 519 803 l 281 803 l 281 492 m 211 1217 q 194 1238 200 1228 q 189 1260 189 1249 q 202 1290 189 1275 q 235 1306 215 1306 q 248 1303 240 1306 q 268 1293 256 1300 l 411 1190 l 554 1293 q 574 1303 567 1301 q 589 1306 582 1306 q 621 1290 608 1306 q 633 1260 633 1275 q 628 1238 633 1249 q 611 1217 622 1228 l 463 1060 q 441 1043 453 1050 q 413 1036 429 1036 q 383 1042 394 1036 q 363 1060 372 1049 l 211 1217 z "},"ล":{"ha":568,"x_min":69,"x_max":551,"o":"m 265 82 q 240 22 265 44 q 181 0 215 0 q 120 22 144 0 q 96 82 96 44 l 96 631 q 116 685 96 663 q 175 707 136 707 q 256 631 256 707 l 256 583 q 337 681 285 642 q 463 721 389 721 q 531 699 511 721 q 551 646 551 676 q 532 588 551 611 q 469 564 513 564 q 394 551 431 564 q 328 511 357 538 q 283 444 300 485 q 265 347 265 403 l 265 82 m 92 939 q 75 960 81 950 q 69 982 69 971 q 83 1013 69 997 q 115 1028 96 1028 q 128 1025 121 1028 q 149 1015 136 1022 l 292 913 l 435 1015 q 455 1026 447 1024 q 469 1028 463 1028 q 501 1013 489 1028 q 514 982 514 997 q 508 960 514 971 q 492 939 503 950 l 343 782 q 322 765 333 772 q 293 758 310 758 q 264 765 275 758 q 243 782 253 771 l 92 939 z "},"ล":{"ha":836,"x_min":54,"x_max":776,"o":"m 136 267 q 172 260 156 267 q 204 242 189 253 q 247 209 225 225 q 294 182 268 193 q 353 164 321 171 q 426 157 386 157 q 490 163 460 157 q 544 183 521 169 q 582 218 568 197 q 596 267 596 239 q 583 317 596 296 q 541 356 569 339 q 466 389 513 374 q 353 421 419 404 q 247 456 297 435 q 160 510 197 478 q 101 588 122 542 q 79 699 79 633 q 106 815 79 764 q 181 901 133 865 q 290 954 228 936 q 422 972 353 972 q 571 952 510 972 q 679 901 632 932 q 723 857 710 882 q 736 808 736 832 q 728 769 736 785 q 707 743 719 753 q 680 728 694 733 q 653 724 665 724 q 613 731 629 724 q 579 747 596 738 q 550 765 565 756 q 515 782 535 774 q 469 796 494 790 q 407 801 443 801 q 294 770 329 801 q 258 700 258 739 q 313 618 258 649 q 489 557 368 588 q 592 524 540 543 q 685 473 644 504 q 751 394 725 442 q 776 274 776 346 q 753 163 776 215 q 683 72 729 111 q 569 9 638 32 q 408 -14 500 -14 q 304 -4 351 -14 q 219 21 257 6 q 151 56 181 36 q 101 96 122 75 q 69 133 85 111 q 54 179 54 156 q 63 221 54 204 q 85 248 72 238 q 113 263 99 258 q 136 267 126 267 m 358 1050 q 324 1036 339 1036 q 286 1053 300 1036 q 272 1090 272 1071 q 294 1138 272 1115 l 440 1278 q 466 1297 451 1289 q 499 1306 481 1306 q 551 1283 528 1306 q 574 1233 574 1261 q 543 1174 574 1194 l 358 1050 z "},"ล":{"ha":664,"x_min":58,"x_max":604,"o":"m 182 10 q 85 74 122 33 q 64 104 69 89 q 58 135 58 119 q 78 186 58 161 q 126 211 99 211 q 161 203 146 211 q 186 189 176 196 q 248 151 214 167 q 325 135 282 135 q 401 150 374 135 q 429 200 429 165 q 403 248 429 229 q 339 280 376 267 q 264 307 301 293 q 231 318 257 308 q 164 353 204 328 q 97 415 124 378 q 71 513 71 453 q 90 595 71 557 q 144 661 110 633 q 228 705 179 689 q 333 721 276 721 q 468 699 415 721 q 553 644 521 676 q 574 613 568 629 q 581 582 581 596 q 563 533 581 558 q 515 507 546 507 q 487 514 501 507 q 458 531 472 521 q 411 558 440 543 q 338 572 382 572 q 273 559 300 572 q 246 514 246 546 q 272 472 246 488 q 337 442 299 456 q 417 413 375 428 q 446 402 421 411 q 511 369 471 393 q 578 307 551 344 q 604 214 604 269 q 584 124 604 165 q 528 51 564 82 q 441 3 492 21 q 328 -14 390 -14 q 182 10 242 -14 m 272 772 q 238 758 253 758 q 200 776 214 758 q 186 813 186 793 q 208 860 186 838 l 354 1000 q 380 1019 365 1011 q 413 1028 394 1028 q 465 1006 442 1028 q 488 956 488 983 q 457 896 488 917 l 272 772 z "},"ล":{"ha":836,"x_min":54,"x_max":776,"o":"m 136 267 q 172 260 156 267 q 204 242 189 253 q 247 209 225 225 q 294 182 268 193 q 353 164 321 171 q 426 157 386 157 q 490 163 460 157 q 544 183 521 169 q 582 218 568 197 q 596 267 596 239 q 583 317 596 296 q 541 356 569 339 q 466 389 513 374 q 353 421 419 404 q 247 456 297 435 q 160 510 197 478 q 101 588 122 542 q 79 699 79 633 q 106 815 79 764 q 181 901 133 865 q 290 954 228 936 q 422 972 353 972 q 571 952 510 972 q 679 901 632 932 q 723 857 710 882 q 736 808 736 832 q 728 769 736 785 q 707 743 719 753 q 680 728 694 733 q 653 724 665 724 q 613 731 629 724 q 579 747 596 738 q 550 765 565 756 q 515 782 535 774 q 469 796 494 790 q 407 801 443 801 q 294 770 329 801 q 258 700 258 739 q 313 618 258 649 q 489 557 368 588 q 592 524 540 543 q 685 473 644 504 q 751 394 725 442 q 776 274 776 346 q 753 163 776 215 q 683 72 729 111 q 569 9 638 32 q 408 -14 500 -14 q 304 -4 351 -14 q 219 21 257 6 q 151 56 181 36 q 101 96 122 75 q 69 133 85 111 q 54 179 54 156 q 63 221 54 204 q 85 248 72 238 q 113 263 99 258 q 136 267 126 267 m 282 1049 q 262 1039 269 1042 q 249 1036 254 1036 q 216 1051 229 1036 q 203 1082 203 1067 q 208 1103 203 1093 q 225 1125 214 1114 l 376 1282 q 397 1299 386 1293 q 426 1306 408 1306 q 455 1299 443 1306 q 476 1282 467 1292 l 625 1125 q 642 1103 636 1114 q 647 1082 647 1093 q 635 1051 647 1067 q 603 1036 622 1036 q 588 1038 596 1036 q 568 1049 581 1040 l 425 1151 l 282 1049 z "},"ล":{"ha":664,"x_min":58,"x_max":604,"o":"m 182 10 q 85 74 122 33 q 64 104 69 89 q 58 135 58 119 q 78 186 58 161 q 126 211 99 211 q 161 203 146 211 q 186 189 176 196 q 248 151 214 167 q 325 135 282 135 q 401 150 374 135 q 429 200 429 165 q 403 248 429 229 q 339 280 376 267 q 264 307 301 293 q 231 318 257 308 q 164 353 204 328 q 97 415 124 378 q 71 513 71 453 q 90 595 71 557 q 144 661 110 633 q 228 705 179 689 q 333 721 276 721 q 468 699 415 721 q 553 644 521 676 q 574 613 568 629 q 581 582 581 596 q 563 533 581 558 q 515 507 546 507 q 487 514 501 507 q 458 531 472 521 q 411 558 440 543 q 338 572 382 572 q 273 559 300 572 q 246 514 246 546 q 272 472 246 488 q 337 442 299 456 q 417 413 375 428 q 446 402 421 411 q 511 369 471 393 q 578 307 551 344 q 604 214 604 269 q 584 124 604 165 q 528 51 564 82 q 441 3 492 21 q 328 -14 390 -14 q 182 10 242 -14 m 196 771 q 176 761 183 764 q 163 758 168 758 q 130 774 143 758 q 117 804 117 789 q 122 826 117 815 q 139 847 128 836 l 290 1004 q 311 1022 300 1015 q 340 1028 322 1028 q 369 1021 357 1028 q 390 1004 381 1014 l 539 847 q 556 826 550 836 q 561 804 561 815 q 549 774 561 789 q 517 758 536 758 q 502 760 510 758 q 482 771 494 763 l 339 874 l 196 771 z "},"ล":{"ha":836,"x_min":54,"x_max":776,"o":"m 344 -10 q 197 30 257 0 q 101 96 138 60 q 69 133 85 111 q 54 179 54 156 q 63 221 54 204 q 85 248 72 238 q 113 263 99 258 q 136 267 126 267 q 172 260 156 267 q 204 242 189 253 q 247 209 225 225 q 294 182 268 193 q 353 164 321 171 q 426 157 386 157 q 490 163 460 157 q 544 183 521 169 q 582 218 568 197 q 596 267 596 239 q 583 317 596 296 q 541 356 569 339 q 466 389 513 374 q 353 421 419 404 q 247 456 297 435 q 160 510 197 478 q 101 588 122 542 q 79 699 79 633 q 106 815 79 764 q 181 901 133 865 q 290 954 228 936 q 422 972 353 972 q 571 952 510 972 q 679 901 632 932 q 723 857 710 882 q 736 808 736 832 q 728 769 736 785 q 707 743 719 753 q 680 728 694 733 q 653 724 665 724 q 613 731 629 724 q 579 747 596 738 q 550 765 565 756 q 515 782 535 774 q 469 796 494 790 q 407 801 443 801 q 294 770 329 801 q 258 700 258 739 q 313 618 258 649 q 489 557 368 588 q 592 524 540 543 q 685 473 644 504 q 751 394 725 442 q 776 274 776 346 q 755 168 776 218 q 692 79 733 118 q 588 16 650 40 q 442 -12 525 -8 l 442 -46 q 481 -56 461 -49 q 515 -78 500 -64 q 540 -112 531 -92 q 549 -164 549 -133 q 535 -227 549 -200 q 499 -272 521 -254 q 450 -299 478 -290 q 393 -308 422 -308 q 331 -294 349 -308 q 314 -253 314 -281 q 332 -212 314 -221 q 368 -204 350 -204 q 425 -168 425 -204 q 412 -143 425 -150 q 368 -132 399 -136 q 349 -124 354 -129 q 344 -103 344 -119 l 344 -10 z "},"ล":{"ha":664,"x_min":58,"x_max":604,"o":"m 264 -10 q 159 19 203 -3 q 85 74 115 42 q 64 104 69 89 q 58 135 58 119 q 78 186 58 161 q 126 211 99 211 q 161 203 146 211 q 186 189 176 196 q 248 151 214 167 q 325 135 282 135 q 401 150 374 135 q 429 200 429 165 q 403 248 429 229 q 338 281 376 267 q 256 310 299 294 q 228 319 253 310 q 164 353 204 328 q 97 415 124 378 q 71 513 71 453 q 90 595 71 557 q 144 661 110 633 q 228 705 179 689 q 333 721 276 721 q 468 699 415 721 q 553 644 521 676 q 574 613 568 629 q 581 582 581 596 q 563 533 581 558 q 515 507 546 507 q 487 514 501 507 q 458 531 472 521 q 411 558 440 543 q 338 572 382 572 q 273 559 300 572 q 246 514 246 546 q 272 472 246 488 q 339 441 299 456 q 425 410 379 426 q 511 369 471 393 q 578 307 551 344 q 604 214 604 269 q 587 128 604 168 q 538 59 569 89 q 460 10 506 29 q 361 -12 415 -8 l 361 -46 q 400 -56 381 -49 q 435 -78 419 -64 q 460 -112 450 -92 q 469 -164 469 -133 q 456 -227 469 -200 q 419 -272 442 -254 q 369 -299 397 -290 q 313 -308 342 -308 q 251 -294 269 -308 q 233 -253 233 -281 q 252 -212 233 -221 q 288 -204 271 -204 q 346 -168 346 -204 q 332 -143 346 -150 q 289 -132 318 -136 q 269 -124 275 -129 q 264 -103 264 -119 l 264 -10 z "},"ล":{"ha":836,"x_min":54,"x_max":776,"o":"m 136 267 q 172 260 156 267 q 204 242 189 253 q 247 209 225 225 q 294 182 268 193 q 353 164 321 171 q 426 157 386 157 q 490 163 460 157 q 544 183 521 169 q 582 218 568 197 q 596 267 596 239 q 583 317 596 296 q 541 356 569 339 q 466 389 513 374 q 353 421 419 404 q 247 456 297 435 q 160 510 197 478 q 101 588 122 542 q 79 699 79 633 q 106 815 79 764 q 181 901 133 865 q 290 954 228 936 q 422 972 353 972 q 571 952 510 972 q 679 901 632 932 q 723 857 710 882 q 736 808 736 832 q 728 769 736 785 q 707 743 719 753 q 680 728 694 733 q 653 724 665 724 q 613 731 629 724 q 579 747 596 738 q 550 765 565 756 q 515 782 535 774 q 469 796 494 790 q 407 801 443 801 q 294 770 329 801 q 258 700 258 739 q 313 618 258 649 q 489 557 368 588 q 592 524 540 543 q 685 473 644 504 q 751 394 725 442 q 776 274 776 346 q 753 163 776 215 q 683 72 729 111 q 569 9 638 32 q 408 -14 500 -14 q 304 -4 351 -14 q 219 21 257 6 q 151 56 181 36 q 101 96 122 75 q 69 133 85 111 q 54 179 54 156 q 63 221 54 204 q 85 248 72 238 q 113 263 99 258 q 136 267 126 267 m 225 1217 q 208 1238 214 1228 q 203 1260 203 1249 q 216 1290 203 1275 q 249 1306 229 1306 q 262 1303 254 1306 q 282 1293 269 1300 l 425 1190 l 568 1293 q 588 1303 581 1301 q 603 1306 596 1306 q 635 1290 622 1306 q 647 1260 647 1275 q 642 1238 647 1249 q 625 1217 636 1228 l 476 1060 q 455 1043 467 1050 q 426 1036 443 1036 q 397 1042 408 1036 q 376 1060 386 1049 l 225 1217 z "},"ลก":{"ha":664,"x_min":58,"x_max":604,"o":"m 182 10 q 85 74 122 33 q 64 104 69 89 q 58 135 58 119 q 78 186 58 161 q 126 211 99 211 q 161 203 146 211 q 186 189 176 196 q 248 151 214 167 q 325 135 282 135 q 401 150 374 135 q 429 200 429 165 q 403 248 429 229 q 339 280 376 267 q 264 307 301 293 q 231 318 257 308 q 164 353 204 328 q 97 415 124 378 q 71 513 71 453 q 90 595 71 557 q 144 661 110 633 q 228 705 179 689 q 333 721 276 721 q 468 699 415 721 q 553 644 521 676 q 574 613 568 629 q 581 582 581 596 q 563 533 581 558 q 515 507 546 507 q 487 514 501 507 q 458 531 472 521 q 411 558 440 543 q 338 572 382 572 q 273 559 300 572 q 246 514 246 546 q 272 472 246 488 q 337 442 299 456 q 417 413 375 428 q 446 402 421 411 q 511 369 471 393 q 578 307 551 344 q 604 214 604 269 q 584 124 604 165 q 528 51 564 82 q 441 3 492 21 q 328 -14 390 -14 q 182 10 242 -14 m 139 939 q 122 960 128 950 q 117 982 117 971 q 130 1013 117 997 q 163 1028 143 1028 q 176 1025 168 1028 q 196 1015 183 1022 l 339 913 l 482 1015 q 502 1026 494 1024 q 517 1028 510 1028 q 549 1013 536 1028 q 561 982 561 997 q 556 960 561 971 q 539 939 550 950 l 390 782 q 369 765 381 772 q 340 758 357 758 q 311 765 322 758 q 290 782 300 771 l 139 939 z "},"ลข":{"ha":868,"x_min":33,"x_max":836,"o":"m 522 88 q 498 24 522 49 q 435 0 474 0 q 371 24 394 0 q 347 88 347 49 l 347 803 l 118 803 q 57 824 81 803 q 33 881 33 844 q 57 938 33 917 q 118 958 81 958 l 750 958 q 812 938 788 958 q 836 881 836 917 q 812 824 836 844 q 750 803 788 803 l 522 803 l 522 88 m 393 -293 q 411 -244 411 -272 q 354 -215 371 -237 q 338 -164 338 -193 q 363 -97 338 -121 q 422 -72 389 -72 q 492 -103 464 -72 q 521 -193 521 -133 q 504 -294 521 -253 q 463 -360 488 -335 q 413 -397 439 -386 q 365 -408 386 -408 q 330 -397 342 -408 q 318 -368 318 -386 q 325 -344 318 -356 q 346 -326 332 -332 q 393 -293 376 -315 z "}}}
